<svg width="69" height="73" viewBox="0 0 69 73" fill="none" xmlns="http://www.w3.org/2000/svg">
<path d="M23 8.99998L19 9.04914L6.23174 9.06551C5.55065 9.06637 4.99917 9.63747 5 10.3429L5.04119 47.6914V47.6914C5.0421 48.6412 6.17087 49.1056 6.94031 49.6626L33.3358 68.7686C33.7612 69.0771 34.3272 69.0777 34.7519 68.7669L60.8768 49.7648C61.7231 49.1492 63.0011 48.6694 63 47.6229V47.6229L62.9588 10.2743C62.9581 9.56915 62.4052 8.99915 61.7242 9.00001L58.256 9.0041L54.7877 9.0082L46.2844 9.0082" stroke="#004569" stroke-width="2" stroke-linecap="round"/>
<path d="M5 42L33.5 62.5V62.5C34.0775 62.8846 34.7831 62.2964 35.3464 61.8912L63 42" stroke="#004569" stroke-width="2" stroke-linecap="round"/>
<mask id="mask0_156_229" style="mask-type:alpha" maskUnits="userSpaceOnUse" x="12" y="0" width="45" height="20">
<path d="M56.6289 3.66903C56.6289 12.6884 46.7792 20 34.6289 20C22.4786 20 12.6289 12.6884 12.6289 3.66903C12.6289 -0.924046 22.4786 0.096633 34.6289 0.096633C46.7792 0.096633 56.6289 -0.924052 56.6289 3.66903Z" fill="white"/>
</mask>
<g mask="url(#mask0_156_229)">
<path d="M24.6289 12.5947C24.6289 9.9425 25.6825 7.39896 27.5578 5.5236C29.4332 3.64823 31.9767 2.59467 34.6289 2.59467C37.2811 2.59467 39.8246 3.64823 41.7 5.5236C43.5753 7.39896 44.6289 9.9425 44.6289 12.5947C44.6289 15.2468 43.5753 17.7904 41.7 19.6657C39.8246 21.5411 37.2811 22.5947 34.6289 22.5947C31.9767 22.5947 29.4332 21.5411 27.5578 19.6657C25.6825 17.7904 24.6289 15.2468 24.6289 12.5947ZM34.0039 3.94092C33.1664 4.19592 32.3352 4.96592 31.6452 6.25967C31.4178 6.68979 31.2223 7.13598 31.0602 7.59467H34.0039V3.94092ZM29.7414 7.59467C29.9497 6.93069 30.2175 6.28683 30.5414 5.67092C30.7575 5.26223 31.0071 4.87215 31.2877 4.50467C29.7389 5.14695 28.4064 6.21919 27.4477 7.59467H29.7414ZM29.0139 11.9697C29.0514 10.8734 29.1864 9.82217 29.4039 8.84467H26.7214C26.2553 9.82598 25.9772 10.8859 25.9014 11.9697H29.0139ZM30.6877 8.84467C30.4418 9.86942 30.3002 10.9164 30.2652 11.9697H34.0039V8.84467H30.6877ZM35.2539 8.84467V11.9697H38.9914C38.9568 10.9165 38.8156 9.86945 38.5702 8.84467H35.2539ZM30.2664 13.2197C30.3011 14.2729 30.4422 15.3199 30.6877 16.3447H34.0039V13.2197H30.2664ZM35.2539 13.2197V16.3447H38.5702C38.8039 15.3884 38.9527 14.3347 38.9927 13.2197H35.2539ZM31.0602 17.5947C31.2327 18.0772 31.4289 18.5247 31.6452 18.9297C32.3352 20.2234 33.1677 20.9922 34.0039 21.2484V17.5947H31.0602ZM31.2877 20.6847C31.0071 20.3172 30.7575 19.9271 30.5414 19.5184C30.2175 18.9025 29.9498 18.2586 29.7414 17.5947H27.4477C28.4064 18.9702 29.7389 20.0424 31.2877 20.6847ZM29.4039 16.3447C29.1779 15.3172 29.0473 14.2711 29.0139 13.2197H25.9014C25.9789 14.3322 26.2652 15.3859 26.7214 16.3447H29.4039ZM37.9702 20.6847C39.5189 20.0424 40.8514 18.9702 41.8102 17.5947H39.5164C39.308 18.2586 39.0403 18.9025 38.7164 19.5184C38.5003 19.9271 38.2507 20.3172 37.9702 20.6847ZM35.2539 17.5947V21.2484C36.0914 20.9934 36.9227 20.2234 37.6127 18.9297C37.8289 18.5247 38.0252 18.0772 38.1977 17.5947H35.2539ZM39.8539 16.3447H42.5364C42.9927 15.3859 43.2789 14.3322 43.3564 13.2197H40.2439C40.2105 14.2711 40.08 15.3172 39.8539 16.3447ZM43.3564 11.9697C43.2806 10.8859 43.0025 9.82599 42.5364 8.84467H39.8539C40.0714 9.82217 40.2064 10.8734 40.2439 11.9697H43.3564ZM38.7164 5.67092C39.0252 6.25092 39.2939 6.89592 39.5164 7.59467H41.8102C40.8514 6.21914 39.5189 5.14689 37.9702 4.50467C38.2427 4.85967 38.4927 5.25217 38.7164 5.67092ZM38.1977 7.59467C38.0355 7.13597 37.84 6.68978 37.6127 6.25967C36.9227 4.96592 36.0914 4.19717 35.2539 3.94092V7.59467H38.1977Z" fill="#004569"/>
</g>
<path d="M62.9276 10.4034C62.9276 18.2644 62.9276 11.12 62.9276 11.12C55.3759 16.6786 45.8904 21 35.2106 21C24.5308 21 15.0453 18.2386 7.49356 12.68C-0.0582266 7.12142 7.27262 11.12 5.40166 10.6L6.73693 8C6.73694 14.8197 1.98809 5.77774 8.53952 10.6C15.1171 15.8 25.9455 18.92 35.2106 18.92C44.4757 18.92 53.2384 15.2257 59.7899 10.4034C66.3413 5.58113 60.8361 14.8197 60.8361 8L61.8817 9.56L62.9276 10.4034Z" fill="#034467"/>
<g filter="url(#filter0_d_156_229)">
<path d="M32.8926 41.1992V44.9639C32.8926 45.4424 32.79 45.7988 32.585 46.0332C32.3408 46.3262 31.9941 46.585 31.5449 46.8096C31.1055 47.0342 30.7441 47.1465 30.4609 47.1465C30.1191 47.1465 29.9482 46.9365 29.9482 46.5166V41.1992C29.9482 40.8477 30.0703 40.6084 30.3145 40.4814C30.5684 40.3545 30.9443 40.291 31.4424 40.291C31.9795 40.291 32.3555 40.3545 32.5703 40.4814C32.7852 40.5986 32.8926 40.8379 32.8926 41.1992ZM29.9482 38.3428V30.5352C29.9482 30.1836 30.0654 29.9541 30.2998 29.8467C30.5439 29.7295 30.915 29.6709 31.4131 29.6709C31.96 29.6709 32.3408 29.7295 32.5557 29.8467C32.7803 29.9541 32.8926 30.1836 32.8926 30.5352V36.6436C32.8926 37.0635 33.0781 37.2734 33.4492 37.2734H35.8955C36.3154 37.2734 36.5254 37.3955 36.5254 37.6396C36.5254 37.874 36.3105 38.1475 35.8809 38.46C35.4609 38.7627 34.9189 39.0166 34.2549 39.2217C33.8447 39.3486 32.8291 39.4121 31.208 39.4121C30.71 39.4121 30.373 39.3242 30.1973 39.1484C30.0312 38.9727 29.9482 38.7041 29.9482 38.3428ZM39.3672 33.7139C39.3672 30.4619 37.4385 28.8359 33.5811 28.8359H30.5195C30.3926 28.8359 30.29 28.8311 30.2119 28.8213C30.1436 28.8115 30.0801 28.7822 30.0215 28.7334C29.9727 28.6748 29.9482 28.5967 29.9482 28.499C29.9482 28.0889 30.2266 27.6494 30.7832 27.1807C31.3496 26.7119 31.9111 26.4678 32.4678 26.4482L34.0205 26.4336L35.8955 26.4482C36.4229 26.458 36.9551 26.5215 37.4922 26.6387C38.0391 26.7461 38.6201 26.9561 39.2354 27.2686C39.8506 27.5811 40.3926 27.9766 40.8613 28.4551C41.3301 28.9336 41.7158 29.5781 42.0186 30.3887C42.3311 31.1992 42.4873 32.1172 42.4873 33.1426C42.4873 33.543 42.4336 33.9824 42.3262 34.4609C42.2285 34.9395 42.0381 35.4717 41.7549 36.0576C41.4814 36.6436 41.1348 37.1807 40.7148 37.6689C40.3047 38.1475 39.748 38.5771 39.0449 38.958C38.3418 39.3291 37.5508 39.5684 36.6719 39.6758H36.584C36.3203 39.6758 36.1885 39.5635 36.1885 39.3389C36.1885 39.2021 36.3008 39.0654 36.5254 38.9287C38.4199 37.7568 39.3672 36.0186 39.3672 33.7139Z" fill="#004569"/>
</g>
<defs>
<filter id="filter0_d_156_229" x="25.9482" y="26.4336" width="20.5391" height="28.7129" filterUnits="userSpaceOnUse" color-interpolation-filters="sRGB">
<feFlood flood-opacity="0" result="BackgroundImageFix"/>
<feColorMatrix in="SourceAlpha" type="matrix" values="0 0 0 0 0 0 0 0 0 0 0 0 0 0 0 0 0 0 127 0" result="hardAlpha"/>
<feOffset dy="4"/>
<feGaussianBlur stdDeviation="2"/>
<feComposite in2="hardAlpha" operator="out"/>
<feColorMatrix type="matrix" values="0 0 0 0 0 0 0 0 0 0 0 0 0 0 0 0 0 0 0.25 0"/>
<feBlend mode="normal" in2="BackgroundImageFix" result="effect1_dropShadow_156_229"/>
<feBlend mode="normal" in="SourceGraphic" in2="effect1_dropShadow_156_229" result="shape"/>
</filter>
</defs>
</svg>
