<svg xmlns="http://www.w3.org/2000/svg" width="40" height="39.999" viewBox="0 0 40 39.999">
  <g id="Group_848" data-name="Group 848" transform="translate(-173.18 -422.034)">
    <path id="Path_354" data-name="Path 354" d="M543.559,1239.444a20,20,0,1,1-20-20,20,20,0,0,1,20,20" transform="translate(-330.379 -797.41)" fill="#5f79bb"/>
    <path id="Path_355" data-name="Path 355" d="M543.583,1259.156l-.6,1.72c-.3.863-.606,1.724-.9,2.59a.847.847,0,0,1-.742.67.867.867,0,0,1-.9-.545q-1.9-3.67-3.8-7.339c-.209-.4-.421-.8-.624-1.211a.206.206,0,0,0-.231-.13q-.763.018-1.526,0a.219.219,0,0,0-.243.137q-2.176,4.285-4.354,8.568a.812.812,0,0,1-.856.517.833.833,0,0,1-.74-.646c-.476-1.4-.965-2.785-1.444-4.18-.047-.137-.1-.153-.229-.123-1.375.332-2.754.651-4.128.99a.744.744,0,0,1-.883-.277.937.937,0,0,1-.075-1.048q.864-1.669,1.723-3.342,1.645-3.189,3.292-6.375a.319.319,0,0,0,.012-.305,10.392,10.392,0,0,1,2.029-11.181,8.919,8.919,0,0,1,5.05-2.765,9.02,9.02,0,0,1,8.6,3.043,9.768,9.768,0,0,1,2.45,5.162,10.69,10.69,0,0,1-.6,5.628.44.44,0,0,0,.017.407q2.475,4.814,4.941,9.634a1.033,1.033,0,0,1-.083,1.168.714.714,0,0,1-.808.268c-1.4-.34-2.8-.671-4.2-1-.044-.011-.09-.018-.159-.032m-16.315-14.314a8.114,8.114,0,0,0,7.761,8.291c4.287.007,7.856-3.883,7.858-8.28,0-4.446-3.616-8.283-7.831-8.291a8.119,8.119,0,0,0-7.788,8.28m10.457,9.71,3.352,6.417c.032-.078.054-.127.072-.177l.495-1.472c.175-.52.346-1.041.527-1.558a.808.808,0,0,1,1.077-.614c.693.169,1.385.344,2.078.515l1.121.275-3.684-7.175a9.305,9.305,0,0,1-5.037,3.789m-13.969,3.381c.095-.02.15-.029.205-.043.968-.242,1.934-.488,2.9-.726a1.279,1.279,0,0,1,.427-.045c.387.039.573.329.693.683q.372,1.1.74,2.2c.106.314.213.628.332.982l3.252-6.484a9.056,9.056,0,0,1-2.746-1.36,9.7,9.7,0,0,1-2.185-2.256l-3.623,7.05" transform="translate(-341.899 -807.407)" fill="#fff"/>
    <path id="Path_356" data-name="Path 356" d="M544.267,1256.207a.6.6,0,0,0,.2.654l3.077,2.464a1.528,1.528,0,0,0,1.713-.5l4.541-5.1s.2-1.191-1.058-.824l-3.923,4.574a.789.789,0,0,1-1.267.167s-2.644-1.9-2.536-1.843a.647.647,0,0,0-.748.406" transform="translate(-355.843 -818.4)" fill="#fff"/>
  </g>
</svg>
