<svg xmlns="http://www.w3.org/2000/svg" width="40" height="39.999" viewBox="0 0 40 39.999">
  <g id="Group_849" data-name="Group 849" transform="translate(-262.245 -422.034)">
    <path id="Path_339" data-name="Path 339" d="M800.592,1239.444a20,20,0,1,1-20-20,20,20,0,0,1,20,20" transform="translate(-498.347 -797.41)" fill="#5f79bb"/>
    <path id="Path_357" data-name="Path 357" d="M807.384,1252.6q0,5.126,0,10.252a2.313,2.313,0,0,1-1.185,2.159,1.839,1.839,0,0,1-.861.232l-.1,0q-6.537,0-13.074,0a2.115,2.115,0,0,1-2.063-1.664,2.774,2.774,0,0,1-.085-.68q-.007-10.314,0-20.628a2.209,2.209,0,0,1,2.121-2.336q6.562,0,13.124,0a2.208,2.208,0,0,1,2.126,2.358c0,1.5,0,2.993,0,4.49Zm-8.7-10.437q-2.908,0-5.818,0a1.091,1.091,0,0,0-1.076,1.186q0,2.038,0,4.076a1.486,1.486,0,0,0,.016.261,1.072,1.072,0,0,0,1.069.946h11.573a1.109,1.109,0,0,0,1.118-1.231q0-2,0-4.006a1.1,1.1,0,0,0-1.127-1.233h-5.756m6.894,16.948q0-1.278,0-2.555a1.091,1.091,0,0,0-1.068-1.181q-.585,0-1.171,0a1.09,1.09,0,0,0-1.072,1.176q0,2.534,0,5.069a1.092,1.092,0,0,0,1.087,1.2c.374,0,.747,0,1.121,0a1.1,1.1,0,0,0,1.1-1.212q0-1.25,0-2.5m-6.89-5.671h0c.21,0,.42.006.629,0a1.092,1.092,0,0,0,1.032-1.069,4.736,4.736,0,0,0,0-.621,1.086,1.086,0,0,0-1.02-1.066c-.428-.008-.855-.008-1.283,0a1.053,1.053,0,0,0-.989.956,3.569,3.569,0,0,0-.01.77,1.073,1.073,0,0,0,1.05,1.03c.2,0,.394,0,.591,0m0,1.936h0c-.214,0-.428-.005-.641,0a1.063,1.063,0,0,0-1,.966,4.846,4.846,0,0,0-.018.647,1.087,1.087,0,0,0,.969,1.13,13.511,13.511,0,0,0,1.383,0,1.044,1.044,0,0,0,.945-.959,4.717,4.717,0,0,0,.018-.647,1.1,1.1,0,0,0-1.032-1.138c-.21,0-.419,0-.629,0m5.234-4.7h0c-.21,0-.419,0-.629,0a1.094,1.094,0,0,0-1.03,1.152q0,.22,0,.441a1.094,1.094,0,0,0,1.023,1.16c.419.013.839.012,1.258,0a1.063,1.063,0,0,0,1.013-.948,4.427,4.427,0,0,0,.017-.661,1.094,1.094,0,0,0-1.035-1.147c-.205,0-.411,0-.616,0m-10.453,0h0c-.21,0-.419,0-.629,0a1.068,1.068,0,0,0-1.016.96,4.575,4.575,0,0,0-.015.634,1.094,1.094,0,0,0,1.022,1.162c.423.015.847.014,1.27,0a1.093,1.093,0,0,0,1.019-1.151c0-.161,0-.322,0-.483a1.093,1.093,0,0,0-1.022-1.12c-.209-.005-.419,0-.629,0m-.012,7.443v.007c.21,0,.42.005.63,0a1.093,1.093,0,0,0,1.032-1.139c0-.179.006-.359,0-.539a1.083,1.083,0,0,0-1-1.074q-.655-.014-1.31,0a1.036,1.036,0,0,0-.969.883,4.255,4.255,0,0,0-.03.756,1.085,1.085,0,0,0,.942,1.1c.234.02.47,0,.7,0m5.239,4.7v0c.218,0,.436.008.654,0a1.055,1.055,0,0,0,.978-.954,3.719,3.719,0,0,0,.013-.757,1.07,1.07,0,0,0-1.039-1.038c-.411,0-.822,0-1.233,0a1.06,1.06,0,0,0-1.018.969,4.678,4.678,0,0,0-.018.592,1.1,1.1,0,0,0,1.072,1.192c.2,0,.394,0,.592,0m-5.241,0c.222,0,.445.007.667,0a1.086,1.086,0,0,0,.995-1.091c.006-.2.008-.4,0-.594a1.08,1.08,0,0,0-.982-1.061q-.661-.017-1.323,0a1.087,1.087,0,0,0-1,1.112c0,.17,0,.341,0,.511a1.092,1.092,0,0,0,.992,1.124c.218.01.437,0,.655,0" transform="translate(-516.454 -810.799)" fill="#fff"/>
  </g>
</svg>
