<svg xmlns="http://www.w3.org/2000/svg" width="24.147" height="29.477" viewBox="0 0 24.147 29.477">
  <g id="Group_846" data-name="Group 846" transform="translate(-361.69 -427.668)">
    <path id="Path_358" data-name="Path 358" d="M1050.563,1261.98l1.33-.493.562,1.034c.118.217.247.429.35.653.065.142.161.126.268.1s.274.008.3-.2c.072-.565.17-1.127.245-1.691.021-.155.074-.206.232-.2.4.012.809,0,1.225,0l.242,1.551a1.709,1.709,0,0,1,.038.265c0,.176.081.246.252.276a.284.284,0,0,0,.369-.17c.271-.539.568-1.063.864-1.609.422.15.836.292,1.243.452.044.017.077.146.064.213-.1.526-.2,1.052-.323,1.572-.054.218-.006.336.2.41a1.354,1.354,0,0,1,.171.091l1.541-1.357,1.093.914-.454.745c-.182.3-.368.6-.54.9a.23.23,0,0,0,.014.205c.208.279.212.275.54.146l1.593-.621.714,1.223c-.125.1-.245.2-.366.3-.359.287-.714.579-1.081.855-.127.1-.166.179-.085.321a1.6,1.6,0,0,1,.1.25h2.051l.251,1.365-1.917.655a.261.261,0,0,0-.013.047c-.015.451-.015.451.411.592l1.515.5c-.084.473-.167.93-.251,1.4-.195,0-.385,0-.576,0-.425-.01-.851-.017-1.276-.037a.187.187,0,0,0-.218.156c-.107.319-.113.318.151.528l1.311,1.042-.721,1.238-1.862-.733a3.412,3.412,0,0,1-.229.267.178.178,0,0,0-.024.266c.291.457.573.92.857,1.382.036.058.067.118.108.189l-1.086.914c-.1-.088-.209-.173-.31-.262-.355-.313-.713-.624-1.062-.944a.2.2,0,0,0-.283-.021c-.3.179-.3.173-.229.513.1.477.2.954.3,1.43.028.128.01.2-.128.242-.389.132-.773.282-1.185.435l-.253-.468c-.208-.387-.42-.771-.622-1.161a.182.182,0,0,0-.231-.106c-.369.067-.368.063-.421.441-.067.482-.141.964-.205,1.447-.016.119-.061.164-.184.161q-.566-.014-1.133-.008c-.117,0-.149-.049-.164-.156-.077-.543-.164-1.085-.241-1.629-.017-.122-.051-.218-.194-.21s-.316-.156-.442.089c-.271.531-.568,1.048-.864,1.588l-1.335-.474c.084-.432.165-.854.247-1.276.022-.115.046-.229.069-.343.073-.367.052-.417-.3-.558a.255.255,0,0,0-.2.064c-.426.368-.845.743-1.267,1.116-.031.026-.063.051-.111.09l-1.081-.913c.11-.185.213-.361.319-.536.21-.346.418-.694.637-1.034.067-.105.071-.181-.021-.266a.626.626,0,0,1-.119-.141c-.066-.113-.143-.114-.256-.067-.489.2-.982.39-1.474.583-.075.03-.152.056-.244.09l-.712-1.232.237-.19c.371-.295.732-.6,1.116-.878a.328.328,0,0,0,.137-.469.266.266,0,0,0-.313-.2c-.555.026-1.112.031-1.668.042-.034,0-.068,0-.124-.007-.08-.452-.16-.9-.243-1.374.054-.022.107-.048.162-.067.512-.176,1.023-.358,1.54-.52.176-.055.253-.134.222-.318a1.685,1.685,0,0,1,0-.261l-1.918-.634c.074-.442.148-.866.216-1.291.02-.125.1-.125.193-.121.549.018,1.1.016,1.646.057.267.021.264-.161.342-.312s-.03-.221-.124-.3l-1.419-1.129.719-1.24c.5.2,1,.388,1.495.592.429.177.426.184.721-.21l-1.073-1.75,1.1-.922c.444.394.886.783,1.324,1.176a.375.375,0,0,0,.6-.024.235.235,0,0,0,.013-.169c-.109-.552-.224-1.1-.336-1.654-.014-.067-.021-.135-.033-.219m6.379,3.481c-1.39-.849-4.176-.835-5.127.02l1.749,3.036a2.179,2.179,0,0,1,1.477-.063.165.165,0,0,0,.229-.093c.109-.206.225-.408.342-.61.44-.759.881-1.518,1.33-2.29m-4.766,4.794a2.439,2.439,0,0,1,.7-1.3c.036-.036.025-.162-.009-.222-.417-.741-.842-1.477-1.266-2.214-.132-.23-.269-.459-.4-.688a5.489,5.489,0,0,0-2.405,4.429Zm4.458-.007h3.309a5.379,5.379,0,0,0-2.412-4.407l-1.729,3a2.273,2.273,0,0,1,.831,1.409m-5.286,4.89,1.616-2.8a2.321,2.321,0,0,1-.78-1.359H1048.8a5.633,5.633,0,0,0,2.552,4.158m4.449-2.741,1.552,2.667c.011.018.022.034.03.047,1.244-.594,2.73-3.033,2.528-4.141h-.716c-.789,0-1.577,0-2.366.005-.069,0-.187.054-.2.1a2.414,2.414,0,0,1-.829,1.319m.972,3.083c-.518-.9-1.018-1.762-1.523-2.626-.026-.045-.112-.1-.152-.086a2.439,2.439,0,0,1-1.525-.062l-1.609,2.778a5.664,5.664,0,0,0,4.81,0" transform="translate(-683.494 -822.446)" fill="#fff"/>
    <path id="Path_359" data-name="Path 359" d="M1080.746,1246.337l-.7-.6c.2-.324.381-.634.577-.936a.255.255,0,0,0-.018-.325q-.412-.664-.778-1.355c-.072-.136-.127-.209-.29-.2-.294.021-.59.013-.885.031-.165.01-.243-.037-.259-.212-.021-.225-.067-.449-.105-.693.351-.123.688-.25,1.031-.356.153-.048.189-.129.212-.282.074-.506.163-1.012.282-1.51a.261.261,0,0,0-.113-.328c-.288-.218-.567-.447-.873-.69l.469-.8c.341.134.677.257,1,.4a.3.3,0,0,0,.392-.078c.359-.336.741-.65,1.132-.948.138-.106.213-.179.161-.364a6.9,6.9,0,0,1-.188-.893.3.3,0,0,1,.137-.243c.689-.31.691-.306,1.041.371.276.534.276.518.861.483.443-.026.889,0,1.394,0l.6-1.1.867.312c-.074.384-.156.745-.205,1.111a.393.393,0,0,0,.128.292c.385.338.793.65,1.172.993a.271.271,0,0,0,.344.07c.332-.141.67-.265,1.027-.4l.458.8-.944.768c.09.658.167,1.266.262,1.871.01.066.109.144.183.171.346.129.7.242,1.058.365l-.151.891h-1.25l-.989,1.749.623,1.046-.7.59c-.286-.248-.552-.492-.836-.715a.358.358,0,0,0-.289-.034c-.5.169-1,.367-1.5.53-.146.047-.223.087-.24.252-.035.349-.1.7-.15,1.061-.272,0-.529.013-.782-.01-.065-.006-.155-.119-.171-.2-.061-.279-.1-.562-.137-.846a.256.256,0,0,0-.213-.248c-.513-.17-1.013-.376-1.523-.554a.344.344,0,0,0-.283.037c-.281.227-.545.474-.839.736m3.092-8.453a3.722,3.722,0,0,0-2.783,1.814l1.931,1.016c.317-.188.57-.331.815-.488a.271.271,0,0,0,.121-.187c-.02-.7-.052-1.4-.084-2.156m3.371,1.556a3.335,3.335,0,0,0-2.922-1.522c.036.7.07,1.4.112,2.1a.235.235,0,0,0,.112.165c.285.139.576.264.9.407l1.8-1.152m-4.425,1.676-1.917-.988a3.529,3.529,0,0,0,.244,3.2c.566-.362,1.112-.708,1.652-1.064a.272.272,0,0,0,.085-.206c-.01-.291-.037-.58-.063-.94m2.894-.153c0,.381,0,.688,0,.995a.244.244,0,0,0,.076.182c.573.309,1.151.609,1.725.91a3.394,3.394,0,0,0-.066-3.191l-1.739,1.1m-1.523,4.162c-.033-.666-.061-1.29-.1-1.914a.21.21,0,0,0-.1-.146c-.282-.145-.571-.278-.906-.438l-1.692,1.083a3.738,3.738,0,0,0,2.794,1.415m3.106-1.663c-.581-.308-1.134-.6-1.692-.89a.264.264,0,0,0-.221.022c-.268.169-.527.353-.834.562.032.593.066,1.252.1,1.937a3.6,3.6,0,0,0,2.644-1.632" transform="translate(-704.34 -808.035)" fill="#fff"/>
  </g>
</svg>
