<svg xmlns="http://www.w3.org/2000/svg" width="24" height="24" viewBox="0 0 24 24">
  <g id="Group_852" data-name="Group 852" transform="translate(-63.272 -592.713)">
    <rect id="Rectangle_371" data-name="Rectangle 371" width="24" height="24" transform="translate(63.272 592.713)" fill="none"/>
    <g id="Group_850" data-name="Group 850" transform="translate(0.305 -2.758)">
      <path id="Path_343" data-name="Path 343" d="M207.031,1728.453a6.951,6.951,0,0,0-6.943,6.943c0,3.6,5.686,9.822,6.334,10.52l.609.656.609-.656c.648-.7,6.334-6.921,6.334-10.52a6.951,6.951,0,0,0-6.943-6.943m0,15.655c-1.893-2.157-5.28-6.481-5.28-8.712a5.28,5.28,0,1,1,10.56,0c0,2.231-3.388,6.554-5.28,8.712" transform="translate(-132.064 -1130.042)"/>
      <path id="Path_344" data-name="Path 344" d="M213.991,1738.257a3.253,3.253,0,1,0,3.253,3.253,3.257,3.257,0,0,0-3.253-3.253m0,4.843a1.59,1.59,0,1,1,1.59-1.59,1.591,1.591,0,0,1-1.59,1.59" transform="translate(-139.024 -1136.448)"/>
    </g>
  </g>
</svg>
