<svg xmlns="http://www.w3.org/2000/svg" width="24" height="24" viewBox="0 0 24 24">
  <g id="Group_853" data-name="Group 853" transform="translate(-63.461 -541.786)">
    <rect id="Rectangle_372" data-name="Rectangle 372" width="24" height="24" transform="translate(63.461 541.786)" fill="none"/>
    <path id="Path_345" data-name="Path 345" d="M213.777,1598.426a7.133,7.133,0,0,0-14.2,0h-.031v1.328h.031a7.133,7.133,0,0,0,14.2,0h.031v-1.328Zm-1.335,0h-2.688a12.5,12.5,0,0,0-1-4.755,5.82,5.82,0,0,1,3.687,4.755m-5.766,6.468c-.562,0-1.623-1.808-1.75-5.14h3.5c-.126,3.332-1.188,5.14-1.75,5.14m-1.75-6.468c.126-3.332,1.188-5.14,1.75-5.14s1.623,1.808,1.75,5.14Zm-.329-4.755a12.5,12.5,0,0,0-1,4.755h-2.688a5.82,5.82,0,0,1,3.687-4.755m-3.687,6.083H203.6a12.5,12.5,0,0,0,1,4.755,5.82,5.82,0,0,1-3.687-4.755m7.845,4.755a12.5,12.5,0,0,0,1-4.755h2.688a5.82,5.82,0,0,1-3.687,4.755" transform="translate(-131.215 -1045.304)"/>
  </g>
</svg>
