<svg xmlns="http://www.w3.org/2000/svg" width="23.434" height="26.071" viewBox="0 0 23.434 26.071">
  <g id="Group_847" data-name="Group 847" transform="translate(-90.253 -429.313)">
    <path id="Path_347" data-name="Path 347" d="M282.457,1243.365l.125.038a2.513,2.513,0,0,1,1.724,1.91,2.629,2.629,0,0,1-.016,1.028c-.172.861-.338,1.724-.507,2.585q-.264,1.346-.527,2.691l-.443,2.256c-.007.034-.008.07-.012.1.037.036.08.023.118.023h2.012a2.736,2.736,0,0,1,2.677,2.142,2.5,2.5,0,0,1,.06.533c0,.843.01,1.686,0,2.529a2.71,2.71,0,0,1-2.123,2.6,2.967,2.967,0,0,1-.647.07h-2.012a.357.357,0,0,0-.152.015c0,.041-.006.081-.006.119,0,.179,0,.359,0,.538a2.5,2.5,0,0,1-1.885,2.411,3.105,3.105,0,0,1-.4.069.17.17,0,0,0-.133.076c-.081.113-.164.226-.253.334a3.381,3.381,0,0,1-.591.572,2.462,2.462,0,0,1-1.435.506,4.087,4.087,0,0,1-1.1-.13,10.468,10.468,0,0,1-1.3-.428c-.523-.2-1.042-.413-1.565-.615-.236-.092-.477-.172-.714-.258a.836.836,0,0,0-.293-.047q-2.283,0-4.567,0a2.944,2.944,0,0,1-.5-.03,2.488,2.488,0,0,1-1.762-1.186.385.385,0,0,0-.231-.182,2.5,2.5,0,0,1-1.725-1.984,2.6,2.6,0,0,1,.03-.936c.164-.826.324-1.654.487-2.48q.307-1.563.615-3.126.226-1.155.449-2.31a1.061,1.061,0,0,0,.017-.2q0-2.239,0-4.478,0-1.809,0-3.618a2.505,2.505,0,0,1,2.265-2.483.221.221,0,0,0,.176-.1,4.686,4.686,0,0,1,.6-.7,2.847,2.847,0,0,1,.895-.6,2.507,2.507,0,0,1,1.158-.17,5.323,5.323,0,0,1,1.357.322c.495.176.975.386,1.458.591s.975.41,1.473.588a.887.887,0,0,0,.3.052q2.3,0,4.594,0a2.646,2.646,0,0,1,.895.141,2.514,2.514,0,0,1,1.339,1.085l.07.115a.135.135,0,0,0,.013.014m-.736,18.515-.193,0h-8.6c-.068,0-.136,0-.2,0a2.859,2.859,0,0,1-.918-.167,2.714,2.714,0,0,1-1.794-2.55q0-1.217,0-2.434a3.01,3.01,0,0,1,.041-.469,2.711,2.711,0,0,1,1.771-2.095,2.89,2.89,0,0,1,.973-.16h8.7c.045,0,.09,0,.136,0,.026,0,.052-.005.087-.01,0-.064,0-.121,0-.179q0-4.6,0-9.2c0-.04,0-.08,0-.121a1.459,1.459,0,0,0-.518-1.113,1.532,1.532,0,0,0-1.048-.376H268.438a2.19,2.19,0,0,0-.257.017,1.514,1.514,0,0,0-1.282,1.19,2.065,2.065,0,0,0-.027.415v17.795c0,.049,0,.1,0,.148a1.508,1.508,0,0,0,1.181,1.444,2.126,2.126,0,0,0,.459.036h11.6c.054,0,.109,0,.163,0a2.045,2.045,0,0,0,.229-.026,1.506,1.506,0,0,0,1.223-1.477c0-.175,0-.35,0-.525v-.138M278.838,1255h-2.61q-1.74,0-3.48,0a1.688,1.688,0,0,0-1.251.529,1.649,1.649,0,0,0-.484,1.179c0,.825,0,1.65,0,2.474a1.841,1.841,0,0,0,.016.2,1.721,1.721,0,0,0,1.215,1.43,1.947,1.947,0,0,0,.563.076h12.152a1.763,1.763,0,0,0,.443-.065,1.718,1.718,0,0,0,1.265-1.645c0-.825,0-1.65,0-2.475a1.409,1.409,0,0,0-.02-.241,1.692,1.692,0,0,0-1.106-1.354,1.724,1.724,0,0,0-.652-.109q-3.025,0-6.049,0m-12.975,7.474v-4.426a.531.531,0,0,0-.049.156q-.157.8-.315,1.608c-.081.413-.173.824-.237,1.24a1.451,1.451,0,0,0,.529,1.38.561.561,0,0,0,.072.043m16.879-17.886c-.019.133-.02,4.271,0,4.417.017-.07.03-.117.039-.163q.171-.87.342-1.74c.07-.356.146-.711.2-1.068a1.459,1.459,0,0,0-.478-1.361c-.029-.028-.062-.05-.107-.086M269.6,1242c.125.019,2.64.029,3.01.014a.684.684,0,0,0,.072-.013c-.038-.02-.051-.028-.067-.035a8.191,8.191,0,0,0-.945-.332,2.976,2.976,0,0,0-.938-.116,1.85,1.85,0,0,0-1.1.439.367.367,0,0,0-.033.042m6.481,23.057c.026.021.032.029.04.031a6.482,6.482,0,0,0,1.182.342,2.539,2.539,0,0,0,.877.009,1.806,1.806,0,0,0,.763-.331c.015-.011.043-.022.026-.051-.124-.016-2.346-.024-2.82-.01-.016,0-.033,0-.069.01" transform="translate(-173.986 -811.136)" fill="#fff"/>
    <path id="Path_348" data-name="Path 348" d="M281.709,1253.765h-4.093c-.045,0-.09,0-.135,0a.453.453,0,0,1,0-.905c.037,0,.074,0,.111,0h8.236c.037,0,.074,0,.111,0a.453.453,0,0,1,0,.905c-.045,0-.09,0-.135,0h-4.093" transform="translate(-181.358 -818.542)" fill="#fff"/>
    <path id="Path_349" data-name="Path 349" d="M281.709,1268.6h-4.093c-.045,0-.09,0-.135,0a.453.453,0,0,1-.011-.9c.037,0,.074,0,.111,0h8.26a.779.779,0,0,1,.194.02.442.442,0,0,1,.329.484.45.45,0,0,1-.414.4c-.045,0-.09,0-.135,0h-4.105" transform="translate(-181.358 -827.924)" fill="#fff"/>
    <path id="Path_350" data-name="Path 350" d="M281.709,1260.281H285.8c.053,0,.107,0,.16,0a.45.45,0,0,1,.011.895,1.1,1.1,0,0,1-.135.006h-8.26a1.212,1.212,0,0,1-.123,0,.45.45,0,0,1,.013-.9c.053,0,.106,0,.16,0h4.081" transform="translate(-181.358 -823.237)" fill="#fff"/>
    <path id="Path_351" data-name="Path 351" d="M309.633,1283.24l.392.6.393.595c.128.194.257.387.38.577-.007.015-.007.019-.01.022a.016.016,0,0,1-.011,0l-1.082,0c-.028,0-.056,0-.091-.006l-.224-.365c-.075-.122-.149-.245-.225-.367s-.145-.246-.234-.37a2.9,2.9,0,0,0-.176.272c-.059.094-.116.189-.174.283l-.168.272-.169.274a3.906,3.906,0,0,1-.394.007c-.131,0-.262,0-.394,0s-.261,0-.39,0c-.012-.052.021-.077.04-.105q.474-.718.95-1.435l.176-.267a.363.363,0,0,0-.065-.118q-.468-.715-.936-1.43a.356.356,0,0,1-.065-.112.1.1,0,0,1,.009-.015.02.02,0,0,1,.011,0H308.3a.269.269,0,0,1,.079.109q.241.415.48.83c.02.035.042.069.062.1.044,0,.049-.031.061-.053q.244-.434.487-.869c.022-.039.045-.077.07-.121.383,0,.763,0,1.139,0,.024.041,0,.061-.017.084q-.192.3-.385.6l-.572.889-.075.121" transform="translate(-200.443 -836.587)" fill="#fff"/>
    <path id="Path_352" data-name="Path 352" d="M297.354,1281.557h1.162c.049.087,1.277,3.346,1.31,3.478a2.3,2.3,0,0,1-.364.01c-.127,0-.254,0-.381,0s-.244.005-.37-.006l-.169-.56a3.56,3.56,0,0,0-.407-.008c-.135,0-.27,0-.405,0h-.411c-.073.186-.11.379-.177.566-.026,0-.05.008-.074.009-.361.011-.9,0-1.009-.011a.207.207,0,0,1,.029-.115q.3-.8.6-1.61l.614-1.632c.014-.038.03-.075.049-.121m.574.934a.422.422,0,0,0-.026.053q-.17.557-.34,1.115a.183.183,0,0,0,0,.044,5.862,5.862,0,0,0,.739,0c-.016-.113-.177-.655-.338-1.139-.007-.022-.019-.042-.032-.071" transform="translate(-193.507 -836.595)" fill="#fff"/>
    <path id="Path_353" data-name="Path 353" d="M289.283,1282.42c0,.166,0,.338,0,.51s0,.344,0,.516v.529c0,.172,0,.344,0,.516s0,.343,0,.521a.291.291,0,0,1-.06.013h-.959a.292.292,0,0,1-.043-.007.391.391,0,0,1-.013-.067c0-.131,0-.262,0-.393v-2.133c-.04-.041-.083-.029-.122-.029h-.836a.28.28,0,0,1-.132-.014.144.144,0,0,1-.01-.037q0-.381,0-.762a.158.158,0,0,1,.011-.04.366.366,0,0,1,.057-.009c.323-.015,3.1,0,3.2.011a.449.449,0,0,1,.012.068,4.437,4.437,0,0,1-.018.78c-.042,0-.087,0-.131,0h-.824a.18.18,0,0,0-.127.023" transform="translate(-187.874 -836.576)" fill="#fff"/>
  </g>
</svg>
