<svg width="95" height="95" viewBox="0 0 95 95" fill="none" xmlns="http://www.w3.org/2000/svg">
<path d="M3.28867 91.7111C4.89519 93.3181 7.00027 94.1211 9.10591 94.1211C11.211 94.1211 13.3172 93.3176 14.9231 91.7111L47.4993 59.1355L80.0744 91.7111C81.6814 93.3181 83.7865 94.1211 85.8921 94.1211C87.9972 94.1211 90.1034 93.3176 91.7094 91.7111C94.9224 88.4986 94.9224 83.2891 91.7094 80.0761L59.1343 47.4999L91.711 14.9237C94.924 11.7113 94.924 6.50176 91.711 3.28873C88.4985 0.0757101 83.2896 0.0757101 80.076 3.28873L47.4998 35.8654L14.9237 3.28819C11.7101 0.0751619 6.5017 0.0751619 3.28867 3.28819C0.0756502 6.50066 0.0756502 11.7102 3.28867 14.9232L35.8648 47.5005L3.28867 80.0766C0.0756502 83.2891 0.0756502 88.4986 3.28867 91.7111Z" fill="#F1416C"/>
</svg>
