<svg width="20" height="20" viewBox="0 0 20 20" fill="none" xmlns="http://www.w3.org/2000/svg">
<path d="M19.3344 2.9069H17.7496H14.3755C14.3203 2.9069 14.2755 2.86213 14.2755 2.8069V0.0999999C14.2755 0.0447714 14.2308 0 14.1755 0H5.82499C5.76976 0 5.72499 0.0447715 5.72499 0.1V2.8069C5.72499 2.86213 5.68022 2.9069 5.62499 2.9069H2.25091H0.766016C0.710787 2.9069 0.666016 2.95167 0.666016 3.0069V4.54562C0.666016 4.60085 0.710787 4.64562 0.766016 4.64562H2.28951C2.34182 4.64562 2.38529 4.68593 2.38923 4.73809L3.53441 19.9075C3.53835 19.9597 3.58182 20 3.63413 20H16.3665C16.4188 20 16.4623 19.9597 16.4662 19.9075L17.6114 4.73809C17.6154 4.68593 17.6588 4.64562 17.7111 4.64562H19.2345C19.2897 4.64562 19.3345 4.60085 19.3345 4.54562V2.90702C19.3345 2.90696 19.3345 2.9069 19.3344 2.9069V2.9069ZM7.46371 1.83872C7.46371 1.78349 7.50848 1.73872 7.56371 1.73872H12.4368C12.492 1.73872 12.5368 1.78349 12.5368 1.83872V2.8069C12.5368 2.86213 12.492 2.9069 12.4368 2.9069H7.56371C7.50848 2.9069 7.46371 2.86213 7.46371 2.8069V1.83872ZM14.8539 18.1688C14.8499 18.221 14.8065 18.2613 14.7541 18.2613H5.2465C5.19419 18.2613 5.15072 18.221 5.14678 18.1688L4.13395 4.75315C4.12957 4.69512 4.17547 4.64562 4.23367 4.64562H5.72499H14.2755H15.7669C15.8251 4.64562 15.871 4.69512 15.8666 4.75315L14.8539 18.1688Z" fill="white"/>
<path d="M10.6957 14.5965V8.31023C10.6957 7.92613 10.3843 7.61475 10.0002 7.61475C9.61607 7.61475 9.30469 7.92613 9.30469 8.31023V14.5965C9.30469 14.9806 9.61607 15.292 10.0002 15.292C10.3843 15.292 10.6957 14.9806 10.6957 14.5965Z" fill="white"/>
<path d="M8.02965 14.5965V8.31023C8.02965 7.92613 7.71827 7.61475 7.33416 7.61475C6.95005 7.61475 6.63867 7.92613 6.63867 8.31023V14.5965C6.63867 14.9806 6.95005 15.292 7.33416 15.292C7.71827 15.292 8.02965 14.9806 8.02965 14.5965Z" fill="white"/>
<path d="M13.3617 14.5965V8.31023C13.3617 7.92613 13.0503 7.61475 12.6662 7.61475C12.2821 7.61475 11.9707 7.92613 11.9707 8.31023V14.5965C11.9707 14.9806 12.2821 15.292 12.6662 15.292C13.0503 15.292 13.3617 14.9806 13.3617 14.5965Z" fill="white"/>
</svg>
