<svg width="30" height="30" viewBox="0 0 15 15" fill="none" xmlns="http://www.w3.org/2000/svg">
<path d="M0 10.7397V13.3638C0 14.2645 0.72027 15 1.60911 15H13.3909C14.2767 15 15 14.2676 15 13.3638V10.7397C15 9.83896 14.2797 9.10345 13.3909 9.10345H10.142C9.81099 9.10345 9.53515 9.35901 9.50143 9.6956C9.39722 10.7428 8.53596 11.5313 7.5 11.5313C6.46404 11.5313 5.60278 10.7428 5.49857 9.6956C5.46485 9.35901 5.18901 9.10345 4.85799 9.10345H1.60911C0.723335 9.10345 0 9.83585 0 10.7397ZM7.5 12.2948C8.8915 12.2948 10.0531 11.257 10.237 9.86701H13.3909C13.8629 9.86701 14.2491 10.2566 14.2491 10.7397V13.3638C14.2491 13.8437 13.866 14.2364 13.3909 14.2364H1.60911C1.13711 14.2364 0.75092 13.8469 0.75092 13.3638V10.7397C0.75092 10.2597 1.13404 9.86701 1.60911 9.86701H4.76297C4.94687 11.257 6.1085 12.2948 7.5 12.2948Z" fill="#4B5220"/>
<path d="M7.50015 0C7.29173 0 7.12315 0.171411 7.12315 0.383336V6.92187L5.30562 5.07375C5.1585 4.92416 4.9225 4.92416 4.77538 5.07375C4.62826 5.22335 4.62826 5.46332 4.77538 5.61292L7.23349 8.1124C7.30705 8.1872 7.40207 8.22459 7.50015 8.22459C7.59823 8.22459 7.69324 8.1872 7.7668 8.1124L10.2249 5.61292C10.372 5.46332 10.372 5.22335 10.2249 5.07375C10.0778 4.92416 9.84179 4.92416 9.69467 5.07375L7.87714 6.92187V0.38022C7.87407 0.171411 7.70856 0 7.50015 0Z" fill="#4B5220"/>
</svg>
