<svg width="20" height="20" viewBox="0 0 24 20" fill="none" xmlns="http://www.w3.org/2000/svg">
<path d="M21.0701 0.75H2.93482C1.31595 0.75 0 2.06595 0 3.68482V16.0796C0 17.6985 1.31595 19.0144 2.93482 19.0144H21.0652C22.684 19.0144 24 17.6985 24 16.0796V3.68979C24.005 2.07092 22.689 0.75 21.0701 0.75ZM22.6642 16.0796C22.6642 16.9586 21.9491 17.6736 21.0701 17.6736H2.93482C2.05586 17.6736 1.34078 16.9586 1.34078 16.0796V3.68979C1.34078 2.81083 2.05586 2.09575 2.93482 2.09575H21.0652C21.9441 2.09575 22.6592 2.81083 22.6592 3.68979V16.0796H22.6642Z" fill="black"/>
<path d="M15.706 9.73856L22.6182 3.53646C22.9398 3.24391 22.969 2.74657 22.6766 2.41891C22.3843 2.09711 21.8872 2.06785 21.5597 2.3604L12.0277 10.9205L10.1681 9.25877C10.1623 9.25292 10.1564 9.24707 10.1564 9.24122C10.1155 9.20026 10.0745 9.16516 10.0278 9.13005L2.46064 2.35455C2.13316 2.062 1.63609 2.09126 1.3437 2.41891C1.05131 2.74657 1.08055 3.24391 1.40803 3.53646L8.40205 9.79122L1.43727 16.3151C1.12148 16.6135 1.10394 17.1109 1.40218 17.4327C1.56007 17.5965 1.77059 17.6843 1.98112 17.6843C2.1741 17.6843 2.36707 17.6141 2.51912 17.4736L9.58917 10.8561L11.5073 12.5705C11.6593 12.705 11.8464 12.7694 12.0336 12.7694C12.2207 12.7694 12.4137 12.6992 12.5599 12.5646L14.5306 10.7976L21.5597 17.4795C21.7118 17.6258 21.9106 17.696 22.1036 17.696C22.3141 17.696 22.5188 17.6141 22.6766 17.4502C22.9749 17.1343 22.9632 16.6311 22.6474 16.3327L15.706 9.73856Z" fill="black"/>
</svg>