<svg width="30" height="30" viewBox="0 0 30 30" fill="none" xmlns="http://www.w3.org/2000/svg">
<path d="M7.90672 15.978H11.1952V29.5161C11.1952 29.7834 11.4118 30 11.6791 30H17.2548C17.5221 30 17.7387 29.7834 17.7387 29.5161V16.0418H21.5191C21.7649 16.0418 21.9717 15.8573 21.9998 15.6132L22.5739 10.6291C22.5897 10.492 22.5462 10.3546 22.4545 10.2518C22.3627 10.1488 22.2312 10.0899 22.0933 10.0899H17.7389V6.96561C17.7389 6.02381 18.246 5.54623 19.2462 5.54623C19.3888 5.54623 22.0933 5.54623 22.0933 5.54623C22.3606 5.54623 22.5772 5.32955 22.5772 5.06235V0.487452C22.5772 0.220161 22.3606 0.00358065 22.0933 0.00358065H18.1696C18.1419 0.00222581 18.0805 0 17.9899 0C17.3091 0 14.9427 0.133645 13.0734 1.85332C11.0022 3.759 11.2901 6.04074 11.3589 6.43635V10.0898H7.90672C7.63943 10.0898 7.42285 10.3064 7.42285 10.5736V15.494C7.42285 15.7613 7.63943 15.978 7.90672 15.978Z" fill="black"/>
</svg>
