<svg width="32" height="28" viewBox="0 0 32 28" fill="none" xmlns="http://www.w3.org/2000/svg">
<path d="M29.4153 2.59947C27.7396 0.931758 25.5213 0.0202557 23.1537 0.0202557C20.7861 0.0202557 18.5609 0.93851 16.8853 2.60622L16.0102 3.47721L15.1215 2.59272C13.4458 0.925006 11.2139 0 8.84632 0C6.4855 0 4.26036 0.918254 2.59151 2.57921C0.915871 4.24693 -0.00674681 6.46154 3.7147e-05 8.81794C3.7147e-05 11.1743 0.929439 13.3822 2.60508 15.0499L15.3453 27.7299C15.5217 27.9055 15.7592 28 15.9898 28C16.2205 28 16.4579 27.9122 16.6343 27.7367L29.4017 15.0769C31.0773 13.4092 32 11.1946 32 8.8382C32.0067 6.48179 31.0909 4.26718 29.4153 2.59947ZM28.1128 13.7873L15.9898 25.8056L3.89403 13.7671C2.56437 12.4437 1.83171 10.6882 1.83171 8.81794C1.83171 6.94767 2.55759 5.19219 3.88724 3.87557C5.21012 2.55896 6.97394 1.82976 8.84632 1.82976C10.7255 1.82976 12.4961 2.55896 13.8257 3.88232L15.3589 5.40825C15.7185 5.7661 16.2951 5.7661 16.6547 5.40825L18.1743 3.89583C19.5039 2.57246 21.2745 1.84326 23.1469 1.84326C25.0193 1.84326 26.7831 2.57246 28.1128 3.88908C29.4424 5.21244 30.1683 6.96793 30.1683 8.8382C30.1751 10.7085 29.4424 12.464 28.1128 13.7873Z" fill="#fff"/>
</svg>
