<svg width="30" height="30" viewBox="0 0 30 30" fill="none" xmlns="http://www.w3.org/2000/svg">
<path d="M21.0628 0H8.93716C4.00919 0 0 4.00919 0 8.93716V21.0628C0 25.9908 4.00919 30 8.93716 30H21.0628C25.9908 30 30 25.9908 30 21.0628V8.93716C29.9999 4.00919 25.9908 0 21.0628 0ZM26.982 21.0628C26.982 24.3319 24.3319 26.982 21.0628 26.982H8.93716C5.66813 26.982 3.018 24.3319 3.018 21.0628V8.93716C3.018 5.66807 5.66813 3.018 8.93716 3.018H21.0628C24.3319 3.018 26.982 5.66807 26.982 8.93716V21.0628Z" fill="black"/>
<path d="M15.0003 7.24097C10.7219 7.24097 7.24121 10.7217 7.24121 15C7.24121 19.2783 10.7219 22.759 15.0003 22.759C19.2786 22.759 22.7593 19.2783 22.7593 15C22.7593 10.7216 19.2786 7.24097 15.0003 7.24097ZM15.0003 19.7411C12.3818 19.7411 10.2592 17.6185 10.2592 15C10.2592 12.3816 12.3819 10.259 15.0003 10.259C17.6187 10.259 19.7413 12.3816 19.7413 15C19.7413 17.6184 17.6187 19.7411 15.0003 19.7411Z" fill="black"/>
<path d="M22.7742 9.15842C23.801 9.15842 24.6334 8.32604 24.6334 7.29924C24.6334 6.27245 23.801 5.44006 22.7742 5.44006C21.7474 5.44006 20.915 6.27245 20.915 7.29924C20.915 8.32604 21.7474 9.15842 22.7742 9.15842Z" fill="black"/>
</svg>
