<svg width="20" height="18" viewBox="0 0 14 18" fill="none" xmlns="http://www.w3.org/2000/svg">
<path d="M6.99983 0C10.7542 0 13.8086 3.05443 13.8086 6.80876C13.8086 8.35735 12.7412 10.6219 10.636 13.5395C9.11407 15.6488 7.61668 17.3154 7.55371 17.3853L6.99978 18L6.44586 17.3853C6.38288 17.3154 4.88549 15.6488 3.36355 13.5395C1.25841 10.6219 0.190972 8.3574 0.190972 6.80876C0.191022 3.05443 3.24545 0 6.99983 0ZM6.99983 15.7547C8.87538 13.5621 12.3174 9.07063 12.3174 6.80876C12.3174 3.87666 9.93198 1.49118 6.99983 1.49118C4.06768 1.49118 1.68225 3.87666 1.68225 6.80876C1.6822 9.07063 5.12428 13.5621 6.99983 15.7547Z" fill="black"/>
<path d="M6.99954 9.27899C5.6353 9.27899 4.52936 8.17305 4.52936 6.80881C4.52936 5.44456 5.6353 4.33862 6.99954 4.33862C8.36379 4.33862 9.46973 5.44456 9.46973 6.80881C9.46973 8.17305 8.36379 9.27899 6.99954 9.27899Z" fill="black"/>
</svg>
