<svg width="18" height="18" viewBox="0 0 18 18" fill="none" xmlns="http://www.w3.org/2000/svg">
<path d="M16.3613 7.35691H10.6378V1.63892C10.6378 0.733828 9.9074 0 9.00218 0C8.09697 0 7.36701 0.733828 7.36701 1.63932V7.36088H1.64073C0.735512 7.36088 -0.000395858 8.09471 6.4376e-07 9.0002C-0.000395858 9.45255 0.182392 9.86723 0.478579 10.1634C0.775162 10.4603 1.18435 10.6478 1.63636 10.6478H7.36701V16.3615C7.36701 16.8142 7.54662 17.2241 7.84321 17.5199C8.13979 17.8164 8.54779 18 9.00059 18C9.90541 18 10.6378 17.2662 10.6378 16.3615V10.6474H16.3613C17.2665 10.6474 18.0004 9.90727 18 9.00218C17.9996 8.09748 17.2657 7.35691 16.3613 7.35691Z" fill="white"/>
</svg>
