<svg width="50" height="50" viewBox="0 0 60 60"  xmlns="http://www.w3.org/2000/svg">
<path d="M44.261 57.673C44.454 57.886 44.724 58 45 58C45.121 58 45.243 57.979 45.361 57.933C45.746 57.784 46 57.413 46 57V48V47L44.261 57.673ZM44.261 57.673L34.558 47L44.261 57.673ZM35.2979 46.3273L35.0004 46H34.558H6C3.30028 46 1 43.6997 1 41V8C1 5.30028 3.30028 3 6 3H54C56.6997 3 59 5.30028 59 8V41C59 43.6997 56.6997 46 54 46H46H45V47V56.9993L35.2979 46.3273Z" fill="white" stroke="black" stroke-width="2"/>
<path d="M28.4662 18.8003C28.9502 18.3284 29.1212 17.6359 28.9122 16.993C28.7033 16.3501 28.158 15.8904 27.4891 15.7931L22.3849 15.0514C22.3755 15.0501 22.3675 15.0442 22.3634 15.0358L20.0809 10.4107C19.7818 9.80453 19.176 9.42786 18.4999 9.42786C17.8238 9.42786 17.2181 9.80453 16.919 10.4107L14.6364 15.0358C14.6322 15.0442 14.6242 15.05 14.6149 15.0514L9.51078 15.7931C8.84184 15.8904 8.29653 16.3501 8.08761 16.993C7.8787 17.6359 8.04965 18.3284 8.53367 18.8003L12.227 22.4004C12.2338 22.407 12.2369 22.4164 12.2352 22.4257L11.3633 27.5093C11.249 28.1755 11.5179 28.8363 12.0647 29.2336C12.6117 29.631 13.3231 29.6823 13.9214 29.3678L18.4867 26.9677C18.495 26.9633 18.505 26.9634 18.5133 26.9677L23.0785 29.3678C23.3388 29.5046 23.6203 29.5722 23.9006 29.5722C24.2645 29.5722 24.6262 29.4581 24.9351 29.2336C25.482 28.8363 25.7507 28.1755 25.6365 27.5092L24.7646 22.4257C24.763 22.4164 24.7662 22.407 24.7728 22.4004L28.4662 18.8003ZM23.055 22.7188L23.9269 27.8023C23.9292 27.8158 23.9299 27.8198 23.9155 27.8302C23.9011 27.8406 23.8975 27.8387 23.8854 27.8324L19.3201 25.4322C18.8065 25.1623 18.1932 25.1623 17.6794 25.4322L13.1141 27.8323C13.1021 27.8385 13.0984 27.8405 13.0841 27.8301C13.0697 27.8197 13.0704 27.8157 13.0727 27.8023L13.9446 22.7187C14.0427 22.1467 13.8531 21.5635 13.4375 21.1582L9.74436 17.5582C9.73463 17.5486 9.73164 17.5458 9.73713 17.529C9.74263 17.5121 9.74667 17.5115 9.76016 17.5095L14.8642 16.7678C15.4387 16.6844 15.9349 16.3239 16.1917 15.8034L18.4743 11.1783C18.4804 11.1661 18.4821 11.1624 18.4999 11.1624C18.5176 11.1624 18.5194 11.1661 18.5254 11.1783L20.808 15.8034C21.0649 16.3239 21.5611 16.6845 22.1355 16.7678L27.2396 17.5095C27.2531 17.5115 27.2571 17.5121 27.2626 17.529C27.2681 17.5458 27.2651 17.5487 27.2554 17.5582L23.562 21.1583C23.1465 21.5635 22.957 22.1468 23.055 22.7188Z" fill="black"/>
<path d="M50.4662 25.8003C50.9502 25.3284 51.1212 24.6359 50.9122 23.993C50.7033 23.3501 50.158 22.8904 49.4891 22.7931L44.3849 22.0514C44.3755 22.0501 44.3675 22.0442 44.3634 22.0358L42.0809 17.4107C41.7818 16.8045 41.176 16.4279 40.4999 16.4279C39.8238 16.4279 39.2181 16.8045 38.919 17.4107L36.6364 22.0358C36.6322 22.0442 36.6242 22.05 36.6149 22.0514L31.5108 22.7931C30.8418 22.8904 30.2965 23.3501 30.0876 23.993C29.8787 24.6359 30.0496 25.3284 30.5337 25.8003L34.227 29.4004C34.2338 29.407 34.2369 29.4164 34.2352 29.4257L33.3633 34.5093C33.249 35.1755 33.5179 35.8363 34.0647 36.2336C34.6117 36.631 35.3231 36.6823 35.9214 36.3678L40.4867 33.9677C40.495 33.9633 40.505 33.9634 40.5133 33.9677L45.0785 36.3678C45.3388 36.5046 45.6203 36.5722 45.9006 36.5722C46.2645 36.5722 46.6262 36.4581 46.9351 36.2336C47.482 35.8363 47.7507 35.1755 47.6365 34.5092L46.7646 29.4257C46.763 29.4164 46.7662 29.407 46.7728 29.4004L50.4662 25.8003ZM45.055 29.7188L45.9269 34.8023C45.9292 34.8158 45.9299 34.8198 45.9155 34.8302C45.9011 34.8406 45.8975 34.8387 45.8854 34.8324L41.3201 32.4322C40.8065 32.1623 40.1932 32.1623 39.6794 32.4322L35.1141 34.8323C35.1021 34.8385 35.0984 34.8405 35.0841 34.8301C35.0697 34.8197 35.0704 34.8157 35.0727 34.8023L35.9446 29.7187C36.0427 29.1467 35.8531 28.5635 35.4375 28.1582L31.7444 24.5582C31.7346 24.5486 31.7316 24.5458 31.7371 24.529C31.7426 24.5121 31.7467 24.5115 31.7602 24.5095L36.8642 23.7678C37.4387 23.6844 37.9349 23.3239 38.1917 22.8034L40.4743 18.1783C40.4804 18.1661 40.4821 18.1624 40.4999 18.1624C40.5176 18.1624 40.5194 18.1661 40.5254 18.1783L42.808 22.8034C43.0649 23.3239 43.5611 23.6845 44.1355 23.7678L49.2396 24.5095C49.2531 24.5115 49.2571 24.5121 49.2626 24.529C49.2681 24.5458 49.2651 24.5487 49.2554 24.5582L45.562 28.1583C45.1465 28.5635 44.957 29.1468 45.055 29.7188Z" fill="black"/>
</svg>
