<svg width="30" height="30" viewBox="0 0 30 37" xmlns="http://www.w3.org/2000/svg">
<path d="M23.8789 25.375C22.7345 25.375 21.6685 25.7084 20.7696 26.2817L11.6978 19.9349C11.8434 19.4254 11.923 18.8881 11.923 18.3318C11.923 17.7754 11.8434 17.2381 11.6978 16.7287L20.5247 10.5532C21.4718 11.2273 22.6286 11.625 23.8789 11.625C27.0823 11.625 29.6793 9.02265 29.6793 5.81255C29.6793 2.60245 27.0824 0 23.8789 0C20.6755 0 18.0786 2.60237 18.0786 5.81247C18.0786 6.23642 18.1251 6.64933 18.2111 7.04746L9.15999 13.3798C8.2765 12.8345 7.23649 12.5193 6.12265 12.5193C2.91923 12.5193 0.322266 15.1217 0.322266 18.3318C0.322266 21.5419 2.91914 24.1443 6.12265 24.1443C7.23641 24.1443 8.2765 23.8291 9.15999 23.2838L18.281 29.665C18.1498 30.1504 18.0786 30.6606 18.0786 31.1875C18.0786 34.3976 20.6755 37 23.8789 37C27.0824 37 29.6793 34.3976 29.6793 31.1875C29.6793 27.9774 27.0824 25.375 23.8789 25.375Z"/>
</svg>
