<svg width="30" height="30" viewBox="0 0 80 80" fill="none" xmlns="http://www.w3.org/2000/svg">
<path d="M61.9312 49.812C57.2664 49.812 53.0903 51.94 50.3194 55.2757L32.2946 45.0419C32.8551 43.4645 33.1632 41.7685 33.1632 40.0011C33.1632 38.2339 32.8551 36.5379 32.2946 34.9606L50.318 24.7243C53.0885 28.0611 57.2654 30.1898 61.9305 30.1898C70.2518 30.1898 77.0217 23.4174 77.0217 15.0926C77.0224 6.7703 70.2525 0 61.9312 0C53.6089 0 46.8383 6.7703 46.8383 15.0922C46.8383 16.8597 47.146 18.5561 47.7069 20.1338L29.6825 30.3704C26.9119 27.0354 22.7361 24.9081 18.0724 24.9081C9.749 24.9081 2.97729 31.6784 2.97729 40.0007C2.97729 48.3227 9.749 55.093 18.0724 55.093C22.7361 55.093 26.9115 52.9656 29.6821 49.631L47.7069 59.8652C47.146 61.4429 46.8379 63.1396 46.8379 64.9074C46.8379 73.2294 53.6086 79.9996 61.9309 79.9996C70.2521 79.9996 77.0221 73.229 77.0221 64.9074C77.0224 56.584 70.2525 49.812 61.9312 49.812ZM61.9312 5.28132C67.3404 5.28132 71.7411 9.68242 71.7411 15.0922C71.7411 20.5049 67.3404 24.9081 61.9312 24.9081C56.5211 24.9081 52.1196 20.5049 52.1196 15.0922C52.1196 9.68242 56.5211 5.28132 61.9312 5.28132ZM18.0727 49.812C12.6615 49.812 8.25896 45.4105 8.25896 40.0011C8.25896 34.5909 12.6615 30.1898 18.0727 30.1898C23.4818 30.1898 27.8822 34.5909 27.8822 40.0011C27.8822 45.4105 23.4815 49.812 18.0727 49.812ZM61.9312 74.7187C56.5211 74.7187 52.1196 70.3172 52.1196 64.9078C52.1196 59.4962 56.5211 55.0933 61.9312 55.0933C67.3404 55.0933 71.7411 59.4962 71.7411 64.9078C71.7411 70.3172 67.3404 74.7187 61.9312 74.7187Z"/>
</svg>
