<svg width="60" height="50" viewBox="0 0 106 87" fill="none" xmlns="http://www.w3.org/2000/svg">
<path d="M103.973 72.9022H65.2031C64.7362 72.9022 64.2868 73.0872 63.9572 73.4184L60.9491 76.4265H44.7857L41.7777 73.4184C41.4481 73.0872 40.9987 72.9022 40.5318 72.9022H1.76218C0.789501 72.9022 0 73.6917 0 74.6643V80.9731C0 84.2967 2.70512 87 6.02875 87H99.7064C103.03 87 105.735 84.2949 105.735 80.9713V74.6641C105.735 73.6917 104.945 72.9022 103.973 72.9022Z" fill="#322E78"/>
<path d="M52.8674 35.6271L59.2115 32.0022L63.4409 29.5862V17.5324L52.8674 11.4913L42.2939 17.5322V29.586L46.5233 32.002L52.8674 35.6271ZM45.8185 27.0837V20.6004C45.8185 19.9026 46.2309 19.2698 46.8705 18.9879L52.1572 16.6599C53.0471 16.2688 54.0888 16.6704 54.4799 17.5621C54.8729 18.4539 54.4694 19.4918 53.5776 19.8848L49.3429 21.7511V27.0837C49.3429 28.0563 48.5534 28.8458 47.5807 28.8458C46.608 28.8458 45.8185 28.0565 45.8185 27.0837Z" fill="#322E78"/>
<path d="M54.6299 38.6794V50.7331L65.2034 56.7741L75.7769 50.7331V38.6794L65.2034 32.6384L58.8593 36.2634L54.6299 38.6794ZM64.4932 37.807C65.3814 37.4124 66.4247 37.8194 66.8158 38.7093C67.2088 39.601 66.8053 40.639 65.9136 41.032L61.6788 42.8982V48.2308C61.6788 49.2035 60.8893 49.993 59.9166 49.993C58.9439 49.993 58.1544 49.2035 58.1544 48.2308V41.7475C58.1544 41.0497 58.5669 40.417 59.2064 40.1351L64.4932 37.807Z" fill="#322E78"/>
<path d="M51.105 50.7331V38.6794L46.8756 36.2634L40.5315 32.6384L29.958 38.6794V50.7331L40.5315 56.7741L51.105 50.7331ZM37.0069 48.2306C37.0069 49.2033 36.2174 49.9928 35.2448 49.9928C34.2721 49.9928 33.4826 49.2033 33.4826 48.2306V41.7473C33.4826 41.0495 33.895 40.4168 34.5346 40.1349L39.8213 37.8068C40.713 37.4122 41.7528 37.8192 42.144 38.7091C42.5369 39.6008 42.1334 40.6388 41.2417 41.0318L37.0069 42.898V48.2306Z" fill="#322E78"/>
<path d="M7.04929 69.3776H39.8025L42.8106 72.3859C43.1402 72.7171 43.5896 72.9022 44.0565 72.9022H61.6789C62.1458 72.9022 62.5952 72.7171 62.9248 72.3859L65.9329 69.3778H98.6861C99.6588 69.3778 100.448 68.5883 100.448 67.6156V6.29619C100.448 3.18238 98.0674 0.649902 95.1405 0.649902H10.5949C7.6678 0.649902 5.28711 3.18217 5.28711 6.29619V67.6154C5.28711 68.5881 6.07661 69.3776 7.04929 69.3776ZM38.7698 16.5101C38.7698 15.8776 39.108 15.2942 39.658 14.9805L51.9936 7.93157C52.5364 7.62138 53.1991 7.62138 53.7418 7.93157L66.0774 14.9805C66.6272 15.2942 66.9657 15.8774 66.9657 16.5101V29.586L78.4133 36.1275C78.9631 36.4412 79.3015 37.0246 79.3015 37.6571V51.7552C79.3015 52.3877 78.9633 52.9711 78.4133 53.2848L66.0777 60.3337C65.8063 60.4888 65.505 60.5663 65.2035 60.5663C64.902 60.5663 64.6009 60.4888 64.3295 60.3337L52.8678 53.7852L41.4061 60.3337C41.1347 60.4888 40.8334 60.5663 40.5319 60.5663C40.2306 60.5663 39.9293 60.4888 39.6578 60.3337L27.3221 53.2848C26.7724 52.9711 26.4339 52.3877 26.4339 51.7552V37.6571C26.4339 37.0246 26.7722 36.4412 27.3221 36.1275L38.7698 29.586V16.5101V16.5101ZM14.0984 7.69903H28.1965C29.1692 7.69903 29.9587 8.48853 29.9587 9.46121C29.9587 10.4339 29.1692 11.2234 28.1965 11.2234H14.0984C13.1257 11.2234 12.3362 10.4339 12.3362 9.46121C12.3362 8.48853 13.1255 7.69903 14.0984 7.69903ZM14.0984 14.748H22.9097C23.8824 14.748 24.6719 15.5375 24.6719 16.5101C24.6719 17.4828 23.8824 18.2723 22.9097 18.2723H14.0984C13.1257 18.2723 12.3362 17.4828 12.3362 16.5101C12.3362 15.5375 13.1255 14.748 14.0984 14.748Z" fill="#322E78"/>
</svg>
