<svg width="30" height="30" viewBox="0 0 30 30" fill="none" xmlns="http://www.w3.org/2000/svg">
<g clip-path="url(#clip0_363_424)">
<mask id="path-1-inside-1_363_424" fill="white">
<path d="M29.7313 5.47236C29.5139 5.32529 29.2269 5.33274 29.0179 5.49153C28.8063 5.65178 28.4628 5.78959 28.0724 5.90262C29.1414 4.65451 29.1635 3.82014 29.1509 3.62373C29.1366 3.40102 29.0021 3.20373 28.8003 3.10863C28.5976 3.01418 28.3602 3.03656 28.1799 3.16752C26.8971 4.09963 25.62 4.30266 24.8523 4.32533C23.6607 3.19201 22.1158 2.5708 20.473 2.5708C16.9415 2.5708 14.0683 5.48197 14.0683 9.06012C14.0683 9.34981 14.0875 9.63891 14.1251 9.92561C8.09627 9.82301 3.20304 4.05211 3.15254 3.99141C3.02457 3.83807 2.83027 3.75463 2.62935 3.77379C2.43025 3.79113 2.25177 3.90475 2.15193 4.07783C0.452417 7.02639 1.49064 9.62813 2.53308 11.1868C2.42545 11.1229 2.33726 11.064 2.27691 11.0194C2.09275 10.8825 1.84701 10.8598 1.64105 10.9611C1.43474 11.0628 1.30291 11.2709 1.29904 11.5007C1.25298 14.3282 2.57427 15.9826 3.85806 16.9201C3.71908 16.9392 3.58871 17.0056 3.49091 17.112C3.34384 17.2716 3.29211 17.4973 3.3555 17.7051C4.24578 20.6193 6.40478 21.6515 7.83049 22.0168C4.9465 24.1929 0.766597 23.4826 0.720249 23.4739C0.443101 23.4252 0.165718 23.5713 0.0518114 23.8303C-0.0618019 24.0888 0.015952 24.392 0.240776 24.5633C3.31484 26.9094 6.99137 27.4293 9.64684 27.4293C11.655 27.4293 13.0788 27.1318 13.2158 27.1022C26.6113 23.9276 27.0359 11.6883 27.0084 9.60258C29.5214 7.26299 29.9166 6.36498 29.9782 6.14162C30.0475 5.88885 29.9483 5.61979 29.7313 5.47236ZM25.9736 8.89178C25.8371 9.01735 25.765 9.19852 25.7776 9.38385C25.7797 9.41672 25.9848 12.7342 24.5065 16.4307C22.5313 21.3696 18.6375 24.5591 12.9455 25.908C12.8845 25.9208 7.61902 27.0114 2.99673 24.8129C4.97281 24.7301 7.70937 24.1735 9.63494 22.0118C9.79578 21.8315 9.83404 21.5528 9.73508 21.3325C9.63611 21.1128 9.41639 20.9511 9.17545 20.9511C9.17428 20.9511 9.17305 20.9511 9.17129 20.9511C9.00957 20.9511 6.22185 20.9302 4.88615 18.2378C5.42633 18.2612 6.07209 18.2293 6.59252 17.9896C6.83228 17.879 6.97396 17.6322 6.94437 17.37C6.91478 17.1078 6.72049 16.8966 6.46215 16.8422C6.31238 16.8105 3.08427 16.0901 2.58658 12.5828C3.08252 12.7894 3.70074 12.9495 4.31568 12.8574C4.55187 12.8221 4.74529 12.6523 4.8122 12.423C4.87888 12.194 4.80593 11.9466 4.62564 11.7897C4.48601 11.6684 1.44242 8.96116 2.83613 5.46311C4.48601 7.18178 9.19121 11.4612 14.8967 11.1342C15.0787 11.1237 15.2468 11.0322 15.3549 10.8851C15.4629 10.7381 15.4997 10.5506 15.4551 10.3737C15.3474 9.94506 15.2928 9.50321 15.2928 9.06018C15.2928 6.15709 17.6165 3.79535 20.473 3.79535C21.87 3.79535 23.1802 4.35287 24.1626 5.36543C24.2753 5.48174 24.4296 5.54836 24.5916 5.55141C25.1575 5.5568 26.0894 5.4958 27.1423 5.10416C26.8283 5.47184 26.3892 5.90233 25.7752 6.38455C25.563 6.55137 25.4849 6.83778 25.5832 7.0892C25.6819 7.34121 25.9381 7.50053 26.2023 7.47633C26.3261 7.46649 26.9261 7.41358 27.6292 7.27096C27.2263 7.69928 26.6891 8.23383 25.9736 8.89178Z"/>
</mask>
<path d="M29.7313 5.47236C29.5139 5.32529 29.2269 5.33274 29.0179 5.49153C28.8063 5.65178 28.4628 5.78959 28.0724 5.90262C29.1414 4.65451 29.1635 3.82014 29.1509 3.62373C29.1366 3.40102 29.0021 3.20373 28.8003 3.10863C28.5976 3.01418 28.3602 3.03656 28.1799 3.16752C26.8971 4.09963 25.62 4.30266 24.8523 4.32533C23.6607 3.19201 22.1158 2.5708 20.473 2.5708C16.9415 2.5708 14.0683 5.48197 14.0683 9.06012C14.0683 9.34981 14.0875 9.63891 14.1251 9.92561C8.09627 9.82301 3.20304 4.05211 3.15254 3.99141C3.02457 3.83807 2.83027 3.75463 2.62935 3.77379C2.43025 3.79113 2.25177 3.90475 2.15193 4.07783C0.452417 7.02639 1.49064 9.62813 2.53308 11.1868C2.42545 11.1229 2.33726 11.064 2.27691 11.0194C2.09275 10.8825 1.84701 10.8598 1.64105 10.9611C1.43474 11.0628 1.30291 11.2709 1.29904 11.5007C1.25298 14.3282 2.57427 15.9826 3.85806 16.9201C3.71908 16.9392 3.58871 17.0056 3.49091 17.112C3.34384 17.2716 3.29211 17.4973 3.3555 17.7051C4.24578 20.6193 6.40478 21.6515 7.83049 22.0168C4.9465 24.1929 0.766597 23.4826 0.720249 23.4739C0.443101 23.4252 0.165718 23.5713 0.0518114 23.8303C-0.0618019 24.0888 0.015952 24.392 0.240776 24.5633C3.31484 26.9094 6.99137 27.4293 9.64684 27.4293C11.655 27.4293 13.0788 27.1318 13.2158 27.1022C26.6113 23.9276 27.0359 11.6883 27.0084 9.60258C29.5214 7.26299 29.9166 6.36498 29.9782 6.14162C30.0475 5.88885 29.9483 5.61979 29.7313 5.47236ZM25.9736 8.89178C25.8371 9.01735 25.765 9.19852 25.7776 9.38385C25.7797 9.41672 25.9848 12.7342 24.5065 16.4307C22.5313 21.3696 18.6375 24.5591 12.9455 25.908C12.8845 25.9208 7.61902 27.0114 2.99673 24.8129C4.97281 24.7301 7.70937 24.1735 9.63494 22.0118C9.79578 21.8315 9.83404 21.5528 9.73508 21.3325C9.63611 21.1128 9.41639 20.9511 9.17545 20.9511C9.17428 20.9511 9.17305 20.9511 9.17129 20.9511C9.00957 20.9511 6.22185 20.9302 4.88615 18.2378C5.42633 18.2612 6.07209 18.2293 6.59252 17.9896C6.83228 17.879 6.97396 17.6322 6.94437 17.37C6.91478 17.1078 6.72049 16.8966 6.46215 16.8422C6.31238 16.8105 3.08427 16.0901 2.58658 12.5828C3.08252 12.7894 3.70074 12.9495 4.31568 12.8574C4.55187 12.8221 4.74529 12.6523 4.8122 12.423C4.87888 12.194 4.80593 11.9466 4.62564 11.7897C4.48601 11.6684 1.44242 8.96116 2.83613 5.46311C4.48601 7.18178 9.19121 11.4612 14.8967 11.1342C15.0787 11.1237 15.2468 11.0322 15.3549 10.8851C15.4629 10.7381 15.4997 10.5506 15.4551 10.3737C15.3474 9.94506 15.2928 9.50321 15.2928 9.06018C15.2928 6.15709 17.6165 3.79535 20.473 3.79535C21.87 3.79535 23.1802 4.35287 24.1626 5.36543C24.2753 5.48174 24.4296 5.54836 24.5916 5.55141C25.1575 5.5568 26.0894 5.4958 27.1423 5.10416C26.8283 5.47184 26.3892 5.90233 25.7752 6.38455C25.563 6.55137 25.4849 6.83778 25.5832 7.0892C25.6819 7.34121 25.9381 7.50053 26.2023 7.47633C26.3261 7.46649 26.9261 7.41358 27.6292 7.27096C27.2263 7.69928 26.6891 8.23383 25.9736 8.89178Z" fill="black"/>
<path d="M29.7313 5.47236L74.6828 -60.7043L74.6254 -60.7434L74.5679 -60.7823L29.7313 5.47236ZM29.0179 5.49153L77.3113 69.2705L77.3628 69.2315L77.4142 69.1924L29.0179 5.49153ZM28.0724 5.90262L-32.6865 -46.1393L-206.842 157.186L50.3164 82.7479L28.0724 5.90262ZM29.1509 3.62373L108.987 -1.49701L108.986 -1.50957L108.985 -1.52213L29.1509 3.62373ZM28.8003 3.10863L62.9035 -69.2583L62.7485 -69.3313L62.5932 -69.4037L28.8003 3.10863ZM28.1799 3.16752L-18.835 -61.5596L-18.8464 -61.5513L28.1799 3.16752ZM24.8523 4.32533L-30.2804 62.2942L-6.11735 85.275L27.2143 84.2905L24.8523 4.32533ZM14.1251 9.92561L12.7639 89.914L105.513 91.4924L93.4452 -0.481816L14.1251 9.92561ZM3.15254 3.99141L64.6491 -47.1766L64.6114 -47.2219L64.5737 -47.2672L3.15254 3.99141ZM2.62935 3.77379L9.57187 83.472L9.89803 83.4436L10.2239 83.4125L2.62935 3.77379ZM2.15193 4.07783L-67.1453 -35.8959L-67.1521 -35.884L-67.159 -35.8721L2.15193 4.07783ZM2.53308 11.1868L-38.3455 79.9542L69.032 -33.2866L2.53308 11.1868ZM2.27691 11.0194L-45.458 75.2174L-45.34 75.3052L-45.2216 75.3925L2.27691 11.0194ZM1.64105 10.9611L-33.6861 -60.8162L-33.7029 -60.808L-33.7197 -60.7997L1.64105 10.9611ZM1.29904 11.5007L-78.6896 10.155L-78.69 10.1764L-78.6904 10.1978L1.29904 11.5007ZM3.85806 16.9201L14.7834 96.1705L210.992 69.1215L51.0379 -47.6869L3.85806 16.9201ZM3.49091 17.112L62.3232 71.3224L62.3656 71.2763L62.408 71.2302L3.49091 17.112ZM3.3555 17.7051L-73.1617 41.053L-73.1577 41.0658L-73.1538 41.0786L3.3555 17.7051ZM7.83049 22.0168L56.0155 85.8777L188.684 -14.2248L27.6886 -55.4793L7.83049 22.0168ZM0.720249 23.4739L15.5293 -55.1435L15.0468 -55.2344L14.5632 -55.3193L0.720249 23.4739ZM0.0518114 23.8303L-73.1756 -8.38382L-73.1828 -8.36741L-73.19 -8.351L0.0518114 23.8303ZM0.240776 24.5633L48.7767 -39.0313L48.7482 -39.053L48.7197 -39.0747L0.240776 24.5633ZM13.2158 27.1022L30.1129 105.297L30.89 105.129L31.6637 104.946L13.2158 27.1022ZM27.0084 9.60258L-27.5042 -48.9498L-53.4527 -24.7915L-52.9846 10.6588L27.0084 9.60258ZM29.9782 6.14162L107.101 27.4049L107.113 27.36L107.125 27.3151L29.9782 6.14162ZM25.9736 8.89178L-28.1775 -49.995L-28.1827 -49.9903L25.9736 8.89178ZM25.7776 9.38385L105.613 4.2607L105.604 4.12214L105.595 3.98361L25.7776 9.38385ZM24.5065 16.4307L-49.7736 -13.2757L-49.7739 -13.2749L24.5065 16.4307ZM12.9455 25.908L29.415 104.194L30.4068 103.986L31.393 103.752L12.9455 25.908ZM2.99673 24.8129L-0.35451 -55.1168L-31.3642 97.0579L2.99673 24.8129ZM9.63494 22.0118L-50.0624 -31.2444L-50.0823 -31.2221L-50.1021 -31.1999L9.63494 22.0118ZM9.73508 21.3325L82.7106 -11.4482L82.6942 -11.4846L82.6779 -11.5209L9.73508 21.3325ZM4.88615 18.2378L8.33667 -61.6877L-126.968 -67.5291L-66.779 53.792L4.88615 18.2378ZM6.59252 17.9896L40.0674 90.6493L40.0878 90.6399L40.1082 90.6305L6.59252 17.9896ZM6.94437 17.37L-72.551 26.341L-72.5508 26.343L6.94437 17.37ZM6.46215 16.8422L-10.1036 95.1083L-10.0678 95.1158L-10.0321 95.1234L6.46215 16.8422ZM2.58658 12.5828L33.3509 -61.2654L-96.3624 -115.302L-76.6199 23.8226L2.58658 12.5828ZM4.31568 12.8574L-7.50068 -66.2652L-7.51783 -66.2626L-7.53497 -66.26L4.31568 12.8574ZM4.8122 12.423L81.6085 34.8358L81.6152 34.8128L81.6219 34.7898L4.8122 12.423ZM4.62564 11.7897L57.1573 -48.5463L57.123 -48.5762L57.0886 -48.6061L4.62564 11.7897ZM2.83613 5.46311L60.5478 -49.9387L-25.4952 -139.569L-71.4823 -24.1472L2.83613 5.46311ZM14.8967 11.1342L19.4752 91.003L19.4866 91.0024L19.498 91.0017L14.8967 11.1342ZM15.3549 10.8851L79.8142 58.2666L79.8264 58.2499L79.8387 58.2332L15.3549 10.8851ZM15.4551 10.3737L-62.1363 29.8564L-62.1274 29.8921L-62.1184 29.9277L15.4551 10.3737ZM24.1626 5.36543L81.6214 -50.2987L81.6 -50.3207L81.5786 -50.3428L24.1626 5.36543ZM24.5916 5.55141L23.0879 85.5373L23.4588 85.5442L23.8296 85.5478L24.5916 5.55141ZM27.1423 5.10416L87.9765 57.058L288.153 -177.334L-0.7472 -69.877L27.1423 5.10416ZM25.7752 6.38455L-23.6346 -56.5334L-23.6487 -56.5223L-23.6628 -56.5113L25.7752 6.38455ZM25.5832 7.0892L-48.9226 36.2248L-48.9165 36.2405L-48.9103 36.2562L25.5832 7.0892ZM26.2023 7.47633L19.8587 -72.2718L19.3826 -72.2339L18.9069 -72.1903L26.2023 7.47633ZM27.6292 7.27096L85.9011 62.0832L258.24 -121.134L11.7264 -71.1325L27.6292 7.27096ZM74.5679 -60.7823C46.0265 -80.0972 8.22959 -79.1843 -19.3783 -58.2094L77.4142 69.1924C50.2243 89.8497 13.0014 90.7477 -15.1054 71.727L74.5679 -60.7823ZM-19.2754 -58.2874C-12.237 -63.6169 -5.89059 -66.5442 -2.73004 -67.89C0.869222 -69.4226 3.88816 -70.3811 5.82827 -70.9427L50.3164 82.7479C52.5287 82.1075 64.8073 78.7385 77.3113 69.2705L-19.2754 -58.2874ZM88.8312 57.9445C102.11 42.4421 110.462 21.5054 108.987 -1.49701L-50.685 8.74447C-52.1352 -13.8651 -43.8268 -33.133 -32.6865 -46.1393L88.8312 57.9445ZM108.985 -1.52213C107.093 -30.8733 89.3854 -56.7786 62.9035 -69.2583L-5.30296 75.4755C-31.3812 63.186 -48.8202 37.6753 -50.6834 8.76959L108.985 -1.52213ZM62.5932 -69.4037C36.2177 -81.6955 5.02353 -78.8894 -18.835 -61.5596L75.1949 67.8946C51.6969 84.9625 20.9775 87.7238 -4.9927 75.6209L62.5932 -69.4037ZM-18.8464 -61.5513C-3.61043 -72.6221 12.1286 -75.3337 22.4904 -75.6398L27.2143 84.2905C39.1115 83.939 57.4047 80.8214 75.2062 67.8863L-18.8464 -61.5513ZM79.985 -53.6435C64.024 -68.8236 42.7791 -77.4292 20.473 -77.4292V82.5708C1.45239 82.5708 -16.7026 75.2076 -30.2804 62.2942L79.985 -53.6435ZM20.473 -77.4292C-28.2279 -77.4292 -65.9317 -37.7076 -65.9317 9.06012H94.0683C94.0683 48.6716 62.111 82.5708 20.473 82.5708V-77.4292ZM-65.9317 9.06012C-65.9317 12.8773 -65.6792 16.6429 -65.195 20.333L93.4452 -0.481816C93.8542 2.63497 94.0683 5.82231 94.0683 9.06012H-65.9317ZM15.4863 -70.0628C36.5931 -69.7036 50.1554 -60.1896 53.8911 -57.4335C58.7615 -53.8403 62.1387 -50.1938 64.6491 -47.1766L-58.3441 55.1594C-55.7831 58.2373 -49.9341 64.7996 -41.0972 71.3191C-33.395 77.0014 -14.3717 89.4522 12.7639 89.914L15.4863 -70.0628ZM64.5737 -47.2672C48.0882 -67.021 22.3672 -78.4714 -4.96524 -75.8649L10.2239 83.4125C-16.7067 85.9807 -42.0391 74.6972 -58.2686 55.25L64.5737 -47.2672ZM-4.31316 -75.9244C-30.5104 -73.6424 -53.9798 -58.7191 -67.1453 -35.8959L71.4491 44.0516C58.4834 66.5286 35.3709 81.2246 9.57187 83.472L-4.31316 -75.9244ZM-67.159 -35.8721C-90.4349 4.5103 -73.4424 41.4905 -63.9659 55.6603L69.032 -33.2866C72.7497 -27.7278 78.4035 -17.5763 80.4732 -3.41676C82.7758 12.3368 80 29.2163 71.4628 44.0278L-67.159 -35.8721ZM43.4116 -57.5805C44.3606 -57.0164 45.3316 -56.4111 46.3212 -55.7608C47.2764 -55.1331 48.4523 -54.3299 49.7755 -53.3536L-45.2216 75.3925C-42.6493 77.2905 -40.2862 78.8005 -38.3455 79.9542L43.4116 -57.5805ZM50.0118 -53.1786C25.8183 -71.1678 -6.48774 -74.2026 -33.6861 -60.8162L36.9682 82.7385C10.1818 95.9222 -21.6328 92.9328 -45.458 75.2174L50.0118 -53.1786ZM-33.7197 -60.7997C-60.8229 -47.4444 -78.1814 -20.0549 -78.6896 10.155L81.2877 12.8464C80.7872 42.5966 63.6924 69.57 37.0018 82.722L-33.7197 -60.7997ZM-78.6904 10.1978C-79.2348 43.6231 -61.5885 68.1876 -43.3218 81.527L51.0379 -47.6869C57.9016 -42.6746 65.9939 -34.9064 72.22 -23.5564C78.6805 -11.779 81.4825 0.888067 81.2884 12.8036L-78.6904 10.1978ZM-7.06728 -62.3304C-25.2365 -59.8256 -42.4683 -51.1131 -55.4262 -37.0061L62.408 71.2302C49.6457 85.1242 32.6747 93.7041 14.7834 96.1705L-7.06728 -62.3304ZM-55.3414 -37.0983C-74.6867 -16.1037 -81.5309 13.6248 -73.1617 41.053L79.8727 -5.64277C88.1151 21.3698 81.3743 50.647 62.3232 71.3224L-55.3414 -37.0983ZM-73.1538 41.0786C-61.3225 79.8066 -29.7339 94.9758 -12.0277 99.513L27.6886 -55.4793C34.7259 -53.676 45.1649 -49.8722 55.5782 -41.4838C66.818 -32.4297 75.4808 -20.0189 79.8648 -5.66843L-73.1538 41.0786ZM-40.3545 -41.844C-24.2151 -54.0217 -8.21506 -55.8544 -2.06875 -56.2609C4.85227 -56.7187 10.7354 -56.0465 15.5293 -55.1435L-14.0888 102.091C-9.24858 103.003 -1.2523 104.035 8.49126 103.39C17.4601 102.797 36.9921 100.231 56.0155 85.8777L-40.3545 -41.844ZM14.5632 -55.3193C-21.6177 -61.6758 -58.0703 -42.7205 -73.1756 -8.38382L73.2792 56.0444C58.4017 89.8631 22.5039 108.526 -13.1227 102.267L14.5632 -55.3193ZM-73.19 -8.351C-88.1136 25.6139 -77.9573 65.5615 -48.2382 88.2012L48.7197 -39.0747C77.9892 -16.7774 87.99 22.5638 73.2936 56.0115L-73.19 -8.351ZM-48.2951 88.1578C-25.4763 105.573 -1.48957 107.429 9.64684 107.429V-52.5707C15.4723 -52.5707 32.106 -51.7545 48.7767 -39.0313L-48.2951 88.1578ZM9.64684 107.429C19.1067 107.429 26.4742 106.084 30.1129 105.297L-3.68134 -51.093C-0.316488 -51.8201 4.20327 -52.5707 9.64684 -52.5707V107.429ZM31.6637 104.946C64.5113 97.1617 86.3237 75.4547 97.3219 52.4493C106.633 32.9734 107.092 15.3879 107.001 8.54641L-52.9846 10.6588C-53.0474 5.90298 -52.7869 -4.51997 -47.0304 -16.5611C-43.8224 -23.2714 -38.6421 -30.9893 -30.6343 -37.7617C-22.4355 -44.6957 -13.4343 -48.7979 -5.23213 -50.7417L31.6637 104.946ZM81.521 68.1549C84.7051 65.1905 88.7653 61.1112 92.7386 55.9642C96.0863 51.6276 103.132 41.7976 107.101 27.4049L-47.1443 -15.1217C-43.2377 -29.291 -36.42 -38.5603 -33.9135 -41.8072C-30.7814 -45.8644 -28.1753 -48.325 -27.5042 -48.9498L81.521 68.1549ZM107.125 27.3151C116.264 -5.98251 103.179 -41.3478 74.6828 -60.7043L-15.2203 71.6491C-43.2825 52.5874 -56.1689 17.7602 -47.169 -15.0318L107.125 27.3151ZM-28.1827 -49.9903C-46.2499 -33.3731 -55.684 -9.51573 -54.0399 14.7841L105.595 3.98361C107.214 27.9128 97.9241 51.4078 80.13 67.7738L-28.1827 -49.9903ZM-54.0582 14.507C-54.272 11.1758 -54.3039 7.44004 -53.883 3.34792C-53.4721 -0.646433 -52.4769 -6.51634 -49.7736 -13.2757L98.7865 46.1371C106.666 26.4341 105.94 9.35034 105.613 4.2607L-54.0582 14.507ZM-49.7739 -13.2749C-46.0585 -22.5656 -39.7367 -31.8628 -30.5919 -39.3579C-21.6718 -46.6688 -12.5134 -50.2744 -5.50203 -51.936L31.393 103.752C59.4336 97.1069 86.057 77.9679 98.7868 46.1363L-49.7739 -13.2749ZM-3.52398 -52.3784C-0.0856473 -53.1017 4.37205 -53.8119 9.70532 -53.8103C14.4761 -53.8089 25.065 -53.2786 37.3576 -47.432L-31.3642 97.0579C-1.04162 111.48 27.4457 104.609 29.415 104.194L-3.52398 -52.3784ZM6.34798 104.743C17.244 104.286 46.3426 101.077 69.372 75.2235L-50.1021 -31.1999C-30.9238 -52.73 -7.29841 -54.8257 -0.35451 -55.1168L6.34798 104.743ZM69.3323 75.268C91.3117 50.6303 95.235 16.4333 82.7106 -11.4482L-63.2404 54.1133C-75.5669 26.6724 -71.7201 -6.96726 -50.0624 -31.2444L69.3323 75.268ZM82.6779 -11.5209C71.5219 -36.2901 45.1954 -59.0489 9.17545 -59.0489V100.951C-26.3626 100.951 -52.2496 78.5157 -63.2077 54.186L82.6779 -11.5209ZM9.17545 -59.0489C9.17545 -59.0489 9.17544 -59.0489 9.17544 -59.0489C9.17544 -59.0489 9.17544 -59.0489 9.17543 -59.0489C9.17543 -59.0489 9.17543 -59.0489 9.17543 -59.0489C9.17543 -59.0489 9.17542 -59.0489 9.17542 -59.0489C9.17542 -59.0489 9.17542 -59.0489 9.17541 -59.0489C9.17541 -59.0489 9.17541 -59.0489 9.17541 -59.0489C9.1754 -59.0489 9.1754 -59.0489 9.1754 -59.0489C9.1754 -59.0489 9.1754 -59.0489 9.17539 -59.0489C9.17539 -59.0489 9.17539 -59.0489 9.17539 -59.0489C9.17538 -59.0489 9.17538 -59.0489 9.17538 -59.0489C9.17538 -59.0489 9.17537 -59.0489 9.17537 -59.0489C9.17537 -59.0489 9.17537 -59.0489 9.17537 -59.0489C9.17536 -59.0489 9.17536 -59.0489 9.17536 -59.0489C9.17536 -59.0489 9.17535 -59.0489 9.17535 -59.0489C9.17535 -59.0489 9.17535 -59.0489 9.17535 -59.0489C9.17534 -59.0489 9.17534 -59.0489 9.17534 -59.0489C9.17534 -59.0489 9.17533 -59.0489 9.17533 -59.0489C9.17533 -59.0489 9.17533 -59.0489 9.17532 -59.0489C9.17532 -59.0489 9.17532 -59.0489 9.17532 -59.0489C9.17532 -59.0489 9.17531 -59.0489 9.17531 -59.0489C9.17531 -59.0489 9.17531 -59.0489 9.1753 -59.0489C9.1753 -59.0489 9.1753 -59.0489 9.1753 -59.0489C9.17529 -59.0489 9.17529 -59.0489 9.17529 -59.0489C9.17529 -59.0489 9.17529 -59.0489 9.17528 -59.0489C9.17528 -59.0489 9.17528 -59.0489 9.17528 -59.0489C9.17527 -59.0489 9.17527 -59.0489 9.17527 -59.0489C9.17527 -59.0489 9.17526 -59.0489 9.17526 -59.0489C9.17526 -59.0489 9.17526 -59.0489 9.17526 -59.0489C9.17525 -59.0489 9.17525 -59.0489 9.17525 -59.0489C9.17525 -59.0489 9.17524 -59.0489 9.17524 -59.0489C9.17524 -59.0489 9.17524 -59.0489 9.17523 -59.0489C9.17523 -59.0489 9.17523 -59.0489 9.17523 -59.0489C9.17523 -59.0489 9.17522 -59.0489 9.17522 -59.0489C9.17522 -59.0489 9.17522 -59.0489 9.17521 -59.0489C9.17521 -59.0489 9.17521 -59.0489 9.17521 -59.0489C9.1752 -59.0489 9.1752 -59.0489 9.1752 -59.0489C9.1752 -59.0489 9.1752 -59.0489 9.17519 -59.0489C9.17519 -59.0489 9.17519 -59.0489 9.17519 -59.0489C9.17518 -59.0489 9.17518 -59.0489 9.17518 -59.0489C9.17518 -59.0489 9.17517 -59.0489 9.17517 -59.0489C9.17517 -59.0489 9.17517 -59.0489 9.17517 -59.0489C9.17516 -59.0489 9.17516 -59.0489 9.17516 -59.0489C9.17516 -59.0489 9.17515 -59.0489 9.17515 -59.0489C9.17515 -59.0489 9.17515 -59.0489 9.17514 -59.0489C9.17514 -59.0489 9.17514 -59.0489 9.17514 -59.0489C9.17514 -59.0489 9.17513 -59.0489 9.17513 -59.0489C9.17513 -59.0489 9.17513 -59.0489 9.17512 -59.0489C9.17512 -59.0489 9.17512 -59.0489 9.17512 -59.0489C9.17511 -59.0489 9.17511 -59.0489 9.17511 -59.0489C9.17511 -59.0489 9.17511 -59.0489 9.1751 -59.0489C9.1751 -59.0489 9.1751 -59.0489 9.1751 -59.0489C9.17509 -59.0489 9.17509 -59.0489 9.17509 -59.0489C9.17509 -59.0489 9.17508 -59.0489 9.17508 -59.0489C9.17508 -59.0489 9.17508 -59.0489 9.17508 -59.0489C9.17507 -59.0489 9.17507 -59.0489 9.17507 -59.0489C9.17507 -59.0489 9.17506 -59.0489 9.17506 -59.0489C9.17506 -59.0489 9.17506 -59.0489 9.17505 -59.0489C9.17505 -59.0489 9.17505 -59.0489 9.17505 -59.0489C9.17504 -59.0489 9.17504 -59.0489 9.17504 -59.0489C9.17504 -59.0489 9.17504 -59.0489 9.17503 -59.0489C9.17503 -59.0489 9.17503 -59.0489 9.17503 -59.0489C9.17502 -59.0489 9.17502 -59.0489 9.17502 -59.0489C9.17502 -59.0489 9.17501 -59.0489 9.17501 -59.0489C9.17501 -59.0489 9.17501 -59.0489 9.17501 -59.0489C9.175 -59.0489 9.175 -59.0489 9.175 -59.0489C9.175 -59.0489 9.17499 -59.0489 9.17499 -59.0489C9.17499 -59.0489 9.17499 -59.0489 9.17498 -59.0489C9.17498 -59.0489 9.17498 -59.0489 9.17498 -59.0489C9.17497 -59.0489 9.17497 -59.0489 9.17497 -59.0489C9.17497 -59.0489 9.17497 -59.0489 9.17496 -59.0489C9.17496 -59.0489 9.17496 -59.0489 9.17496 -59.0489C9.17495 -59.0489 9.17495 -59.0489 9.17495 -59.0489C9.17495 -59.0489 9.17494 -59.0489 9.17494 -59.0489C9.17494 -59.0489 9.17494 -59.0489 9.17494 -59.0489C9.17493 -59.0489 9.17493 -59.0489 9.17493 -59.0489C9.17493 -59.0489 9.17492 -59.0489 9.17492 -59.0489C9.17492 -59.0489 9.17492 -59.0489 9.17491 -59.0489C9.17491 -59.0489 9.17491 -59.0489 9.17491 -59.0489C9.1749 -59.0489 9.1749 -59.0489 9.1749 -59.0489C9.1749 -59.0489 9.1749 -59.0489 9.17489 -59.0489C9.17489 -59.0489 9.17489 -59.0489 9.17489 -59.0489C9.17488 -59.0489 9.17488 -59.0489 9.17488 -59.0489C9.17488 -59.0489 9.17487 -59.0489 9.17487 -59.0489C9.17487 -59.0489 9.17487 -59.0489 9.17486 -59.0489C9.17486 -59.0489 9.17486 -59.0489 9.17486 -59.0489C9.17486 -59.0489 9.17485 -59.0489 9.17485 -59.0489C9.17485 -59.0489 9.17485 -59.0489 9.17484 -59.0489C9.17484 -59.0489 9.17484 -59.0489 9.17484 -59.0489C9.17483 -59.0489 9.17483 -59.0489 9.17483 -59.0489C9.17483 -59.0489 9.17482 -59.0489 9.17482 -59.0489C9.17482 -59.0489 9.17482 -59.0489 9.17482 -59.0489C9.17481 -59.0489 9.17481 -59.0489 9.17481 -59.0489C9.17481 -59.0489 9.1748 -59.0489 9.1748 -59.0489C9.1748 -59.0489 9.1748 -59.0489 9.17479 -59.0489C9.17479 -59.0489 9.17479 -59.0489 9.17479 -59.0489C9.17478 -59.0489 9.17478 -59.0489 9.17478 -59.0489C9.17478 -59.0489 9.17478 -59.0489 9.17477 -59.0489C9.17477 -59.0489 9.17477 -59.0489 9.17477 -59.0489C9.17476 -59.0489 9.17476 -59.0489 9.17476 -59.0489C9.17476 -59.0489 9.17475 -59.0489 9.17475 -59.0489C9.17475 -59.0489 9.17475 -59.0489 9.17474 -59.0489C9.17474 -59.0489 9.17474 -59.0489 9.17474 -59.0489C9.17473 -59.0489 9.17473 -59.0489 9.17473 -59.0489C9.17473 -59.0489 9.17473 -59.0489 9.17472 -59.0489C9.17472 -59.0489 9.17472 -59.0489 9.17472 -59.0489C9.17471 -59.0489 9.17471 -59.0489 9.17471 -59.0489C9.17471 -59.0489 9.1747 -59.0489 9.1747 -59.0489C9.1747 -59.0489 9.1747 -59.0489 9.17469 -59.0489C9.17469 -59.0489 9.17469 -59.0489 9.17469 -59.0489C9.17469 -59.0489 9.17468 -59.0489 9.17468 -59.0489C9.17468 -59.0489 9.17468 -59.0489 9.17467 -59.0489C9.17467 -59.0489 9.17467 -59.0489 9.17467 -59.0489C9.17466 -59.0489 9.17466 -59.0489 9.17466 -59.0489C9.17466 -59.0489 9.17465 -59.0489 9.17465 -59.0489C9.17465 -59.0489 9.17465 -59.0489 9.17464 -59.0489C9.17464 -59.0489 9.17464 -59.0489 9.17464 -59.0489C9.17463 -59.0489 9.17463 -59.0489 9.17463 -59.0489C9.17463 -59.0489 9.17463 -59.0489 9.17462 -59.0489C9.17462 -59.0489 9.17462 -59.0489 9.17462 -59.0489C9.17461 -59.0489 9.17461 -59.0489 9.17461 -59.0489C9.17461 -59.0489 9.1746 -59.0489 9.1746 -59.0489C9.1746 -59.0489 9.1746 -59.0489 9.17459 -59.0489C9.17459 -59.0489 9.17459 -59.0489 9.17459 -59.0489C9.17458 -59.0489 9.17458 -59.0489 9.17458 -59.0489C9.17458 -59.0489 9.17458 -59.0489 9.17457 -59.0489C9.17457 -59.0489 9.17457 -59.0489 9.17457 -59.0489C9.17456 -59.0489 9.17456 -59.0489 9.17456 -59.0489C9.17456 -59.0489 9.17455 -59.0489 9.17455 -59.0489C9.17455 -59.0489 9.17455 -59.0489 9.17454 -59.0489C9.17454 -59.0489 9.17454 -59.0489 9.17454 -59.0489C9.17453 -59.0489 9.17453 -59.0489 9.17453 -59.0489C9.17453 -59.0489 9.17452 -59.0489 9.17452 -59.0489C9.17452 -59.0489 9.17452 -59.0489 9.17452 -59.0489C9.17451 -59.0489 9.17451 -59.0489 9.17451 -59.0489C9.17451 -59.0489 9.1745 -59.0489 9.1745 -59.0489C9.1745 -59.0489 9.1745 -59.0489 9.17449 -59.0489C9.17449 -59.0489 9.17449 -59.0489 9.17449 -59.0489C9.17448 -59.0489 9.17448 -59.0489 9.17448 -59.0489C9.17448 -59.0489 9.17447 -59.0489 9.17447 -59.0489C9.17447 -59.0489 9.17447 -59.0489 9.17446 -59.0489C9.17446 -59.0489 9.17446 -59.0489 9.17446 -59.0489C9.17445 -59.0489 9.17445 -59.0489 9.17445 -59.0489C9.17445 -59.0489 9.17444 -59.0489 9.17444 -59.0489C9.17444 -59.0489 9.17444 -59.0489 9.17444 -59.0489C9.17443 -59.0489 9.17443 -59.0489 9.17443 -59.0489C9.17443 -59.0489 9.17442 -59.0489 9.17442 -59.0489C9.17442 -59.0489 9.17442 -59.0489 9.17441 -59.0489C9.17441 -59.0489 9.17441 -59.0489 9.17441 -59.0489C9.1744 -59.0489 9.1744 -59.0489 9.1744 -59.0489C9.1744 -59.0489 9.17439 -59.0489 9.17439 -59.0489C9.17439 -59.0489 9.17439 -59.0489 9.17438 -59.0489C9.17438 -59.0489 9.17438 -59.0489 9.17438 -59.0489C9.17437 -59.0489 9.17437 -59.0489 9.17437 -59.0489C9.17437 -59.0489 9.17436 -59.0489 9.17436 -59.0489C9.17436 -59.0489 9.17436 -59.0489 9.17435 -59.0489C9.17435 -59.0489 9.17435 -59.0489 9.17435 -59.0489C9.17435 -59.0489 9.17434 -59.0489 9.17434 -59.0489C9.17434 -59.0489 9.17434 -59.0489 9.17433 -59.0489C9.17433 -59.0489 9.17433 -59.0489 9.17433 -59.0489C9.17432 -59.0489 9.17432 -59.0489 9.17432 -59.0489C9.17432 -59.0489 9.17431 -59.0489 9.17431 -59.0489C9.17431 -59.0489 9.17431 -59.0489 9.1743 -59.0489C9.1743 -59.0489 9.1743 -59.0489 9.1743 -59.0489C9.17429 -59.0489 9.17429 -59.0489 9.17429 -59.0489C9.17429 -59.0489 9.17428 -59.0489 9.17428 -59.0489C9.17428 -59.0489 9.17428 -59.0489 9.17427 -59.0489C9.17427 -59.0489 9.17427 -59.0489 9.17427 -59.0489C9.17426 -59.0489 9.17426 -59.0489 9.17426 -59.0489C9.17426 -59.0489 9.17425 -59.0489 9.17425 -59.0489C9.17425 -59.0489 9.17425 -59.0489 9.17424 -59.0489C9.17424 -59.0489 9.17424 -59.0489 9.17424 -59.0489C9.17423 -59.0489 9.17423 -59.0489 9.17423 -59.0489C9.17423 -59.0489 9.17422 -59.0489 9.17422 -59.0489C9.17422 -59.0489 9.17422 -59.0489 9.17421 -59.0489C9.17421 -59.0489 9.17421 -59.0489 9.17421 -59.0489C9.1742 -59.0489 9.1742 -59.0489 9.1742 -59.0489C9.1742 -59.0489 9.1742 -59.0489 9.17419 -59.0489C9.17419 -59.0489 9.17419 -59.0489 9.17419 -59.0489C9.17418 -59.0489 9.17418 -59.0489 9.17418 -59.0489C9.17418 -59.0489 9.17417 -59.0489 9.17417 -59.0489C9.17417 -59.0489 9.17417 -59.0489 9.17416 -59.0489C9.17416 -59.0489 9.17416 -59.0489 9.17416 -59.0489C9.17415 -59.0489 9.17415 -59.0489 9.17415 -59.0489C9.17415 -59.0489 9.17414 -59.0489 9.17414 -59.0489C9.17414 -59.0489 9.17414 -59.0489 9.17413 -59.0489C9.17413 -59.0489 9.17413 -59.0489 9.17413 -59.0489C9.17412 -59.0489 9.17412 -59.0489 9.17412 -59.0489C9.17412 -59.0489 9.17411 -59.0489 9.17411 -59.0489C9.17411 -59.0489 9.17411 -59.0489 9.1741 -59.0489C9.1741 -59.0489 9.1741 -59.0489 9.1741 -59.0489C9.17409 -59.0489 9.17409 -59.0489 9.17409 -59.0489C9.17409 -59.0489 9.17408 -59.0489 9.17408 -59.0489C9.17408 -59.0489 9.17408 -59.0489 9.17407 -59.0489C9.17407 -59.0489 9.17407 -59.0489 9.17407 -59.0489C9.17406 -59.0489 9.17406 -59.0489 9.17406 -59.0489C9.17406 -59.0489 9.17405 -59.0489 9.17405 -59.0489C9.17405 -59.0489 9.17405 -59.0489 9.17404 -59.0489C9.17404 -59.0489 9.17404 -59.0489 9.17404 -59.0489C9.17403 -59.0489 9.17403 -59.0489 9.17403 -59.0489C9.17403 -59.0489 9.17402 -59.0489 9.17402 -59.0489C9.17402 -59.0489 9.17402 -59.0489 9.17401 -59.0489C9.17401 -59.0489 9.17401 -59.0489 9.17401 -59.0489C9.174 -59.0489 9.174 -59.0489 9.174 -59.0489C9.174 -59.0489 9.17399 -59.0489 9.17399 -59.0489C9.17399 -59.0489 9.17398 -59.0489 9.17398 -59.0489C9.17398 -59.0489 9.17398 -59.0489 9.17397 -59.0489C9.17397 -59.0489 9.17397 -59.0489 9.17397 -59.0489C9.17396 -59.0489 9.17396 -59.0489 9.17396 -59.0489C9.17396 -59.0489 9.17395 -59.0489 9.17395 -59.0489C9.17395 -59.0489 9.17395 -59.0489 9.17394 -59.0489C9.17394 -59.0489 9.17394 -59.0489 9.17394 -59.0489C9.17393 -59.0489 9.17393 -59.0489 9.17393 -59.0489C9.17393 -59.0489 9.17392 -59.0489 9.17392 -59.0489C9.17392 -59.0489 9.17392 -59.0489 9.17391 -59.0489C9.17391 -59.0489 9.17391 -59.0489 9.17391 -59.0489C9.1739 -59.0489 9.1739 -59.0489 9.1739 -59.0489C9.1739 -59.0489 9.17389 -59.0489 9.17389 -59.0489C9.17389 -59.0489 9.17389 -59.0489 9.17388 -59.0489C9.17388 -59.0489 9.17388 -59.0489 9.17388 -59.0489C9.17387 -59.0489 9.17387 -59.0489 9.17387 -59.0489C9.17387 -59.0489 9.17386 -59.0489 9.17386 -59.0489C9.17386 -59.0489 9.17386 -59.0489 9.17385 -59.0489C9.17385 -59.0489 9.17385 -59.0489 9.17385 -59.0489C9.17384 -59.0489 9.17384 -59.0489 9.17384 -59.0489C9.17383 -59.0489 9.17383 -59.0489 9.17383 -59.0489C9.17383 -59.0489 9.17382 -59.0489 9.17382 -59.0489C9.17382 -59.0489 9.17382 -59.0489 9.17381 -59.0489C9.17381 -59.0489 9.17381 -59.0489 9.17381 -59.0489C9.1738 -59.0489 9.1738 -59.0489 9.1738 -59.0489C9.1738 -59.0489 9.17379 -59.0489 9.17379 -59.0489C9.17379 -59.0489 9.17379 -59.0489 9.17378 -59.0489C9.17378 -59.0489 9.17378 -59.0489 9.17378 -59.0489C9.17377 -59.0489 9.17377 -59.0489 9.17377 -59.0489C9.17377 -59.0489 9.17376 -59.0489 9.17376 -59.0489C9.17376 -59.0489 9.17375 -59.0489 9.17375 -59.0489C9.17375 -59.0489 9.17375 -59.0489 9.17374 -59.0489C9.17374 -59.0489 9.17374 -59.0489 9.17374 -59.0489C9.17373 -59.0489 9.17373 -59.0489 9.17373 -59.0489C9.17373 -59.0489 9.17372 -59.0489 9.17372 -59.0489C9.17372 -59.0489 9.17372 -59.0489 9.17371 -59.0489C9.17371 -59.0489 9.17371 -59.0489 9.17371 -59.0489C9.1737 -59.0489 9.1737 -59.0489 9.1737 -59.0489C9.1737 -59.0489 9.17369 -59.0489 9.17369 -59.0489C9.17369 -59.0489 9.17368 -59.0489 9.17368 -59.0489C9.17368 -59.0489 9.17368 -59.0489 9.17367 -59.0489C9.17367 -59.0489 9.17367 -59.0489 9.17367 -59.0489C9.17366 -59.0489 9.17366 -59.0489 9.17366 -59.0489C9.17366 -59.0489 9.17365 -59.0489 9.17365 -59.0489C9.17365 -59.0489 9.17365 -59.0489 9.17364 -59.0489C9.17364 -59.0489 9.17364 -59.0489 9.17364 -59.0489C9.17363 -59.0489 9.17363 -59.0489 9.17363 -59.0489C9.17362 -59.0489 9.17362 -59.0489 9.17362 -59.0489C9.17362 -59.0489 9.17361 -59.0489 9.17361 -59.0489C9.17361 -59.0489 9.17361 -59.0489 9.1736 -59.0489C9.1736 -59.0489 9.1736 -59.0489 9.1736 -59.0489C9.17359 -59.0489 9.17359 -59.0489 9.17359 -59.0489C9.17359 -59.0489 9.17358 -59.0489 9.17358 -59.0489C9.17358 -59.0489 9.17357 -59.0489 9.17357 -59.0489C9.17357 -59.0489 9.17357 -59.0489 9.17356 -59.0489C9.17356 -59.0489 9.17356 -59.0489 9.17356 -59.0489C9.17355 -59.0489 9.17355 -59.0489 9.17355 -59.0489C9.17355 -59.0489 9.17354 -59.0489 9.17354 -59.0489C9.17354 -59.0489 9.17354 -59.0489 9.17353 -59.0489C9.17353 -59.0489 9.17353 -59.0489 9.17352 -59.0489C9.17352 -59.0489 9.17352 -59.0489 9.17352 -59.0489C9.17351 -59.0489 9.17351 -59.0489 9.17351 -59.0489C9.17351 -59.0489 9.1735 -59.0489 9.1735 -59.0489C9.1735 -59.0489 9.1735 -59.0489 9.17349 -59.0489C9.17349 -59.0489 9.17349 -59.0489 9.17348 -59.0489C9.17348 -59.0489 9.17348 -59.0489 9.17348 -59.0489C9.17347 -59.0489 9.17347 -59.0489 9.17347 -59.0489C9.17347 -59.0489 9.17346 -59.0489 9.17346 -59.0489C9.17346 -59.0489 9.17346 -59.0489 9.17345 -59.0489C9.17345 -59.0489 9.17345 -59.0489 9.17344 -59.0489C9.17344 -59.0489 9.17344 -59.0489 9.17344 -59.0489C9.17343 -59.0489 9.17343 -59.0489 9.17343 -59.0489C9.17343 -59.0489 9.17342 -59.0489 9.17342 -59.0489C9.17342 -59.0489 9.17342 -59.0489 9.17341 -59.0489C9.17341 -59.0489 9.17341 -59.0489 9.1734 -59.0489C9.1734 -59.0489 9.1734 -59.0489 9.1734 -59.0489C9.17339 -59.0489 9.17339 -59.0489 9.17339 -59.0489C9.17339 -59.0489 9.17338 -59.0489 9.17338 -59.0489C9.17338 -59.0489 9.17337 -59.0489 9.17337 -59.0489C9.17337 -59.0489 9.17337 -59.0489 9.17336 -59.0489C9.17336 -59.0489 9.17336 -59.0489 9.17336 -59.0489C9.17335 -59.0489 9.17335 -59.0489 9.17335 -59.0489C9.17335 -59.0489 9.17334 -59.0489 9.17334 -59.0489C9.17334 -59.0489 9.17333 -59.0489 9.17333 -59.0489C9.17333 -59.0489 9.17333 -59.0489 9.17332 -59.0489C9.17332 -59.0489 9.17332 -59.0489 9.17332 -59.0489C9.17331 -59.0489 9.17331 -59.0489 9.17331 -59.0489C9.1733 -59.0489 9.1733 -59.0489 9.1733 -59.0489C9.1733 -59.0489 9.17329 -59.0489 9.17329 -59.0489C9.17329 -59.0489 9.17329 -59.0489 9.17328 -59.0489C9.17328 -59.0489 9.17328 -59.0489 9.17327 -59.0489C9.17327 -59.0489 9.17327 -59.0489 9.17327 -59.0489C9.17326 -59.0489 9.17326 -59.0489 9.17326 -59.0489C9.17326 -59.0489 9.17325 -59.0489 9.17325 -59.0489C9.17325 -59.0489 9.17324 -59.0489 9.17324 -59.0489C9.17324 -59.0489 9.17324 -59.0489 9.17323 -59.0489C9.17323 -59.0489 9.17323 -59.0489 9.17323 -59.0489C9.17322 -59.0489 9.17322 -59.0489 9.17322 -59.0489C9.17321 -59.0489 9.17321 -59.0489 9.17321 -59.0489C9.17321 -59.0489 9.1732 -59.0489 9.1732 -59.0489C9.1732 -59.0489 9.1732 -59.0489 9.17319 -59.0489C9.17319 -59.0489 9.17319 -59.0489 9.17318 -59.0489C9.17318 -59.0489 9.17318 -59.0489 9.17318 -59.0489C9.17317 -59.0489 9.17317 -59.0489 9.17317 -59.0489C9.17317 -59.0489 9.17316 -59.0489 9.17316 -59.0489C9.17316 -59.0489 9.17315 -59.0489 9.17315 -59.0489C9.17315 -59.0489 9.17315 -59.0489 9.17314 -59.0489C9.17314 -59.0489 9.17314 -59.0489 9.17313 -59.0489C9.17313 -59.0489 9.17313 -59.0489 9.17313 -59.0489C9.17312 -59.0489 9.17312 -59.0489 9.17312 -59.0489C9.17312 -59.0489 9.17311 -59.0489 9.17311 -59.0489C9.17311 -59.0489 9.1731 -59.0489 9.1731 -59.0489C9.1731 -59.0489 9.1731 -59.0489 9.17309 -59.0489C9.17309 -59.0489 9.17309 -59.0489 9.17308 -59.0489C9.17308 -59.0489 9.17308 -59.0489 9.17308 -59.0489C9.17307 -59.0489 9.17307 -59.0489 9.17307 -59.0489C9.17307 -59.0489 9.17306 -59.0489 9.17306 -59.0489C9.17306 -59.0489 9.17305 -59.0489 9.17305 -59.0489C9.17305 -59.0489 9.17305 -59.0489 9.17304 -59.0489C9.17304 -59.0489 9.17304 -59.0489 9.17303 -59.0489C9.17303 -59.0489 9.17303 -59.0489 9.17303 -59.0489C9.17302 -59.0489 9.17302 -59.0489 9.17302 -59.0489C9.17301 -59.0489 9.17301 -59.0489 9.17301 -59.0489C9.17301 -59.0489 9.173 -59.0489 9.173 -59.0489C9.173 -59.0489 9.173 -59.0489 9.17299 -59.0489C9.17299 -59.0489 9.17299 -59.0489 9.17298 -59.0489C9.17298 -59.0489 9.17298 -59.0489 9.17298 -59.0489C9.17297 -59.0489 9.17297 -59.0489 9.17297 -59.0489C9.17296 -59.0489 9.17296 -59.0489 9.17296 -59.0489C9.17296 -59.0489 9.17295 -59.0489 9.17295 -59.0489C9.17295 -59.0489 9.17294 -59.0489 9.17294 -59.0489C9.17294 -59.0489 9.17294 -59.0489 9.17293 -59.0489C9.17293 -59.0489 9.17293 -59.0489 9.17292 -59.0489C9.17292 -59.0489 9.17292 -59.0489 9.17292 -59.0489C9.17291 -59.0489 9.17291 -59.0489 9.17291 -59.0489C9.1729 -59.0489 9.1729 -59.0489 9.1729 -59.0489C9.1729 -59.0489 9.17289 -59.0489 9.17289 -59.0489C9.17289 -59.0489 9.17288 -59.0489 9.17288 -59.0489C9.17288 -59.0489 9.17288 -59.0489 9.17287 -59.0489C9.17287 -59.0489 9.17287 -59.0489 9.17286 -59.0489C9.17286 -59.0489 9.17286 -59.0489 9.17286 -59.0489C9.17285 -59.0489 9.17285 -59.0489 9.17285 -59.0489C9.17284 -59.0489 9.17284 -59.0489 9.17284 -59.0489C9.17284 -59.0489 9.17283 -59.0489 9.17283 -59.0489C9.17283 -59.0489 9.17282 -59.0489 9.17282 -59.0489C9.17282 -59.0489 9.17282 -59.0489 9.17281 -59.0489C9.17281 -59.0489 9.17281 -59.0489 9.1728 -59.0489C9.1728 -59.0489 9.1728 -59.0489 9.1728 -59.0489C9.17279 -59.0489 9.17279 -59.0489 9.17279 -59.0489C9.17278 -59.0489 9.17278 -59.0489 9.17278 -59.0489C9.17278 -59.0489 9.17277 -59.0489 9.17277 -59.0489C9.17277 -59.0489 9.17276 -59.0489 9.17276 -59.0489C9.17276 -59.0489 9.17276 -59.0489 9.17275 -59.0489C9.17275 -59.0489 9.17275 -59.0489 9.17274 -59.0489C9.17274 -59.0489 9.17274 -59.0489 9.17274 -59.0489C9.17273 -59.0489 9.17273 -59.0489 9.17273 -59.0489C9.17272 -59.0489 9.17272 -59.0489 9.17272 -59.0489C9.17271 -59.0489 9.17271 -59.0489 9.17271 -59.0489C9.17271 -59.0489 9.1727 -59.0489 9.1727 -59.0489C9.1727 -59.0489 9.17269 -59.0489 9.17269 -59.0489C9.17269 -59.0489 9.17269 -59.0489 9.17268 -59.0489C9.17268 -59.0489 9.17268 -59.0489 9.17267 -59.0489C9.17267 -59.0489 9.17267 -59.0489 9.17267 -59.0489C9.17266 -59.0489 9.17266 -59.0489 9.17266 -59.0489C9.17265 -59.0489 9.17265 -59.0489 9.17265 -59.0489C9.17264 -59.0489 9.17264 -59.0489 9.17264 -59.0489C9.17264 -59.0489 9.17263 -59.0489 9.17263 -59.0489C9.17263 -59.0489 9.17262 -59.0489 9.17262 -59.0489C9.17262 -59.0489 9.17262 -59.0489 9.17261 -59.0489C9.17261 -59.0489 9.17261 -59.0489 9.1726 -59.0489C9.1726 -59.0489 9.1726 -59.0489 9.17259 -59.0489C9.17259 -59.0489 9.17259 -59.0489 9.17259 -59.0489C9.17258 -59.0489 9.17258 -59.0489 9.17258 -59.0489C9.17257 -59.0489 9.17257 -59.0489 9.17257 -59.0489C9.17257 -59.0489 9.17256 -59.0489 9.17256 -59.0489C9.17256 -59.0489 9.17255 -59.0489 9.17255 -59.0489C9.17255 -59.0489 9.17254 -59.0489 9.17254 -59.0489C9.17254 -59.0489 9.17254 -59.0489 9.17253 -59.0489C9.17253 -59.0489 9.17253 -59.0489 9.17252 -59.0489C9.17252 -59.0489 9.17252 -59.0489 9.17252 -59.0489C9.17251 -59.0489 9.17251 -59.0489 9.17251 -59.0489C9.1725 -59.0489 9.1725 -59.0489 9.1725 -59.0489C9.17249 -59.0489 9.17249 -59.0489 9.17249 -59.0489C9.17249 -59.0489 9.17248 -59.0489 9.17248 -59.0489C9.17248 -59.0489 9.17247 -59.0489 9.17247 -59.0489C9.17247 -59.0489 9.17246 -59.0489 9.17246 -59.0489C9.17246 -59.0489 9.17246 -59.0489 9.17245 -59.0489C9.17245 -59.0489 9.17245 -59.0489 9.17244 -59.0489C9.17244 -59.0489 9.17244 -59.0489 9.17243 -59.0489C9.17243 -59.0489 9.17243 -59.0489 9.17243 -59.0489C9.17242 -59.0489 9.17242 -59.0489 9.17242 -59.0489C9.17241 -59.0489 9.17241 -59.0489 9.17241 -59.0489C9.1724 -59.0489 9.1724 -59.0489 9.1724 -59.0489C9.1724 -59.0489 9.17239 -59.0489 9.17239 -59.0489C9.17239 -59.0489 9.17238 -59.0489 9.17238 -59.0489C9.17238 -59.0489 9.17237 -59.0489 9.17237 -59.0489C9.17237 -59.0489 9.17236 -59.0489 9.17236 -59.0489C9.17236 -59.0489 9.17236 -59.0489 9.17235 -59.0489C9.17235 -59.0489 9.17235 -59.0489 9.17234 -59.0489C9.17234 -59.0489 9.17234 -59.0489 9.17233 -59.0489C9.17233 -59.0489 9.17233 -59.0489 9.17233 -59.0489C9.17232 -59.0489 9.17232 -59.0489 9.17232 -59.0489C9.17231 -59.0489 9.17231 -59.0489 9.17231 -59.0489C9.1723 -59.0489 9.1723 -59.0489 9.1723 -59.0489C9.17229 -59.0489 9.17229 -59.0489 9.17229 -59.0489C9.17229 -59.0489 9.17228 -59.0489 9.17228 -59.0489C9.17228 -59.0489 9.17227 -59.0489 9.17227 -59.0489C9.17227 -59.0489 9.17226 -59.0489 9.17226 -59.0489C9.17226 -59.0489 9.17226 -59.0489 9.17225 -59.0489C9.17225 -59.0489 9.17225 -59.0489 9.17224 -59.0489C9.17224 -59.0489 9.17224 -59.0489 9.17223 -59.0489C9.17223 -59.0489 9.17223 -59.0489 9.17222 -59.0489C9.17222 -59.0489 9.17222 -59.0489 9.17222 -59.0489C9.17221 -59.0489 9.17221 -59.0489 9.17221 -59.0489C9.1722 -59.0489 9.1722 -59.0489 9.1722 -59.0489C9.17219 -59.0489 9.17219 -59.0489 9.17219 -59.0489C9.17218 -59.0489 9.17218 -59.0489 9.17218 -59.0489C9.17218 -59.0489 9.17217 -59.0489 9.17217 -59.0489C9.17217 -59.0489 9.17216 -59.0489 9.17216 -59.0489C9.17216 -59.0489 9.17215 -59.0489 9.17215 -59.0489C9.17215 -59.0489 9.17214 -59.0489 9.17214 -59.0489C9.17214 -59.0489 9.17213 -59.0489 9.17213 -59.0489C9.17213 -59.0489 9.17213 -59.0489 9.17212 -59.0489C9.17212 -59.0489 9.17212 -59.0489 9.17211 -59.0489C9.17211 -59.0489 9.17211 -59.0489 9.1721 -59.0489C9.1721 -59.0489 9.1721 -59.0489 9.17209 -59.0489C9.17209 -59.0489 9.17209 -59.0489 9.17208 -59.0489C9.17208 -59.0489 9.17208 -59.0489 9.17208 -59.0489C9.17207 -59.0489 9.17207 -59.0489 9.17207 -59.0489C9.17206 -59.0489 9.17206 -59.0489 9.17206 -59.0489C9.17205 -59.0489 9.17205 -59.0489 9.17205 -59.0489C9.17204 -59.0489 9.17204 -59.0489 9.17204 -59.0489C9.17203 -59.0489 9.17203 -59.0489 9.17203 -59.0489C9.17203 -59.0489 9.17202 -59.0489 9.17202 -59.0489C9.17202 -59.0489 9.17201 -59.0489 9.17201 -59.0489C9.17201 -59.0489 9.172 -59.0489 9.172 -59.0489C9.172 -59.0489 9.17199 -59.0489 9.17199 -59.0489C9.17199 -59.0489 9.17198 -59.0489 9.17198 -59.0489C9.17198 -59.0489 9.17197 -59.0489 9.17197 -59.0489C9.17197 -59.0489 9.17196 -59.0489 9.17196 -59.0489C9.17196 -59.0489 9.17196 -59.0489 9.17195 -59.0489C9.17195 -59.0489 9.17195 -59.0489 9.17194 -59.0489C9.17194 -59.0489 9.17194 -59.0489 9.17193 -59.0489C9.17193 -59.0489 9.17193 -59.0489 9.17192 -59.0489C9.17192 -59.0489 9.17192 -59.0489 9.17191 -59.0489C9.17191 -59.0489 9.17191 -59.0489 9.1719 -59.0489C9.1719 -59.0489 9.1719 -59.0489 9.17189 -59.0489C9.17189 -59.0489 9.17189 -59.0489 9.17189 -59.0489C9.17188 -59.0489 9.17188 -59.0489 9.17188 -59.0489C9.17187 -59.0489 9.17187 -59.0489 9.17187 -59.0489C9.17186 -59.0489 9.17186 -59.0489 9.17186 -59.0489C9.17185 -59.0489 9.17185 -59.0489 9.17185 -59.0489C9.17184 -59.0489 9.17184 -59.0489 9.17184 -59.0489C9.17183 -59.0489 9.17183 -59.0489 9.17183 -59.0489C9.17182 -59.0489 9.17182 -59.0489 9.17182 -59.0489C9.17181 -59.0489 9.17181 -59.0489 9.17181 -59.0489C9.1718 -59.0489 9.1718 -59.0489 9.1718 -59.0489C9.1718 -59.0489 9.17179 -59.0489 9.17179 -59.0489C9.17179 -59.0489 9.17178 -59.0489 9.17178 -59.0489C9.17178 -59.0489 9.17177 -59.0489 9.17177 -59.0489C9.17177 -59.0489 9.17176 -59.0489 9.17176 -59.0489C9.17176 -59.0489 9.17175 -59.0489 9.17175 -59.0489C9.17175 -59.0489 9.17174 -59.0489 9.17174 -59.0489C9.17174 -59.0489 9.17173 -59.0489 9.17173 -59.0489C9.17173 -59.0489 9.17172 -59.0489 9.17172 -59.0489C9.17172 -59.0489 9.17171 -59.0489 9.17171 -59.0489C9.17171 -59.0489 9.1717 -59.0489 9.1717 -59.0489C9.1717 -59.0489 9.17169 -59.0489 9.17169 -59.0489C9.17169 -59.0489 9.17168 -59.0489 9.17168 -59.0489C9.17168 -59.0489 9.17167 -59.0489 9.17167 -59.0489C9.17167 -59.0489 9.17166 -59.0489 9.17166 -59.0489C9.17166 -59.0489 9.17165 -59.0489 9.17165 -59.0489C9.17165 -59.0489 9.17164 -59.0489 9.17164 -59.0489C9.17164 -59.0489 9.17163 -59.0489 9.17163 -59.0489C9.17163 -59.0489 9.17162 -59.0489 9.17162 -59.0489C9.17162 -59.0489 9.17162 -59.0489 9.17161 -59.0489C9.17161 -59.0489 9.17161 -59.0489 9.1716 -59.0489C9.1716 -59.0489 9.1716 -59.0489 9.17159 -59.0489C9.17159 -59.0489 9.17159 -59.0489 9.17158 -59.0489C9.17158 -59.0489 9.17158 -59.0489 9.17157 -59.0489C9.17157 -59.0489 9.17157 -59.0489 9.17156 -59.0489C9.17156 -59.0489 9.17156 -59.0489 9.17155 -59.0489C9.17155 -59.0489 9.17155 -59.0489 9.17154 -59.0489C9.17154 -59.0489 9.17154 -59.0489 9.17153 -59.0489C9.17153 -59.0489 9.17153 -59.0489 9.17152 -59.0489C9.17152 -59.0489 9.17152 -59.0489 9.17151 -59.0489C9.17151 -59.0489 9.17151 -59.0489 9.1715 -59.0489C9.1715 -59.0489 9.1715 -59.0489 9.17149 -59.0489C9.17149 -59.0489 9.17149 -59.0489 9.17148 -59.0489C9.17148 -59.0489 9.17148 -59.0489 9.17147 -59.0489C9.17147 -59.0489 9.17146 -59.0489 9.17146 -59.0489C9.17146 -59.0489 9.17145 -59.0489 9.17145 -59.0489C9.17145 -59.0489 9.17144 -59.0489 9.17144 -59.0489C9.17144 -59.0489 9.17143 -59.0489 9.17143 -59.0489C9.17143 -59.0489 9.17142 -59.0489 9.17142 -59.0489C9.17142 -59.0489 9.17141 -59.0489 9.17141 -59.0489C9.17141 -59.0489 9.1714 -59.0489 9.1714 -59.0489C9.1714 -59.0489 9.17139 -59.0489 9.17139 -59.0489C9.17139 -59.0489 9.17138 -59.0489 9.17138 -59.0489C9.17138 -59.0489 9.17137 -59.0489 9.17137 -59.0489C9.17137 -59.0489 9.17136 -59.0489 9.17136 -59.0489C9.17136 -59.0489 9.17135 -59.0489 9.17135 -59.0489C9.17135 -59.0489 9.17134 -59.0489 9.17134 -59.0489C9.17134 -59.0489 9.17133 -59.0489 9.17133 -59.0489C9.17133 -59.0489 9.17132 -59.0489 9.17132 -59.0489C9.17132 -59.0489 9.17131 -59.0489 9.17131 -59.0489C9.17131 -59.0489 9.1713 -59.0489 9.1713 -59.0489C9.1713 -59.0489 9.17129 -59.0489 9.17129 -59.0489V100.951C9.17129 100.951 9.1713 100.951 9.1713 100.951C9.1713 100.951 9.17131 100.951 9.17131 100.951C9.17131 100.951 9.17132 100.951 9.17132 100.951C9.17132 100.951 9.17133 100.951 9.17133 100.951C9.17133 100.951 9.17134 100.951 9.17134 100.951C9.17134 100.951 9.17135 100.951 9.17135 100.951C9.17135 100.951 9.17136 100.951 9.17136 100.951C9.17136 100.951 9.17137 100.951 9.17137 100.951C9.17137 100.951 9.17138 100.951 9.17138 100.951C9.17138 100.951 9.17139 100.951 9.17139 100.951C9.17139 100.951 9.1714 100.951 9.1714 100.951C9.1714 100.951 9.17141 100.951 9.17141 100.951C9.17141 100.951 9.17142 100.951 9.17142 100.951C9.17142 100.951 9.17143 100.951 9.17143 100.951C9.17143 100.951 9.17144 100.951 9.17144 100.951C9.17144 100.951 9.17145 100.951 9.17145 100.951C9.17145 100.951 9.17146 100.951 9.17146 100.951C9.17146 100.951 9.17147 100.951 9.17147 100.951C9.17148 100.951 9.17148 100.951 9.17148 100.951C9.17149 100.951 9.17149 100.951 9.17149 100.951C9.1715 100.951 9.1715 100.951 9.1715 100.951C9.17151 100.951 9.17151 100.951 9.17151 100.951C9.17152 100.951 9.17152 100.951 9.17152 100.951C9.17153 100.951 9.17153 100.951 9.17153 100.951C9.17154 100.951 9.17154 100.951 9.17154 100.951C9.17155 100.951 9.17155 100.951 9.17155 100.951C9.17156 100.951 9.17156 100.951 9.17156 100.951C9.17157 100.951 9.17157 100.951 9.17157 100.951C9.17158 100.951 9.17158 100.951 9.17158 100.951C9.17159 100.951 9.17159 100.951 9.17159 100.951C9.1716 100.951 9.1716 100.951 9.1716 100.951C9.17161 100.951 9.17161 100.951 9.17161 100.951C9.17162 100.951 9.17162 100.951 9.17162 100.951C9.17162 100.951 9.17163 100.951 9.17163 100.951C9.17163 100.951 9.17164 100.951 9.17164 100.951C9.17164 100.951 9.17165 100.951 9.17165 100.951C9.17165 100.951 9.17166 100.951 9.17166 100.951C9.17166 100.951 9.17167 100.951 9.17167 100.951C9.17167 100.951 9.17168 100.951 9.17168 100.951C9.17168 100.951 9.17169 100.951 9.17169 100.951C9.17169 100.951 9.1717 100.951 9.1717 100.951C9.1717 100.951 9.17171 100.951 9.17171 100.951C9.17171 100.951 9.17172 100.951 9.17172 100.951C9.17172 100.951 9.17173 100.951 9.17173 100.951C9.17173 100.951 9.17174 100.951 9.17174 100.951C9.17174 100.951 9.17175 100.951 9.17175 100.951C9.17175 100.951 9.17176 100.951 9.17176 100.951C9.17176 100.951 9.17177 100.951 9.17177 100.951C9.17177 100.951 9.17178 100.951 9.17178 100.951C9.17178 100.951 9.17179 100.951 9.17179 100.951C9.17179 100.951 9.1718 100.951 9.1718 100.951C9.1718 100.951 9.1718 100.951 9.17181 100.951C9.17181 100.951 9.17181 100.951 9.17182 100.951C9.17182 100.951 9.17182 100.951 9.17183 100.951C9.17183 100.951 9.17183 100.951 9.17184 100.951C9.17184 100.951 9.17184 100.951 9.17185 100.951C9.17185 100.951 9.17185 100.951 9.17186 100.951C9.17186 100.951 9.17186 100.951 9.17187 100.951C9.17187 100.951 9.17187 100.951 9.17188 100.951C9.17188 100.951 9.17188 100.951 9.17189 100.951C9.17189 100.951 9.17189 100.951 9.17189 100.951C9.1719 100.951 9.1719 100.951 9.1719 100.951C9.17191 100.951 9.17191 100.951 9.17191 100.951C9.17192 100.951 9.17192 100.951 9.17192 100.951C9.17193 100.951 9.17193 100.951 9.17193 100.951C9.17194 100.951 9.17194 100.951 9.17194 100.951C9.17195 100.951 9.17195 100.951 9.17195 100.951C9.17196 100.951 9.17196 100.951 9.17196 100.951C9.17196 100.951 9.17197 100.951 9.17197 100.951C9.17197 100.951 9.17198 100.951 9.17198 100.951C9.17198 100.951 9.17199 100.951 9.17199 100.951C9.17199 100.951 9.172 100.951 9.172 100.951C9.172 100.951 9.17201 100.951 9.17201 100.951C9.17201 100.951 9.17202 100.951 9.17202 100.951C9.17202 100.951 9.17203 100.951 9.17203 100.951C9.17203 100.951 9.17203 100.951 9.17204 100.951C9.17204 100.951 9.17204 100.951 9.17205 100.951C9.17205 100.951 9.17205 100.951 9.17206 100.951C9.17206 100.951 9.17206 100.951 9.17207 100.951C9.17207 100.951 9.17207 100.951 9.17208 100.951C9.17208 100.951 9.17208 100.951 9.17208 100.951C9.17209 100.951 9.17209 100.951 9.17209 100.951C9.1721 100.951 9.1721 100.951 9.1721 100.951C9.17211 100.951 9.17211 100.951 9.17211 100.951C9.17212 100.951 9.17212 100.951 9.17212 100.951C9.17213 100.951 9.17213 100.951 9.17213 100.951C9.17213 100.951 9.17214 100.951 9.17214 100.951C9.17214 100.951 9.17215 100.951 9.17215 100.951C9.17215 100.951 9.17216 100.951 9.17216 100.951C9.17216 100.951 9.17217 100.951 9.17217 100.951C9.17217 100.951 9.17218 100.951 9.17218 100.951C9.17218 100.951 9.17218 100.951 9.17219 100.951C9.17219 100.951 9.17219 100.951 9.1722 100.951C9.1722 100.951 9.1722 100.951 9.17221 100.951C9.17221 100.951 9.17221 100.951 9.17222 100.951C9.17222 100.951 9.17222 100.951 9.17222 100.951C9.17223 100.951 9.17223 100.951 9.17223 100.951C9.17224 100.951 9.17224 100.951 9.17224 100.951C9.17225 100.951 9.17225 100.951 9.17225 100.951C9.17226 100.951 9.17226 100.951 9.17226 100.951C9.17226 100.951 9.17227 100.951 9.17227 100.951C9.17227 100.951 9.17228 100.951 9.17228 100.951C9.17228 100.951 9.17229 100.951 9.17229 100.951C9.17229 100.951 9.17229 100.951 9.1723 100.951C9.1723 100.951 9.1723 100.951 9.17231 100.951C9.17231 100.951 9.17231 100.951 9.17232 100.951C9.17232 100.951 9.17232 100.951 9.17233 100.951C9.17233 100.951 9.17233 100.951 9.17233 100.951C9.17234 100.951 9.17234 100.951 9.17234 100.951C9.17235 100.951 9.17235 100.951 9.17235 100.951C9.17236 100.951 9.17236 100.951 9.17236 100.951C9.17236 100.951 9.17237 100.951 9.17237 100.951C9.17237 100.951 9.17238 100.951 9.17238 100.951C9.17238 100.951 9.17239 100.951 9.17239 100.951C9.17239 100.951 9.1724 100.951 9.1724 100.951C9.1724 100.951 9.1724 100.951 9.17241 100.951C9.17241 100.951 9.17241 100.951 9.17242 100.951C9.17242 100.951 9.17242 100.951 9.17243 100.951C9.17243 100.951 9.17243 100.951 9.17243 100.951C9.17244 100.951 9.17244 100.951 9.17244 100.951C9.17245 100.951 9.17245 100.951 9.17245 100.951C9.17246 100.951 9.17246 100.951 9.17246 100.951C9.17246 100.951 9.17247 100.951 9.17247 100.951C9.17247 100.951 9.17248 100.951 9.17248 100.951C9.17248 100.951 9.17249 100.951 9.17249 100.951C9.17249 100.951 9.17249 100.951 9.1725 100.951C9.1725 100.951 9.1725 100.951 9.17251 100.951C9.17251 100.951 9.17251 100.951 9.17252 100.951C9.17252 100.951 9.17252 100.951 9.17252 100.951C9.17253 100.951 9.17253 100.951 9.17253 100.951C9.17254 100.951 9.17254 100.951 9.17254 100.951C9.17254 100.951 9.17255 100.951 9.17255 100.951C9.17255 100.951 9.17256 100.951 9.17256 100.951C9.17256 100.951 9.17257 100.951 9.17257 100.951C9.17257 100.951 9.17257 100.951 9.17258 100.951C9.17258 100.951 9.17258 100.951 9.17259 100.951C9.17259 100.951 9.17259 100.951 9.17259 100.951C9.1726 100.951 9.1726 100.951 9.1726 100.951C9.17261 100.951 9.17261 100.951 9.17261 100.951C9.17262 100.951 9.17262 100.951 9.17262 100.951C9.17262 100.951 9.17263 100.951 9.17263 100.951C9.17263 100.951 9.17264 100.951 9.17264 100.951C9.17264 100.951 9.17264 100.951 9.17265 100.951C9.17265 100.951 9.17265 100.951 9.17266 100.951C9.17266 100.951 9.17266 100.951 9.17267 100.951C9.17267 100.951 9.17267 100.951 9.17267 100.951C9.17268 100.951 9.17268 100.951 9.17268 100.951C9.17269 100.951 9.17269 100.951 9.17269 100.951C9.17269 100.951 9.1727 100.951 9.1727 100.951C9.1727 100.951 9.17271 100.951 9.17271 100.951C9.17271 100.951 9.17271 100.951 9.17272 100.951C9.17272 100.951 9.17272 100.951 9.17273 100.951C9.17273 100.951 9.17273 100.951 9.17274 100.951C9.17274 100.951 9.17274 100.951 9.17274 100.951C9.17275 100.951 9.17275 100.951 9.17275 100.951C9.17276 100.951 9.17276 100.951 9.17276 100.951C9.17276 100.951 9.17277 100.951 9.17277 100.951C9.17277 100.951 9.17278 100.951 9.17278 100.951C9.17278 100.951 9.17278 100.951 9.17279 100.951C9.17279 100.951 9.17279 100.951 9.1728 100.951C9.1728 100.951 9.1728 100.951 9.1728 100.951C9.17281 100.951 9.17281 100.951 9.17281 100.951C9.17282 100.951 9.17282 100.951 9.17282 100.951C9.17282 100.951 9.17283 100.951 9.17283 100.951C9.17283 100.951 9.17284 100.951 9.17284 100.951C9.17284 100.951 9.17284 100.951 9.17285 100.951C9.17285 100.951 9.17285 100.951 9.17286 100.951C9.17286 100.951 9.17286 100.951 9.17286 100.951C9.17287 100.951 9.17287 100.951 9.17287 100.951C9.17288 100.951 9.17288 100.951 9.17288 100.951C9.17288 100.951 9.17289 100.951 9.17289 100.951C9.17289 100.951 9.1729 100.951 9.1729 100.951C9.1729 100.951 9.1729 100.951 9.17291 100.951C9.17291 100.951 9.17291 100.951 9.17292 100.951C9.17292 100.951 9.17292 100.951 9.17292 100.951C9.17293 100.951 9.17293 100.951 9.17293 100.951C9.17294 100.951 9.17294 100.951 9.17294 100.951C9.17294 100.951 9.17295 100.951 9.17295 100.951C9.17295 100.951 9.17296 100.951 9.17296 100.951C9.17296 100.951 9.17296 100.951 9.17297 100.951C9.17297 100.951 9.17297 100.951 9.17298 100.951C9.17298 100.951 9.17298 100.951 9.17298 100.951C9.17299 100.951 9.17299 100.951 9.17299 100.951C9.173 100.951 9.173 100.951 9.173 100.951C9.173 100.951 9.17301 100.951 9.17301 100.951C9.17301 100.951 9.17301 100.951 9.17302 100.951C9.17302 100.951 9.17302 100.951 9.17303 100.951C9.17303 100.951 9.17303 100.951 9.17303 100.951C9.17304 100.951 9.17304 100.951 9.17304 100.951C9.17305 100.951 9.17305 100.951 9.17305 100.951C9.17305 100.951 9.17306 100.951 9.17306 100.951C9.17306 100.951 9.17307 100.951 9.17307 100.951C9.17307 100.951 9.17307 100.951 9.17308 100.951C9.17308 100.951 9.17308 100.951 9.17308 100.951C9.17309 100.951 9.17309 100.951 9.17309 100.951C9.1731 100.951 9.1731 100.951 9.1731 100.951C9.1731 100.951 9.17311 100.951 9.17311 100.951C9.17311 100.951 9.17312 100.951 9.17312 100.951C9.17312 100.951 9.17312 100.951 9.17313 100.951C9.17313 100.951 9.17313 100.951 9.17313 100.951C9.17314 100.951 9.17314 100.951 9.17314 100.951C9.17315 100.951 9.17315 100.951 9.17315 100.951C9.17315 100.951 9.17316 100.951 9.17316 100.951C9.17316 100.951 9.17317 100.951 9.17317 100.951C9.17317 100.951 9.17317 100.951 9.17318 100.951C9.17318 100.951 9.17318 100.951 9.17318 100.951C9.17319 100.951 9.17319 100.951 9.17319 100.951C9.1732 100.951 9.1732 100.951 9.1732 100.951C9.1732 100.951 9.17321 100.951 9.17321 100.951C9.17321 100.951 9.17321 100.951 9.17322 100.951C9.17322 100.951 9.17322 100.951 9.17323 100.951C9.17323 100.951 9.17323 100.951 9.17323 100.951C9.17324 100.951 9.17324 100.951 9.17324 100.951C9.17324 100.951 9.17325 100.951 9.17325 100.951C9.17325 100.951 9.17326 100.951 9.17326 100.951C9.17326 100.951 9.17326 100.951 9.17327 100.951C9.17327 100.951 9.17327 100.951 9.17327 100.951C9.17328 100.951 9.17328 100.951 9.17328 100.951C9.17329 100.951 9.17329 100.951 9.17329 100.951C9.17329 100.951 9.1733 100.951 9.1733 100.951C9.1733 100.951 9.1733 100.951 9.17331 100.951C9.17331 100.951 9.17331 100.951 9.17332 100.951C9.17332 100.951 9.17332 100.951 9.17332 100.951C9.17333 100.951 9.17333 100.951 9.17333 100.951C9.17333 100.951 9.17334 100.951 9.17334 100.951C9.17334 100.951 9.17335 100.951 9.17335 100.951C9.17335 100.951 9.17335 100.951 9.17336 100.951C9.17336 100.951 9.17336 100.951 9.17336 100.951C9.17337 100.951 9.17337 100.951 9.17337 100.951C9.17337 100.951 9.17338 100.951 9.17338 100.951C9.17338 100.951 9.17339 100.951 9.17339 100.951C9.17339 100.951 9.17339 100.951 9.1734 100.951C9.1734 100.951 9.1734 100.951 9.1734 100.951C9.17341 100.951 9.17341 100.951 9.17341 100.951C9.17342 100.951 9.17342 100.951 9.17342 100.951C9.17342 100.951 9.17343 100.951 9.17343 100.951C9.17343 100.951 9.17343 100.951 9.17344 100.951C9.17344 100.951 9.17344 100.951 9.17344 100.951C9.17345 100.951 9.17345 100.951 9.17345 100.951C9.17346 100.951 9.17346 100.951 9.17346 100.951C9.17346 100.951 9.17347 100.951 9.17347 100.951C9.17347 100.951 9.17347 100.951 9.17348 100.951C9.17348 100.951 9.17348 100.951 9.17348 100.951C9.17349 100.951 9.17349 100.951 9.17349 100.951C9.1735 100.951 9.1735 100.951 9.1735 100.951C9.1735 100.951 9.17351 100.951 9.17351 100.951C9.17351 100.951 9.17351 100.951 9.17352 100.951C9.17352 100.951 9.17352 100.951 9.17352 100.951C9.17353 100.951 9.17353 100.951 9.17353 100.951C9.17354 100.951 9.17354 100.951 9.17354 100.951C9.17354 100.951 9.17355 100.951 9.17355 100.951C9.17355 100.951 9.17355 100.951 9.17356 100.951C9.17356 100.951 9.17356 100.951 9.17356 100.951C9.17357 100.951 9.17357 100.951 9.17357 100.951C9.17357 100.951 9.17358 100.951 9.17358 100.951C9.17358 100.951 9.17359 100.951 9.17359 100.951C9.17359 100.951 9.17359 100.951 9.1736 100.951C9.1736 100.951 9.1736 100.951 9.1736 100.951C9.17361 100.951 9.17361 100.951 9.17361 100.951C9.17361 100.951 9.17362 100.951 9.17362 100.951C9.17362 100.951 9.17362 100.951 9.17363 100.951C9.17363 100.951 9.17363 100.951 9.17364 100.951C9.17364 100.951 9.17364 100.951 9.17364 100.951C9.17365 100.951 9.17365 100.951 9.17365 100.951C9.17365 100.951 9.17366 100.951 9.17366 100.951C9.17366 100.951 9.17366 100.951 9.17367 100.951C9.17367 100.951 9.17367 100.951 9.17367 100.951C9.17368 100.951 9.17368 100.951 9.17368 100.951C9.17368 100.951 9.17369 100.951 9.17369 100.951C9.17369 100.951 9.1737 100.951 9.1737 100.951C9.1737 100.951 9.1737 100.951 9.17371 100.951C9.17371 100.951 9.17371 100.951 9.17371 100.951C9.17372 100.951 9.17372 100.951 9.17372 100.951C9.17372 100.951 9.17373 100.951 9.17373 100.951C9.17373 100.951 9.17373 100.951 9.17374 100.951C9.17374 100.951 9.17374 100.951 9.17374 100.951C9.17375 100.951 9.17375 100.951 9.17375 100.951C9.17375 100.951 9.17376 100.951 9.17376 100.951C9.17376 100.951 9.17377 100.951 9.17377 100.951C9.17377 100.951 9.17377 100.951 9.17378 100.951C9.17378 100.951 9.17378 100.951 9.17378 100.951C9.17379 100.951 9.17379 100.951 9.17379 100.951C9.17379 100.951 9.1738 100.951 9.1738 100.951C9.1738 100.951 9.1738 100.951 9.17381 100.951C9.17381 100.951 9.17381 100.951 9.17381 100.951C9.17382 100.951 9.17382 100.951 9.17382 100.951C9.17382 100.951 9.17383 100.951 9.17383 100.951C9.17383 100.951 9.17383 100.951 9.17384 100.951C9.17384 100.951 9.17384 100.951 9.17385 100.951C9.17385 100.951 9.17385 100.951 9.17385 100.951C9.17386 100.951 9.17386 100.951 9.17386 100.951C9.17386 100.951 9.17387 100.951 9.17387 100.951C9.17387 100.951 9.17387 100.951 9.17388 100.951C9.17388 100.951 9.17388 100.951 9.17388 100.951C9.17389 100.951 9.17389 100.951 9.17389 100.951C9.17389 100.951 9.1739 100.951 9.1739 100.951C9.1739 100.951 9.1739 100.951 9.17391 100.951C9.17391 100.951 9.17391 100.951 9.17391 100.951C9.17392 100.951 9.17392 100.951 9.17392 100.951C9.17392 100.951 9.17393 100.951 9.17393 100.951C9.17393 100.951 9.17393 100.951 9.17394 100.951C9.17394 100.951 9.17394 100.951 9.17394 100.951C9.17395 100.951 9.17395 100.951 9.17395 100.951C9.17395 100.951 9.17396 100.951 9.17396 100.951C9.17396 100.951 9.17396 100.951 9.17397 100.951C9.17397 100.951 9.17397 100.951 9.17397 100.951C9.17398 100.951 9.17398 100.951 9.17398 100.951C9.17398 100.951 9.17399 100.951 9.17399 100.951C9.17399 100.951 9.174 100.951 9.174 100.951C9.174 100.951 9.174 100.951 9.17401 100.951C9.17401 100.951 9.17401 100.951 9.17401 100.951C9.17402 100.951 9.17402 100.951 9.17402 100.951C9.17402 100.951 9.17403 100.951 9.17403 100.951C9.17403 100.951 9.17403 100.951 9.17404 100.951C9.17404 100.951 9.17404 100.951 9.17404 100.951C9.17405 100.951 9.17405 100.951 9.17405 100.951C9.17405 100.951 9.17406 100.951 9.17406 100.951C9.17406 100.951 9.17406 100.951 9.17407 100.951C9.17407 100.951 9.17407 100.951 9.17407 100.951C9.17408 100.951 9.17408 100.951 9.17408 100.951C9.17408 100.951 9.17409 100.951 9.17409 100.951C9.17409 100.951 9.17409 100.951 9.1741 100.951C9.1741 100.951 9.1741 100.951 9.1741 100.951C9.17411 100.951 9.17411 100.951 9.17411 100.951C9.17411 100.951 9.17412 100.951 9.17412 100.951C9.17412 100.951 9.17412 100.951 9.17413 100.951C9.17413 100.951 9.17413 100.951 9.17413 100.951C9.17414 100.951 9.17414 100.951 9.17414 100.951C9.17414 100.951 9.17415 100.951 9.17415 100.951C9.17415 100.951 9.17415 100.951 9.17416 100.951C9.17416 100.951 9.17416 100.951 9.17416 100.951C9.17417 100.951 9.17417 100.951 9.17417 100.951C9.17417 100.951 9.17418 100.951 9.17418 100.951C9.17418 100.951 9.17418 100.951 9.17419 100.951C9.17419 100.951 9.17419 100.951 9.17419 100.951C9.1742 100.951 9.1742 100.951 9.1742 100.951C9.1742 100.951 9.1742 100.951 9.17421 100.951C9.17421 100.951 9.17421 100.951 9.17421 100.951C9.17422 100.951 9.17422 100.951 9.17422 100.951C9.17422 100.951 9.17423 100.951 9.17423 100.951C9.17423 100.951 9.17423 100.951 9.17424 100.951C9.17424 100.951 9.17424 100.951 9.17424 100.951C9.17425 100.951 9.17425 100.951 9.17425 100.951C9.17425 100.951 9.17426 100.951 9.17426 100.951C9.17426 100.951 9.17426 100.951 9.17427 100.951C9.17427 100.951 9.17427 100.951 9.17427 100.951C9.17428 100.951 9.17428 100.951 9.17428 100.951C9.17428 100.951 9.17429 100.951 9.17429 100.951C9.17429 100.951 9.17429 100.951 9.1743 100.951C9.1743 100.951 9.1743 100.951 9.1743 100.951C9.17431 100.951 9.17431 100.951 9.17431 100.951C9.17431 100.951 9.17432 100.951 9.17432 100.951C9.17432 100.951 9.17432 100.951 9.17433 100.951C9.17433 100.951 9.17433 100.951 9.17433 100.951C9.17434 100.951 9.17434 100.951 9.17434 100.951C9.17434 100.951 9.17435 100.951 9.17435 100.951C9.17435 100.951 9.17435 100.951 9.17435 100.951C9.17436 100.951 9.17436 100.951 9.17436 100.951C9.17436 100.951 9.17437 100.951 9.17437 100.951C9.17437 100.951 9.17437 100.951 9.17438 100.951C9.17438 100.951 9.17438 100.951 9.17438 100.951C9.17439 100.951 9.17439 100.951 9.17439 100.951C9.17439 100.951 9.1744 100.951 9.1744 100.951C9.1744 100.951 9.1744 100.951 9.17441 100.951C9.17441 100.951 9.17441 100.951 9.17441 100.951C9.17442 100.951 9.17442 100.951 9.17442 100.951C9.17442 100.951 9.17443 100.951 9.17443 100.951C9.17443 100.951 9.17443 100.951 9.17444 100.951C9.17444 100.951 9.17444 100.951 9.17444 100.951C9.17444 100.951 9.17445 100.951 9.17445 100.951C9.17445 100.951 9.17445 100.951 9.17446 100.951C9.17446 100.951 9.17446 100.951 9.17446 100.951C9.17447 100.951 9.17447 100.951 9.17447 100.951C9.17447 100.951 9.17448 100.951 9.17448 100.951C9.17448 100.951 9.17448 100.951 9.17449 100.951C9.17449 100.951 9.17449 100.951 9.17449 100.951C9.1745 100.951 9.1745 100.951 9.1745 100.951C9.1745 100.951 9.17451 100.951 9.17451 100.951C9.17451 100.951 9.17451 100.951 9.17452 100.951C9.17452 100.951 9.17452 100.951 9.17452 100.951C9.17452 100.951 9.17453 100.951 9.17453 100.951C9.17453 100.951 9.17453 100.951 9.17454 100.951C9.17454 100.951 9.17454 100.951 9.17454 100.951C9.17455 100.951 9.17455 100.951 9.17455 100.951C9.17455 100.951 9.17456 100.951 9.17456 100.951C9.17456 100.951 9.17456 100.951 9.17457 100.951C9.17457 100.951 9.17457 100.951 9.17457 100.951C9.17458 100.951 9.17458 100.951 9.17458 100.951C9.17458 100.951 9.17458 100.951 9.17459 100.951C9.17459 100.951 9.17459 100.951 9.17459 100.951C9.1746 100.951 9.1746 100.951 9.1746 100.951C9.1746 100.951 9.17461 100.951 9.17461 100.951C9.17461 100.951 9.17461 100.951 9.17462 100.951C9.17462 100.951 9.17462 100.951 9.17462 100.951C9.17463 100.951 9.17463 100.951 9.17463 100.951C9.17463 100.951 9.17463 100.951 9.17464 100.951C9.17464 100.951 9.17464 100.951 9.17464 100.951C9.17465 100.951 9.17465 100.951 9.17465 100.951C9.17465 100.951 9.17466 100.951 9.17466 100.951C9.17466 100.951 9.17466 100.951 9.17467 100.951C9.17467 100.951 9.17467 100.951 9.17467 100.951C9.17468 100.951 9.17468 100.951 9.17468 100.951C9.17468 100.951 9.17469 100.951 9.17469 100.951C9.17469 100.951 9.17469 100.951 9.17469 100.951C9.1747 100.951 9.1747 100.951 9.1747 100.951C9.1747 100.951 9.17471 100.951 9.17471 100.951C9.17471 100.951 9.17471 100.951 9.17472 100.951C9.17472 100.951 9.17472 100.951 9.17472 100.951C9.17473 100.951 9.17473 100.951 9.17473 100.951C9.17473 100.951 9.17473 100.951 9.17474 100.951C9.17474 100.951 9.17474 100.951 9.17474 100.951C9.17475 100.951 9.17475 100.951 9.17475 100.951C9.17475 100.951 9.17476 100.951 9.17476 100.951C9.17476 100.951 9.17476 100.951 9.17477 100.951C9.17477 100.951 9.17477 100.951 9.17477 100.951C9.17478 100.951 9.17478 100.951 9.17478 100.951C9.17478 100.951 9.17478 100.951 9.17479 100.951C9.17479 100.951 9.17479 100.951 9.17479 100.951C9.1748 100.951 9.1748 100.951 9.1748 100.951C9.1748 100.951 9.17481 100.951 9.17481 100.951C9.17481 100.951 9.17481 100.951 9.17482 100.951C9.17482 100.951 9.17482 100.951 9.17482 100.951C9.17482 100.951 9.17483 100.951 9.17483 100.951C9.17483 100.951 9.17483 100.951 9.17484 100.951C9.17484 100.951 9.17484 100.951 9.17484 100.951C9.17485 100.951 9.17485 100.951 9.17485 100.951C9.17485 100.951 9.17486 100.951 9.17486 100.951C9.17486 100.951 9.17486 100.951 9.17486 100.951C9.17487 100.951 9.17487 100.951 9.17487 100.951C9.17487 100.951 9.17488 100.951 9.17488 100.951C9.17488 100.951 9.17488 100.951 9.17489 100.951C9.17489 100.951 9.17489 100.951 9.17489 100.951C9.1749 100.951 9.1749 100.951 9.1749 100.951C9.1749 100.951 9.1749 100.951 9.17491 100.951C9.17491 100.951 9.17491 100.951 9.17491 100.951C9.17492 100.951 9.17492 100.951 9.17492 100.951C9.17492 100.951 9.17493 100.951 9.17493 100.951C9.17493 100.951 9.17493 100.951 9.17494 100.951C9.17494 100.951 9.17494 100.951 9.17494 100.951C9.17494 100.951 9.17495 100.951 9.17495 100.951C9.17495 100.951 9.17495 100.951 9.17496 100.951C9.17496 100.951 9.17496 100.951 9.17496 100.951C9.17497 100.951 9.17497 100.951 9.17497 100.951C9.17497 100.951 9.17497 100.951 9.17498 100.951C9.17498 100.951 9.17498 100.951 9.17498 100.951C9.17499 100.951 9.17499 100.951 9.17499 100.951C9.17499 100.951 9.175 100.951 9.175 100.951C9.175 100.951 9.175 100.951 9.17501 100.951C9.17501 100.951 9.17501 100.951 9.17501 100.951C9.17501 100.951 9.17502 100.951 9.17502 100.951C9.17502 100.951 9.17502 100.951 9.17503 100.951C9.17503 100.951 9.17503 100.951 9.17503 100.951C9.17504 100.951 9.17504 100.951 9.17504 100.951C9.17504 100.951 9.17504 100.951 9.17505 100.951C9.17505 100.951 9.17505 100.951 9.17505 100.951C9.17506 100.951 9.17506 100.951 9.17506 100.951C9.17506 100.951 9.17507 100.951 9.17507 100.951C9.17507 100.951 9.17507 100.951 9.17508 100.951C9.17508 100.951 9.17508 100.951 9.17508 100.951C9.17508 100.951 9.17509 100.951 9.17509 100.951C9.17509 100.951 9.17509 100.951 9.1751 100.951C9.1751 100.951 9.1751 100.951 9.1751 100.951C9.17511 100.951 9.17511 100.951 9.17511 100.951C9.17511 100.951 9.17511 100.951 9.17512 100.951C9.17512 100.951 9.17512 100.951 9.17512 100.951C9.17513 100.951 9.17513 100.951 9.17513 100.951C9.17513 100.951 9.17514 100.951 9.17514 100.951C9.17514 100.951 9.17514 100.951 9.17514 100.951C9.17515 100.951 9.17515 100.951 9.17515 100.951C9.17515 100.951 9.17516 100.951 9.17516 100.951C9.17516 100.951 9.17516 100.951 9.17517 100.951C9.17517 100.951 9.17517 100.951 9.17517 100.951C9.17517 100.951 9.17518 100.951 9.17518 100.951C9.17518 100.951 9.17518 100.951 9.17519 100.951C9.17519 100.951 9.17519 100.951 9.17519 100.951C9.1752 100.951 9.1752 100.951 9.1752 100.951C9.1752 100.951 9.1752 100.951 9.17521 100.951C9.17521 100.951 9.17521 100.951 9.17521 100.951C9.17522 100.951 9.17522 100.951 9.17522 100.951C9.17522 100.951 9.17523 100.951 9.17523 100.951C9.17523 100.951 9.17523 100.951 9.17523 100.951C9.17524 100.951 9.17524 100.951 9.17524 100.951C9.17524 100.951 9.17525 100.951 9.17525 100.951C9.17525 100.951 9.17525 100.951 9.17526 100.951C9.17526 100.951 9.17526 100.951 9.17526 100.951C9.17526 100.951 9.17527 100.951 9.17527 100.951C9.17527 100.951 9.17527 100.951 9.17528 100.951C9.17528 100.951 9.17528 100.951 9.17528 100.951C9.17529 100.951 9.17529 100.951 9.17529 100.951C9.17529 100.951 9.17529 100.951 9.1753 100.951C9.1753 100.951 9.1753 100.951 9.1753 100.951C9.17531 100.951 9.17531 100.951 9.17531 100.951C9.17531 100.951 9.17532 100.951 9.17532 100.951C9.17532 100.951 9.17532 100.951 9.17532 100.951C9.17533 100.951 9.17533 100.951 9.17533 100.951C9.17533 100.951 9.17534 100.951 9.17534 100.951C9.17534 100.951 9.17534 100.951 9.17535 100.951C9.17535 100.951 9.17535 100.951 9.17535 100.951C9.17535 100.951 9.17536 100.951 9.17536 100.951C9.17536 100.951 9.17536 100.951 9.17537 100.951C9.17537 100.951 9.17537 100.951 9.17537 100.951C9.17537 100.951 9.17538 100.951 9.17538 100.951C9.17538 100.951 9.17538 100.951 9.17539 100.951C9.17539 100.951 9.17539 100.951 9.17539 100.951C9.1754 100.951 9.1754 100.951 9.1754 100.951C9.1754 100.951 9.1754 100.951 9.17541 100.951C9.17541 100.951 9.17541 100.951 9.17541 100.951C9.17542 100.951 9.17542 100.951 9.17542 100.951C9.17542 100.951 9.17543 100.951 9.17543 100.951C9.17543 100.951 9.17543 100.951 9.17543 100.951C9.17544 100.951 9.17544 100.951 9.17544 100.951C9.17544 100.951 9.17545 100.951 9.17545 100.951V-59.0489ZM9.17129 -59.0489C14.0116 -59.0489 24.3006 -58.6587 36.3144 -54.0146C49.6625 -48.8546 66.4271 -37.7233 76.5513 -17.3163L-66.779 53.792C-43.1624 101.395 5.36112 100.951 9.17129 100.951V-59.0489ZM1.43563 98.1634C5.08688 98.321 21.6277 99.1446 40.0674 90.6493L-26.8823 -54.6701C-17.2925 -59.0882 -8.84975 -60.6147 -3.71238 -61.2264C1.6216 -61.8616 5.90341 -61.7928 8.33667 -61.6877L1.43563 98.1634ZM40.1082 90.6305C71.0948 76.3336 90.4075 43.5505 86.4396 8.39704L-72.5508 26.343C-76.4596 -8.28621 -57.4302 -40.5757 -26.9231 -54.6513L40.1082 90.6305ZM86.4398 8.39902C82.4909 -26.5933 56.5005 -54.371 22.9564 -61.439L-10.0321 95.1234C-43.0595 88.1643 -68.6614 60.8089 -72.551 26.341L86.4398 8.39902ZM23.0279 -61.4239C28.2252 -60.3238 39.0953 -57.5399 50.5763 -49.4915C63.9532 -40.1142 78.3266 -23.0854 81.7931 1.34305L-76.6199 23.8226C-68.1875 83.2456 -12.9491 94.506 -10.1036 95.1083L23.0279 -61.4239ZM-28.1777 86.4311C-21.0147 89.4151 -4.72953 95.1046 16.1663 91.9747L-7.53497 -66.26C12.131 -69.2057 27.1797 -63.8362 33.3509 -61.2654L-28.1777 86.4311ZM16.132 91.9799C47.4443 87.3036 72.857 64.8222 81.6085 34.8358L-71.9841 -9.98981C-63.3664 -39.5176 -38.3406 -61.6595 -7.50068 -66.2652L16.132 91.9799ZM81.6219 34.7898C90.4437 4.49474 80.7621 -27.9947 57.1573 -48.5463L-47.906 72.1256C-71.1502 51.888 -80.686 19.8933 -71.9975 -9.94379L81.6219 34.7898ZM57.0886 -48.6061C60.4857 -45.6551 67.7777 -38.9067 73.6951 -27.8462C80.3116 -15.4789 87.8458 8.23966 77.1545 35.0735L-71.4823 -24.1472C-83.5673 6.1846 -75.2081 33.0058 -67.3833 47.6315C-60.2576 60.9504 -51.3741 69.1131 -47.8373 72.1854L57.0886 -48.6061ZM-54.8756 60.8649C-51.1755 64.7193 -43.9614 71.6439 -33.485 77.8616C-23.2379 83.9433 -4.68463 92.388 19.4752 91.003L10.3181 -68.7347C28.7725 -69.7926 42.1205 -63.3241 48.1761 -59.73C54.461 -55.9999 58.4976 -52.0744 60.5478 -49.9387L-54.8756 60.8649ZM19.498 91.0017C43.5642 89.6152 65.6417 77.5473 79.8142 58.2666L-49.1044 -36.4963C-35.1481 -55.4829 -13.4068 -67.3679 10.2953 -68.7334L19.498 91.0017ZM79.8387 58.2332C94.0437 38.8873 98.9155 14.1742 93.0285 -9.18022L-62.1184 29.9277C-67.9162 6.92701 -63.1179 -17.4112 -49.1289 -36.4629L79.8387 58.2332ZM93.0465 -9.10896C94.5391 -3.16419 95.2928 2.93752 95.2928 9.06018H-64.7072C-64.7072 16.0689 -63.8443 23.0543 -62.1363 29.8564L93.0465 -9.10896ZM95.2928 9.06018C95.2928 49.1123 63.0169 83.7954 20.473 83.7954V-76.2046C-27.784 -76.2046 -64.7072 -36.7981 -64.7072 9.06018H95.2928ZM20.473 83.7954C-0.00572721 83.7954 -19.3371 75.4165 -33.2534 61.0736L81.5786 -50.3428C65.6975 -66.7108 43.7457 -76.2046 20.473 -76.2046V83.7954ZM-33.2961 61.0295C-18.3679 76.4391 1.95092 85.1399 23.0879 85.5373L26.0954 -74.4345C46.9082 -74.0432 66.9185 -65.4756 81.6214 -50.2987L-33.2961 61.0295ZM23.8296 85.5478C30.8598 85.6147 42.1528 84.8757 55.0318 80.0853L-0.7472 -69.877C10.026 -73.8841 19.4552 -74.5012 25.3537 -74.445L23.8296 85.5478ZM-33.6919 -46.8497C-30.1302 -51.0202 -26.6135 -54.1941 -23.6346 -56.5334L75.185 69.3025C79.392 65.9987 83.7868 61.9638 87.9765 57.058L-33.6919 -46.8497ZM-23.6628 -56.5113C-51.6 -34.5518 -61.8689 3.11823 -48.9226 36.2248L100.089 -22.0464C112.839 10.5573 102.726 47.6545 75.2132 69.2804L-23.6628 -56.5113ZM-48.9103 36.2562C-36.0699 69.051 -2.8878 90.475 33.4977 87.143L18.9069 -72.1903C54.764 -75.4739 87.4337 -54.3686 100.077 -22.0778L-48.9103 36.2562ZM32.5459 87.2244C34.3462 87.0812 38.4572 86.7037 43.532 85.6744L11.7264 -71.1325C13.7371 -71.5403 15.4072 -71.7846 16.586 -71.9348C17.7997 -72.0895 18.8966 -72.1952 19.8587 -72.2718L32.5459 87.2244ZM-30.6427 -47.5413C-29.5144 -48.7408 -28.6428 -49.5671 -28.1775 -49.995L80.1248 67.7786C82.021 66.0348 83.967 64.1394 85.9011 62.0832L-30.6427 -47.5413Z" fill="black" mask="url(#path-1-inside-1_363_424)"/>
</g>
<defs>
<clipPath id="clip0_363_424">
<rect width="30" height="30" fill="white"/>
</clipPath>
</defs>
</svg>
