<svg width="30" height="30" viewBox="0 0 30 30" fill="none" xmlns="http://www.w3.org/2000/svg">
<g clip-path="url(#clip0_363_405)">
<path d="M14.2724 0.0173493C6.34946 0.394596 0.0971275 6.99289 0.121163 14.9248C0.128481 17.3407 0.711714 19.621 1.74057 21.6358L0.160911 29.3036C0.0754599 29.7184 0.44955 30.0815 0.861593 29.984L8.37517 28.2039C10.3055 29.1654 12.4737 29.7208 14.7684 29.7558C22.8664 29.8795 29.6188 23.4495 29.8712 15.3544C30.1418 6.67713 22.9801 -0.397349 14.2724 0.0173493ZM23.2377 23.1167C21.0373 25.3171 18.1117 26.5289 14.9999 26.5289C13.1778 26.5289 11.4333 26.1201 9.81478 25.3139L8.76842 24.7926L4.16182 25.8841L5.13148 21.1769L4.61598 20.1675C3.77575 18.5219 3.34971 16.7425 3.34971 14.8788C3.34971 11.7669 4.56152 8.84131 6.76194 6.64083C8.94269 4.46007 11.916 3.22854 15.0001 3.22854C18.1119 3.22861 21.0374 4.44042 23.2378 6.64076C25.4382 8.84117 26.65 11.7667 26.6501 14.8785C26.65 17.9627 25.4185 20.936 23.2377 23.1167Z" fill="black"/>
<path d="M22.2206 18.1055L19.3385 17.278C18.9596 17.1692 18.5516 17.2767 18.2755 17.558L17.5708 18.2761C17.2736 18.5788 16.8226 18.6761 16.4293 18.517C15.066 17.9652 12.1981 15.4153 11.4657 14.1399C11.2544 13.772 11.2894 13.312 11.5488 12.9763L12.1641 12.1803C12.4052 11.8684 12.456 11.4495 12.2966 11.089L11.0841 8.3466C10.7937 7.68975 9.95429 7.49855 9.40592 7.96232C8.60157 8.64263 7.64718 9.67643 7.53117 10.8217C7.32662 12.841 8.19261 15.3864 11.4674 18.4429C15.2506 21.9739 18.2802 22.4404 20.2527 21.9626C21.3716 21.6916 22.2657 20.6052 22.83 19.7157C23.2147 19.1092 22.9109 18.3037 22.2206 18.1055Z" fill="black"/>
</g>
<defs>
<clipPath id="clip0_363_405">
<rect width="30" height="30" fill="white"/>
</clipPath>
</defs>
</svg>
