<svg width="32" height="32" viewBox="0 0 32 32" xmlns="http://www.w3.org/2000/svg">
<g clip-path="url(#clip0_605_488)">
<path d="M31.859 14.2059C31.859 14.1749 31.855 14.1539 31.851 14.1229C31.849 14.0639 31.845 14.0309 31.845 14.0309H31.824C31.56 13.2569 29.753 12.5639 26.978 12.0579L31.308 5.10491C31.874 4.19291 31.658 2.99891 30.806 2.34591L30.218 1.89591C29.401 1.27091 28.249 1.33291 27.507 2.04391L17.894 11.2379C17.25 11.2219 16.596 11.2149 15.932 11.2149C7.484 11.2149 0.573 12.4569 0.038 14.0289H0.015C0.015 14.0289 0.012 14.0609 0.01 14.1189C0.004 14.1509 0 14.1779 0 14.2099C0 14.2269 0.002 14.2409 0.003 14.2579C0.002 14.3199 0 14.3749 0 14.4079C0 23.2059 7.132 30.3929 15.929 30.3929C24.726 30.3929 31.858 23.1759 31.858 14.3779C31.858 14.3479 31.857 14.2989 31.855 14.2479C31.857 14.2359 31.859 14.2219 31.859 14.2059ZM26.654 4.33391C27.073 4.33391 27.413 4.67391 27.413 5.09191C27.413 5.51091 27.074 5.84991 26.654 5.84991C26.236 5.84991 25.896 5.51091 25.896 5.09191C25.896 4.67391 26.236 4.33391 26.654 4.33391ZM24.596 6.08491C24.829 5.85091 25.21 5.85091 25.445 6.08691C25.678 6.32191 25.678 6.70191 25.444 6.93591L18.602 13.7609C18.484 13.8789 18.331 13.9359 18.178 13.9359C18.024 13.9359 17.869 13.8779 17.752 13.7599C17.518 13.5259 17.518 13.1449 17.753 12.9109L24.596 6.08491ZM15.93 17.2179C8.673 17.2179 2.79 16.1989 2.79 14.9419C2.79 13.6859 8.673 12.6669 15.93 12.6669C16.087 12.6669 16.242 12.6669 16.398 12.6679L13.219 15.7089C13.219 15.7089 19.189 16.3309 24.82 15.5249L26.083 13.4979C27.949 13.8909 29.07 14.3939 29.07 14.9419C29.07 16.1989 23.188 17.2179 15.93 17.2179Z"/>
</g>
<defs>
<clipPath id="clip0_605_488">
<rect width="31.859" height="31.859"/>
</clipPath>
</defs>
</svg>
