<svg width="33" height="33" viewBox="0 0 33 33" xmlns="http://www.w3.org/2000/svg">
<g clip-path="url(#clip0_610_553)">
<path d="M21.3907 8.92555L18.7109 8.53613L17.5126 6.10786C17.0992 5.27029 15.901 5.26978 15.4874 6.10786L14.289 8.53613L11.6092 8.92555C10.685 9.05987 10.3142 10.1992 10.9835 10.8515L12.9226 12.7416L12.4649 15.4106C12.307 16.3311 13.276 17.0358 14.1033 16.6009L16.5001 15.3408L18.897 16.6009C19.7208 17.0343 20.6939 16.3355 20.5353 15.4106L20.0775 12.7416L22.0167 10.8515C22.6853 10.1997 22.3155 9.05994 21.3907 8.92555ZM17.9225 13.5374C16.4022 12.7381 16.6439 12.7139 15.0773 13.5374C15.3676 11.8457 15.4662 12.0674 14.1981 10.8314C15.9474 10.5772 15.7398 10.6993 16.4999 9.15907C17.2614 10.7021 17.0528 10.5772 18.8017 10.8314C17.5695 12.0325 17.6238 11.7955 17.9225 13.5374Z"/>
<path d="M32.8464 26.0881L26.0247 14.272C28.1795 7.79876 23.3486 1.06787 16.5 1.06787C9.64983 1.06787 4.82127 7.80089 6.97522 14.2719L0.153515 26.0881C-0.32608 26.9187 0.387609 27.9345 1.3323 27.7639L5.74198 26.9666L7.25585 31.1844C7.57947 32.0859 8.81458 32.2024 9.2965 31.3676L15.2468 21.0613C16.0817 21.1648 16.9176 21.1648 17.753 21.0613L23.7033 31.3676C24.1851 32.2023 25.4203 32.0862 25.7439 31.1844L27.2578 26.9666L31.6675 27.7639C32.6117 27.9343 33.3264 26.9194 32.8464 26.0881ZM8.5587 28.1289L7.54473 25.3039C7.35846 24.785 6.82453 24.476 6.281 24.5742L3.32692 25.1083L8.17328 16.7138C9.32628 18.4322 11.0064 19.7653 12.963 20.5004L8.5587 28.1289ZM9.26556 13.9661C7.24747 8.86881 10.9988 3.32618 16.5 3.32618C22.0053 3.32618 25.7514 8.87158 23.7344 13.9661C21.1216 20.5636 11.835 20.4546 9.26556 13.9661ZM26.7189 24.5741C26.1761 24.4761 25.6416 24.7845 25.4552 25.3038L24.4412 28.1289L20.0368 20.5002C21.9478 19.7777 23.5841 18.5313 24.8266 16.7136L29.6729 25.1081L26.7189 24.5741Z"/>
</g>
<defs>
<clipPath id="clip0_610_553">
<rect width="33" height="33"/>
</clipPath>
</defs>
</svg>
