<svg width="35" height="35" viewBox="0 0 35 35" xmlns="http://www.w3.org/2000/svg">
<g clip-path="url(#clip0_610_574)">
<path d="M34.6152 16.4935C34.4841 16.3472 32.5124 14.1775 29.5062 12.5269C30.4647 9.23397 30.3248 6.30559 30.3139 6.10947C30.2714 5.34166 29.6583 4.72855 28.8905 4.68623C28.8677 4.68493 28.6575 4.67393 28.3049 4.67393C27.3175 4.67393 25.0078 4.76717 22.4778 5.50251C20.8267 2.49128 18.6529 0.515976 18.5064 0.384726C17.9336 -0.128242 17.0666 -0.128242 16.4936 0.384726C16.3471 0.515976 14.1734 2.49135 12.5221 5.50244C9.99219 4.7671 7.6826 4.67386 6.69502 4.67386C6.34208 4.67386 6.13208 4.6848 6.10938 4.68616C5.34151 4.72848 4.72853 5.34166 4.68615 6.1094C4.67541 6.30566 4.53534 9.23397 5.49388 12.5268C2.48758 14.1775 0.515822 16.3472 0.384777 16.4935C-0.128259 17.0664 -0.128259 17.9334 0.384777 18.5064C0.515822 18.6527 2.48758 20.8224 5.49381 22.473C4.53528 25.766 4.67521 28.6943 4.68608 28.8905C4.72853 29.6583 5.34164 30.2714 6.10932 30.3137C6.13215 30.315 6.34215 30.326 6.69481 30.326C7.68226 30.326 9.99205 30.2328 12.5221 29.4974C14.1734 32.5085 16.3471 34.4839 16.4936 34.6151C16.7801 34.8716 17.14 34.9999 17.5 34.9999C17.86 34.9999 18.22 34.8716 18.5064 34.6151C18.653 34.4839 20.8267 32.5085 22.4778 29.4974C25.0078 30.2328 27.3175 30.3261 28.3051 30.3261C28.3052 30.3261 28.3053 30.3261 28.3054 30.3261C28.6581 30.3261 28.8679 30.3151 28.8906 30.3138C29.6585 30.2715 30.2714 29.6583 30.3138 28.8905C30.3246 28.6943 30.4646 25.766 29.5061 22.4731C32.5123 20.8224 34.4841 18.6528 34.6151 18.5064C35.1282 17.9334 35.1282 17.0664 34.6152 16.4935ZM27.2776 7.72323C27.2226 8.65216 27.0783 9.93752 26.7179 11.3062C25.9324 11.0499 25.1074 10.8543 24.251 10.7489C24.1456 9.89329 23.9505 9.06881 23.6944 8.28412C25.0625 7.92393 26.3481 7.7788 27.2776 7.72323ZM17.4999 3.67786C18.1174 4.37609 18.9231 5.38931 19.6356 6.61123C18.8993 6.98385 18.1783 7.42593 17.4999 7.95401C16.8216 7.42587 16.1006 6.98385 15.3642 6.61123C16.0768 5.38903 16.8826 4.37588 17.4999 3.67786ZM11.3055 8.28412C11.0495 9.06881 10.8543 9.89322 10.749 10.7489C9.89491 10.8539 9.07207 11.0487 8.28854 11.3041C7.92911 9.93711 7.78296 8.65223 7.72601 7.7235C8.65536 7.77921 9.93928 7.92448 11.3055 8.28412ZM6.60547 19.6322C5.38587 18.9205 4.37477 18.1163 3.67798 17.5C4.37518 16.8834 5.38621 16.0792 6.60547 15.3677C6.97891 16.1022 7.42304 16.8216 7.95269 17.5C7.42311 18.1782 6.97891 18.8977 6.60547 19.6322ZM7.72622 27.2763C7.78302 26.3472 7.92938 25.0625 8.28868 23.6957C9.07214 23.9511 9.89498 24.1458 10.7491 24.2509C10.8544 25.1065 11.0496 25.9308 11.3056 26.7157C9.93928 27.0754 8.65549 27.2206 7.72622 27.2763ZM17.4999 31.3219C16.8824 30.6236 16.0767 29.6104 15.3644 28.3886C16.1006 28.016 16.8218 27.5739 17.4999 27.0459C18.1781 27.5739 18.8993 28.0159 19.6355 28.3886C18.9233 29.6106 18.1175 30.6236 17.4999 31.3219ZM21.3216 22.8304C21.3216 23.8021 21.1486 24.7461 20.8696 25.6392C20.0429 25.2046 19.2543 24.6591 18.5668 23.9715C17.9778 23.3823 17.0225 23.3823 16.4333 23.9715C15.7457 24.6591 14.9571 25.2046 14.1302 25.6392C13.8513 24.7461 13.6783 23.8021 13.6783 22.8304C13.6783 21.9973 13.0028 21.3217 12.1696 21.3217C11.1987 21.3217 10.2554 21.1491 9.36294 20.8704C9.79702 20.0424 10.3418 19.2532 11.0285 18.5667C11.3115 18.2838 11.4705 17.9001 11.4705 17.4999C11.4705 17.0997 11.3115 16.7161 11.0285 16.4331C10.3421 15.7466 9.79716 14.9575 9.36294 14.1294C10.2554 13.8508 11.1987 13.6781 12.1696 13.6781C13.0027 13.6781 13.6783 13.0027 13.6783 12.1694C13.6783 11.1978 13.8513 10.2536 14.1302 9.36064C14.9571 9.79526 15.7458 10.3408 16.4332 11.0283C16.7161 11.3113 17.0998 11.4703 17.4999 11.4703C17.9001 11.4703 18.2838 11.3113 18.5667 11.0283C19.2543 10.3408 20.0428 9.79526 20.8696 9.36064C21.1486 10.2538 21.3216 11.1978 21.3216 12.1694C21.3216 13.0026 21.997 13.6781 22.8303 13.6781C23.8023 13.6781 24.7468 13.8514 25.6402 14.1304C25.2054 14.9565 24.6594 15.745 23.9714 16.433C23.6884 16.716 23.5294 17.0997 23.5294 17.4998C23.5294 17.9 23.6884 18.2837 23.9714 18.5666C24.6579 19.2532 25.2027 20.0423 25.6368 20.8704C24.7444 21.149 23.801 21.3217 22.8301 21.3217C21.9971 21.3217 21.3216 21.9971 21.3216 22.8304ZM23.6943 26.7156C23.9504 25.9309 24.1454 25.1066 24.2508 24.2509C25.1049 24.1457 25.9279 23.9511 26.7114 23.6957C27.0708 25.0627 27.2169 26.3476 27.2739 27.2763C26.3447 27.2206 25.0607 27.0754 23.6943 26.7156ZM28.3946 19.6321C28.0211 18.8976 27.577 18.178 27.0473 17.4998C27.577 16.8215 28.0211 16.1021 28.3946 15.3676C29.6141 16.0793 30.6253 16.8835 31.3221 17.4998C30.6249 18.1163 29.6138 18.9205 28.3946 19.6321Z"/>
<path d="M18.566 16.4327C18.2854 16.1521 17.8972 15.9912 17.4999 15.9912C17.1026 15.9912 16.7143 16.1521 16.4327 16.4327C16.1521 16.7134 15.9912 17.1026 15.9912 17.4999C15.9912 17.8972 16.1521 18.2854 16.4327 18.5671C16.7144 18.8477 17.1026 19.0086 17.4999 19.0086C17.8971 19.0086 18.2854 18.8477 18.566 18.5671C18.8477 18.2854 19.0086 17.8972 19.0086 17.4999C19.0085 17.1026 18.8475 16.7134 18.566 16.4327Z"/>
</g>
<defs>
<clipPath id="clip0_610_574">
<rect width="35" height="35"/>
</clipPath>
</defs>
</svg>
