<svg xmlns="http://www.w3.org/2000/svg" width="24" height="24" viewBox="0 0 24 24">
  <g id="Group_874" data-name="Group 874" transform="translate(-116.328 -647.654)">
    <rect id="Rectangle_381" data-name="Rectangle 381" width="24" height="24" transform="translate(116.328 647.654)" fill="none"/>
    <path id="Path_363" data-name="Path 363" d="M369.088,1893.949a4.132,4.132,0,0,0-.262-1.368,2.879,2.879,0,0,0-1.649-1.649,4.118,4.118,0,0,0-1.368-.262c-.6-.028-.793-.035-2.324-.035s-1.723.007-2.324.035a4.117,4.117,0,0,0-1.368.262,2.88,2.88,0,0,0-1.649,1.649,4.131,4.131,0,0,0-.262,1.368c-.027.6-.034.793-.034,2.324s.007,1.723.034,2.324a4.132,4.132,0,0,0,.262,1.369,2.882,2.882,0,0,0,1.649,1.649,4.129,4.129,0,0,0,1.368.262c.6.028.793.034,2.324.034s1.723-.007,2.324-.034a4.131,4.131,0,0,0,1.368-.262,2.881,2.881,0,0,0,1.649-1.649,4.133,4.133,0,0,0,.262-1.369c.028-.6.034-.793.034-2.324s-.006-1.723-.034-2.324m-5.6,5.219a2.895,2.895,0,1,1,2.895-2.895,2.895,2.895,0,0,1-2.895,2.895m3.009-5.227a.677.677,0,1,1,.676-.677.677.677,0,0,1-.676.677m-1.13,2.333a1.879,1.879,0,1,1-1.879-1.879,1.879,1.879,0,0,1,1.879,1.879" transform="translate(-235.156 -1236.62)" fill="#5f79bb" fill-rule="evenodd"/>
    <path id="Path_365" data-name="Path 365" d="M363.57,1886.5a11.029,11.029,0,1,1-11.029-11.029A11.029,11.029,0,0,1,363.57,1886.5Z" transform="translate(-224.212 -1226.844)" fill="none" stroke="#5f79bb" stroke-width="1"/>
  </g>
</svg>
