<svg xmlns="http://www.w3.org/2000/svg" width="27.783" height="28.769" fill="none" viewBox="0 0 27.783 28.769">
  <g id="Group_848" data-name="Group 848" transform="translate(-179.289 -427.335)">
    <path id="Path_355" data-name="Path 355" d="M543.583,1258.633l-.6,1.683c-.3.845-.606,1.687-.9,2.534a.841.841,0,0,1-.742.656.869.869,0,0,1-.9-.533q-1.9-3.591-3.8-7.181c-.209-.395-.421-.787-.624-1.185a.207.207,0,0,0-.231-.127q-.763.018-1.526,0a.22.22,0,0,0-.243.134q-2.176,4.193-4.354,8.385a.814.814,0,0,1-.856.506.827.827,0,0,1-.74-.632c-.476-1.365-.965-2.726-1.444-4.09-.047-.134-.1-.15-.229-.12-1.375.325-2.754.637-4.128.968a.753.753,0,0,1-.883-.271.9.9,0,0,1-.075-1.026q.864-1.634,1.723-3.27,1.645-3.12,3.292-6.238a.306.306,0,0,0,.012-.3,10,10,0,0,1,2.029-10.942,8.975,8.975,0,0,1,5.05-2.706,9.132,9.132,0,0,1,8.6,2.977,9.474,9.474,0,0,1,2.45,5.051,10.252,10.252,0,0,1-.6,5.508.422.422,0,0,0,.017.4q2.475,4.711,4.941,9.427a.993.993,0,0,1-.083,1.143.723.723,0,0,1-.808.263c-1.4-.333-2.8-.656-4.2-.983-.044-.01-.09-.017-.159-.031m-16.315-14.007a8.016,8.016,0,0,0,7.761,8.113,8.112,8.112,0,0,0,.027-16.216,8.022,8.022,0,0,0-7.788,8.1m10.457,9.5,3.352,6.279c.032-.077.054-.124.072-.173l.495-1.441c.175-.509.346-1.019.527-1.525a.81.81,0,0,1,1.077-.6c.693.166,1.385.336,2.078.5l1.121.269-3.684-7.021a9.289,9.289,0,0,1-5.037,3.708m-13.969,3.309c.095-.019.15-.028.205-.042.968-.237,1.934-.477,2.9-.711a1.3,1.3,0,0,1,.427-.044c.387.038.573.322.693.668q.372,1.076.74,2.153c.106.307.213.615.332.961l3.252-6.346a9.134,9.134,0,0,1-2.746-1.331,9.585,9.585,0,0,1-2.185-2.208l-3.623,6.9" transform="translate(-341.899 -807.407)" />
    <path id="Path_356" data-name="Path 356" d="M544.267,1256.207a.6.6,0,0,0,.2.654l3.077,2.464a1.528,1.528,0,0,0,1.713-.5l4.541-5.1s.2-1.191-1.058-.824l-3.923,4.574a.789.789,0,0,1-1.267.167s-2.644-1.9-2.536-1.843a.647.647,0,0,0-.748.406" transform="translate(-355.843 -819.174)" />
  </g>
</svg>
