<svg xmlns="http://www.w3.org/2000/svg" width="24" height="24" viewBox="0 0 24 24">
  <g id="Group_873" data-name="Group 873" transform="translate(-169.328 -647.654)">
    <rect id="Rectangle_386" data-name="Rectangle 386" width="24" height="24" transform="translate(169.328 647.654)" fill="none"/>
    <path id="Path_360" data-name="Path 360" d="M523.072,1895.434l.341-2.226h-2.135v-1.445a1.113,1.113,0,0,1,1.255-1.2h.971v-1.894a11.83,11.83,0,0,0-1.724-.151,2.717,2.717,0,0,0-2.908,3v1.7h-1.956v2.226h1.956v5.407h2.406v-5.407Z" transform="translate(-338.882 -1235.025)" fill="#5f79bb" fill-rule="evenodd"/>
    <path id="Path_362" data-name="Path 362" d="M517.884,1886.5a11.029,11.029,0,1,1-11.029-11.029A11.029,11.029,0,0,1,517.884,1886.5Z" transform="translate(-325.527 -1226.844)" fill="none" stroke="#5f79bb" stroke-width="1"/>
  </g>
</svg>
