 <svg width="36" height="36" viewBox="0 0 36 36"  xmlns="http://www.w3.org/2000/svg">
<g clip-path="url(#clip0_824_355)">
<path fill-rule="evenodd" clip-rule="evenodd" d="M18 35C8.61116 35 1 27.3888 1 18C1 8.61116 8.61116 1 18 1C27.3888 1 35 8.61116 35 18C35 27.3888 27.3888 35 18 35ZM0 18C0 8.05888 8.05888 0 18 0C27.9411 0 36 8.05888 36 18C36 27.9411 27.9411 36 18 36C8.05888 36 0 27.9411 0 18ZM22.122 8.06C21.056 8.01 20.717 8 18 8C15.283 8 14.944 8.013 13.878 8.06C12.812 8.11 12.088 8.277 11.45 8.525C10.7824 8.77573 10.1777 9.16923 9.678 9.678C9.1688 10.1773 8.77524 10.7822 8.525 11.45C8.277 12.088 8.11 12.812 8.06 13.878C8.01 14.944 8 15.283 8 18C8 20.717 8.013 21.056 8.06 22.122C8.11 23.187 8.277 23.913 8.525 24.55C8.77593 25.2175 9.16941 25.8222 9.678 26.322C10.1775 26.8309 10.7823 27.2245 11.45 27.475C12.088 27.722 12.813 27.89 13.878 27.94C14.944 27.99 15.283 28 18 28C20.717 28 21.056 27.987 22.122 27.94C23.187 27.89 23.913 27.722 24.55 27.475C25.2173 27.2238 25.822 26.8303 26.322 26.322C26.8311 25.8226 27.2247 25.2178 27.475 24.55C27.722 23.912 27.89 23.187 27.94 22.122C27.99 21.056 28 20.717 28 18C28 15.283 27.987 14.944 27.94 13.878C27.89 12.813 27.722 12.087 27.475 11.45C27.224 10.7826 26.8305 10.1779 26.322 9.678C25.766 9.123 25.21 8.779 24.55 8.525C23.912 8.277 23.187 8.11 22.122 8.06ZM14.4645 14.4645C15.4021 13.5268 16.6739 13 18 13C19.3261 13 20.5979 13.5268 21.5355 14.4645C22.4732 15.4021 23 16.6739 23 18C23 19.3261 22.4732 20.5979 21.5355 21.5355C20.5979 22.4732 19.3261 23 18 23C16.6739 23 15.4021 22.4732 14.4645 21.5355C13.5268 20.5979 13 19.3261 13 18C13 16.6739 13.5268 15.4021 14.4645 14.4645ZM24.1339 11.8661C24.3683 12.1005 24.5 12.4185 24.5 12.75C24.5 13.0815 24.3683 13.3995 24.1339 13.6339C23.8995 13.8683 23.5815 14 23.25 14C22.9185 14 22.6005 13.8683 22.3661 13.6339C22.1317 13.3995 22 13.0815 22 12.75C22 12.4185 22.1317 12.1005 22.3661 11.8661C22.6005 11.6317 22.9185 11.5 23.25 11.5C23.5815 11.5 23.8995 11.6317 24.1339 11.8661ZM20.1213 15.8787C19.5587 15.3161 18.7956 15 18 15C17.2044 15 16.4413 15.3161 15.8787 15.8787C15.3161 16.4413 15 17.2044 15 18C15 18.7956 15.3161 19.5587 15.8787 20.1213C16.4413 20.6839 17.2044 21 18 21C18.7956 21 19.5587 20.6839 20.1213 20.1213C20.6839 19.5587 21 18.7956 21 18C21 17.2044 20.6839 16.4413 20.1213 15.8787Z"  />
</g>
<defs>
<clipPath id="clip0_824_355">
<rect width="36" height="36" fill="white"/>
</clipPath>
</defs>
</svg>
