<svg xmlns="http://www.w3.org/2000/svg" width="24" height="24.057" viewBox="0 0 24 24.057">
  <g id="Group_856" data-name="Group 856" transform="translate(-62.797 -648.036)">
    <rect id="Rectangle_374" data-name="Rectangle 374" width="24" height="24" transform="translate(62.797 648.036)" fill="none"/>
    <path id="Path_372" data-name="Path 372" d="M208.916,1886.5a11.029,11.029,0,1,1-11.029-11.029A11.029,11.029,0,0,1,208.916,1886.5Z" transform="translate(-123.561 -1225.933)" fill="none" stroke="#5f79bb" stroke-width="1"/>
    <path id="Path_369" data-name="Path 369" d="M206.722,1888.664a6.291,6.291,0,0,0-5.388,9.538l-1.135,3.375,3.482-1.115a6.291,6.291,0,1,0,3.04-11.8m3.539,8.792a1.792,1.792,0,0,1-1.2.843c-.325.03-.325.266-2.128-.444a7.271,7.271,0,0,1-3.029-2.677,3.45,3.45,0,0,1-.724-1.834,1.987,1.987,0,0,1,.621-1.479.651.651,0,0,1,.473-.222c.118,0,.236.015.34.015s.251-.06.4.3.5,1.228.547,1.316a.326.326,0,0,1,.015.31,1.208,1.208,0,0,1-.177.3c-.089.1-.186.231-.266.31s-.181.184-.078.362a5.347,5.347,0,0,0,.986,1.228,4.834,4.834,0,0,0,1.426.88c.177.089.281.074.384-.044s.444-.517.561-.7.236-.147.4-.088,1.034.488,1.212.576.3.133.34.207a1.487,1.487,0,0,1-.1.843" transform="translate(-132.402 -1234.628)" fill="#5f79bb" fill-rule="evenodd"/>
  </g>
</svg>
