<svg width="160" height="30" viewBox="0 0 160 30" fill="none" xmlns="http://www.w3.org/2000/svg">
<path fill-rule="evenodd" clip-rule="evenodd" d="M134.572 -0.000580849H133.013C132.865 -0.0199635 132.715 -0.00460841 132.574 0.0442649C132.433 0.0931382 132.306 0.174183 132.202 0.280963C132.098 0.387744 132.02 0.517317 131.975 0.659393C131.93 0.801469 131.918 0.952133 131.941 1.09942V2.38742C131.918 2.53471 131.93 2.68537 131.975 2.82745C132.02 2.96952 132.098 3.09909 132.202 3.20587C132.306 3.31265 132.433 3.3937 132.574 3.44257C132.715 3.49145 132.865 3.5068 133.013 3.48742H134.572C134.72 3.5068 134.87 3.49145 135.011 3.44257C135.152 3.3937 135.28 3.31265 135.384 3.20587C135.488 3.09909 135.566 2.96952 135.611 2.82745C135.656 2.68537 135.668 2.53471 135.644 2.38742V1.09642C135.668 0.949133 135.656 0.798469 135.611 0.656393C135.566 0.514317 135.488 0.384744 135.384 0.277963C135.28 0.171183 135.152 0.0901382 135.011 0.0412649C134.87 -0.00760841 134.72 -0.0229635 134.572 -0.00358086V-0.000580849ZM89.3217 11.23C89.1625 11.0317 88.9736 10.8593 88.7617 10.719V10.619C88.9595 10.479 89.1466 10.3246 89.3217 10.157C89.5356 9.96274 89.7238 9.74195 89.8817 9.49997L93.0237 5.31097H89.0057L86.0237 9.54797H84.8307C84.8617 9.36197 84.8897 9.17597 84.9127 8.98797C84.979 8.43846 85.0124 7.88547 85.0127 7.33197L84.9887 0.292969H81.3887V17.342H84.9887V13.592C84.985 13.0991 84.9516 12.6068 84.8887 12.118C84.877 12.0257 84.8628 11.9345 84.8486 11.8435L84.8327 11.741H86.0127L89.4127 17.341H93.4307L89.8797 12.006C89.7195 11.7279 89.5319 11.4666 89.3197 11.226L89.3217 11.23ZM76.1921 14.709C76.5981 14.6924 77.0368 14.672 77.5081 14.648L77.5041 14.645C77.9748 14.6224 78.4378 14.5777 78.8931 14.511L79.2341 16.8C78.527 17.1089 77.7817 17.3217 77.0181 17.433C76.2048 17.5621 75.3826 17.6273 74.5591 17.628C73.3391 17.679 72.1224 17.4676 70.9911 17.008C70.1194 16.6088 69.4348 15.8894 69.0791 14.999C68.6462 13.8153 68.4479 12.5586 68.4951 11.299C68.4482 10.0382 68.6522 8.7805 69.0951 7.59904C69.4586 6.70783 70.1522 5.99135 71.0311 5.59904C72.1611 5.1506 73.3723 4.9435 74.5871 4.99104C75.0258 4.99171 75.5048 5.01204 76.0241 5.05204C76.5517 5.09318 77.0764 5.16631 77.5951 5.27104C78.0932 5.36732 78.5791 5.51823 79.0441 5.72104L78.6551 7.98604C78.0892 7.97211 77.546 7.95742 77.0236 7.9433L76.7921 7.93704C76.1961 7.92104 75.6628 7.91304 75.1921 7.91304C74.6017 7.88785 74.0125 7.98735 73.4631 8.20504C73.2486 8.30686 73.0569 8.45118 72.8998 8.62926C72.7427 8.80735 72.6234 9.01548 72.5491 9.24104C72.3365 9.90546 72.2417 10.602 72.2691 11.299C72.2421 12.0079 72.3368 12.7162 72.5491 13.393C72.6225 13.6205 72.7414 13.8307 72.8985 14.0109C73.0556 14.1911 73.2477 14.3374 73.4631 14.441C74.0125 14.6587 74.6017 14.7582 75.1921 14.733C75.4531 14.733 75.7851 14.725 76.1921 14.709ZM63.9676 5.61271C61.6231 4.78535 59.0661 4.78535 56.7216 5.61271C55.8269 6.00327 55.1164 6.72242 54.7366 7.62171C54.2846 8.80996 54.0778 10.0774 54.1286 11.3477C54.0778 12.6024 54.2847 13.8541 54.7366 15.0257C55.1132 15.925 55.8252 16.6423 56.7216 17.0257C59.0688 17.8369 61.6204 17.8369 63.9676 17.0257C64.8566 16.6399 65.5598 15.9223 65.9276 15.0257C66.3697 13.8517 66.5737 12.6014 66.5276 11.3477C66.5723 10.0785 66.3685 8.81274 65.9276 7.62171C65.5576 6.72444 64.8555 6.00472 63.9676 5.61271ZM62.5546 13.6127C62.5097 13.8386 62.4197 14.0533 62.2902 14.2438C62.1607 14.4343 61.9942 14.5968 61.8006 14.7217C61.3395 14.9223 60.842 15.0258 60.3391 15.0258C59.8362 15.0258 59.3388 14.9223 58.8776 14.7217C58.6836 14.5973 58.5168 14.4349 58.3872 14.2443C58.2576 14.0537 58.168 13.8389 58.1236 13.6127C57.9557 12.8699 57.8822 12.1089 57.9046 11.3477C57.8824 10.5786 57.956 9.80968 58.1236 9.05871C58.2169 8.60005 58.488 8.19699 58.8776 7.93771C59.3367 7.72927 59.835 7.62144 60.3391 7.62144C60.8432 7.62144 61.3416 7.72927 61.8006 7.93771C61.9939 8.06573 62.16 8.23066 62.2894 8.42303C62.4188 8.6154 62.5089 8.83142 62.5546 9.05871C62.7231 9.80955 62.7966 10.5785 62.7736 11.3477C62.7971 12.1096 62.7235 12.8714 62.5546 13.6147V13.6127ZM47.916 5.01544C47.2714 5.0146 46.6306 5.11309 46.016 5.30745C45.4167 5.49268 44.8466 5.76203 44.323 6.10744C43.9024 6.38333 43.5252 6.72036 43.204 7.10744L42.922 5.30045H40V21.9604H43.6V19.0604C43.6153 18.5411 43.6113 18.0174 43.588 17.4894C43.572 17.1334 43.548 16.7894 43.52 16.4514C44.0056 16.8207 44.5522 17.102 45.135 17.2824C45.9313 17.5284 46.7605 17.6515 47.594 17.6474C48.4664 17.6779 49.3327 17.4899 50.114 17.1004C50.838 16.6735 51.3765 15.9916 51.624 15.1884C52.0014 13.9671 52.1705 12.6909 52.124 11.4134C52.2168 9.77232 51.8808 8.1353 51.149 6.66344C50.8159 6.11382 50.3364 5.66778 49.7642 5.3753C49.1919 5.08282 48.5496 4.95544 47.909 5.00744L47.916 5.01544ZM48.216 13.7474C48.1802 13.9596 48.1027 14.1626 47.9878 14.3445C47.873 14.5265 47.7231 14.6839 47.547 14.8074C47.1631 15.0035 46.7346 15.0959 46.304 15.0754C45.7908 15.0824 45.279 15.0212 44.782 14.8934C44.4187 14.7941 44.0247 14.6811 43.6 14.5544V8.88944C44.0495 8.58153 44.5219 8.3084 45.013 8.07244C45.4642 7.86813 45.9548 7.7657 46.45 7.77244C46.8534 7.75264 47.2531 7.85738 47.595 8.07244C47.9331 8.34961 48.1582 8.74084 48.228 9.17245C48.3789 9.92162 48.4444 10.6855 48.423 11.4494C48.4463 12.2207 48.3785 12.9921 48.221 13.7474H48.216ZM105.781 10.4321C105.638 10.8578 105.407 11.2487 105.104 11.5795L105.102 11.5815C104.255 12.2118 103.204 12.5025 102.154 12.3965H97.8676C97.9026 12.715 97.9679 13.0294 98.0626 13.3355C98.1285 13.5772 98.2437 13.8027 98.401 13.9977C98.5583 14.1927 98.7543 14.353 98.9766 14.4685C99.5426 14.705 100.154 14.8129 100.767 14.7845C101.318 14.7845 102.007 14.7635 102.825 14.7235C103.643 14.6835 104.469 14.6165 105.296 14.5165L105.637 16.7325C105.124 16.9737 104.584 17.1533 104.029 17.2675C103.418 17.3988 102.8 17.4923 102.178 17.5475C101.545 17.6045 100.935 17.6325 100.351 17.6325C99.0865 17.6832 97.8266 17.4548 96.6607 16.9635C95.7576 16.5483 95.0384 15.816 94.6396 14.9055C94.1883 13.7761 93.9771 12.565 94.0196 11.3495C93.9665 10.0687 94.1821 8.79095 94.6526 7.59851C95.0435 6.70371 95.7578 5.98945 96.6526 5.59851C97.7914 5.1518 99.0102 4.94482 100.233 4.99051C101.763 4.86094 103.295 5.22431 104.605 6.02751C105.055 6.39841 105.411 6.87142 105.642 7.40727C105.873 7.94313 105.972 8.52635 105.933 9.10851C105.975 9.55547 105.923 10.0064 105.781 10.4321ZM97.8096 10.3705H101.159L101.164 10.3695C101.716 10.3688 102.069 10.2512 102.224 10.0165C102.394 9.71662 102.474 9.37389 102.455 9.02951C102.472 8.8068 102.436 8.58307 102.349 8.3773C102.262 8.17153 102.127 7.98979 101.955 7.84751C101.464 7.58746 100.908 7.47364 100.355 7.51951C99.8217 7.49484 99.2897 7.58628 98.7956 7.78751C98.5989 7.89101 98.4273 8.03631 98.2927 8.21321C98.1581 8.39011 98.0639 8.59432 98.0166 8.81151C97.8877 9.32144 97.8183 9.84459 97.8096 10.3705ZM116.332 7.67366V7.67266H116.339L116.332 7.67366ZM116.332 7.67266V5.31166H112.968V1.97266H109.339L109.346 5.32166L107.246 5.43066V7.67066H109.352L109.366 14.2957C109.339 14.7466 109.406 15.1982 109.563 15.6217C109.721 16.0451 109.965 16.431 110.28 16.7547C110.979 17.3724 111.895 17.6881 112.826 17.6327C113.118 17.6327 113.475 17.6123 113.898 17.5717C114.321 17.531 114.743 17.4743 115.165 17.4017C115.528 17.3431 115.887 17.2579 116.237 17.1467L115.848 14.7117H114.289C113.929 14.7448 113.57 14.6452 113.278 14.4317C113.166 14.3045 113.081 14.1553 113.029 13.9937C112.978 13.832 112.96 13.6614 112.978 13.4927V7.67266H116.332ZM123.465 9.66854L126.607 10.4225L126.602 10.4285C127.441 10.6 128.217 11.0004 128.842 11.5855C129.371 12.2302 129.633 13.0536 129.572 13.8855C129.623 14.6954 129.428 15.5017 129.012 16.1985C128.577 16.775 127.943 17.17 127.234 17.3075C126.202 17.5319 125.148 17.6326 124.092 17.6075C123.589 17.6075 122.843 17.5832 121.852 17.5345C120.758 17.4745 119.668 17.3526 118.588 17.1695L118.831 14.9295C119.125 14.9445 119.497 14.9565 119.952 14.9655C120.409 14.9735 120.905 14.9775 121.438 14.9775H123.046C123.874 14.9775 124.508 14.9565 124.946 14.9165C125.267 14.9157 125.581 14.8181 125.846 14.6365C125.931 14.5509 125.997 14.4479 126.039 14.3345C126.081 14.2212 126.098 14.1001 126.089 13.9795C126.103 13.8301 126.071 13.6798 125.997 13.5492C125.923 13.4186 125.811 13.314 125.675 13.2495C125.25 13.072 124.809 12.9335 124.359 12.8355L121.314 12.0815C120.676 11.9299 120.073 11.6584 119.536 11.2815C119.13 10.9783 118.822 10.5634 118.648 10.0875C118.467 9.54611 118.38 8.97738 118.393 8.40653C118.358 7.70983 118.532 7.01859 118.893 6.42154C119.293 5.87971 119.871 5.49594 120.525 5.33754C121.507 5.0825 122.519 4.96769 123.533 4.99653C124.117 4.99653 124.749 5.01753 125.433 5.05753C126.117 5.09753 126.783 5.15154 127.433 5.21554C128.083 5.27954 128.662 5.35854 129.162 5.45854L128.919 7.69854C128.138 7.68254 127.355 7.67053 126.569 7.66253C125.783 7.65453 125.016 7.65054 124.269 7.65054C123.782 7.63113 123.294 7.63914 122.807 7.67454C122.55 7.67804 122.3 7.7585 122.089 7.90553C122.011 7.99255 121.953 8.09493 121.917 8.20605C121.881 8.31716 121.869 8.43452 121.882 8.55054C121.865 8.69289 121.891 8.83708 121.956 8.96488C122.021 9.09268 122.122 9.19835 122.247 9.26853C122.639 9.44018 123.047 9.57412 123.465 9.66854ZM131.99 5.30859H135.57V17.3406H131.99V5.30859ZM143.316 1.97266H139.687L139.694 5.32166L137.594 5.43066V7.67066H139.7L139.714 14.2957C139.686 14.7466 139.754 15.1982 139.911 15.6217C140.068 16.0452 140.313 16.431 140.628 16.7547C141.327 17.3724 142.242 17.6881 143.174 17.6327C143.466 17.6327 143.823 17.6123 144.246 17.5717C144.668 17.531 145.091 17.4743 145.513 17.4017C145.876 17.3431 146.234 17.2579 146.585 17.1467L146.196 14.7117H144.637C144.277 14.7447 143.917 14.6451 143.626 14.4317C143.513 14.3045 143.429 14.1553 143.377 13.9937C143.325 13.832 143.308 13.6614 143.326 13.4927V7.67266H146.687V5.31166H143.326V1.97266H143.316ZM154.836 14.7826C155.388 14.7839 156.074 14.7636 156.894 14.7216L156.891 14.7236C157.709 14.6836 158.535 14.6166 159.362 14.5166L159.703 16.7326C159.19 16.9738 158.65 17.1533 158.095 17.2676C157.484 17.3988 156.866 17.4923 156.244 17.5476C155.611 17.6046 155.001 17.6326 154.417 17.6326C153.153 17.6833 151.893 17.4549 150.727 16.9636C149.824 16.5484 149.105 15.816 148.706 14.9056C148.255 13.7762 148.043 12.5651 148.086 11.3496C148.033 10.0688 148.249 8.79103 148.719 7.59858C149.11 6.70379 149.824 5.98952 150.719 5.59858C151.858 5.15187 153.077 4.94489 154.299 4.99058C155.83 4.8608 157.362 5.22418 158.672 6.02758C159.122 6.39848 159.478 6.8715 159.709 7.40735C159.94 7.9432 160.04 8.52642 160 9.10858C160.043 9.55557 159.991 10.0066 159.848 10.4323C159.706 10.858 159.475 11.2489 159.171 11.5796C158.325 12.2099 157.273 12.5006 156.223 12.3946H151.937C151.972 12.7131 152.037 13.0275 152.132 13.3336C152.198 13.5753 152.313 13.8008 152.47 13.9958C152.628 14.1908 152.824 14.3511 153.046 14.4666C153.612 14.7031 154.223 14.811 154.836 14.7826ZM154.423 7.52458C153.89 7.49988 153.358 7.59132 152.864 7.79258L152.869 7.79158C152.672 7.89508 152.501 8.04038 152.366 8.21728C152.231 8.39418 152.137 8.59839 152.09 8.81558C151.961 9.32553 151.892 9.84867 151.883 10.3746H155.232C155.784 10.3739 156.137 10.2563 156.292 10.0216C156.462 9.72167 156.543 9.37896 156.523 9.03458C156.541 8.81187 156.505 8.58814 156.418 8.38237C156.331 8.1766 156.195 7.99486 156.023 7.85258C155.532 7.59254 154.977 7.47871 154.423 7.52458Z" fill="#252342"/>
<path d="M30 4.409V0H1.1453e-05V20.781C-0.00171568 21.4728 0.191931 22.1511 0.558665 22.7377C0.9254 23.3244 1.45032 23.7955 2.07301 24.097L13.661 29.648C14.1435 29.8796 14.6718 30.0002 15.207 30.001C15.757 29.9992 16.2993 29.8723 16.793 29.63L27.964 24.11C28.5769 23.8043 29.0921 23.3332 29.4514 22.7501C29.8106 22.1669 29.9996 21.4949 29.997 20.81V9.327C29.9971 9.18921 29.9701 9.05274 29.9174 8.92541C29.8648 8.79808 29.7875 8.68239 29.6901 8.58495C29.5926 8.48752 29.4769 8.41025 29.3496 8.35758C29.2223 8.30491 29.0858 8.27787 28.948 8.278V8.278C28.8102 8.27787 28.6738 8.30491 28.5464 8.35758C28.4191 8.41025 28.3034 8.48752 28.206 8.58495C28.1085 8.68239 28.0313 8.79808 27.9786 8.92541C27.9259 9.05274 27.8989 9.18921 27.899 9.327V20.811C27.9001 21.1038 27.8199 21.3912 27.6673 21.6412C27.5148 21.8912 27.2959 22.094 27.035 22.227L15.864 27.747C15.6595 27.8472 15.4348 27.8995 15.207 27.9C14.9861 27.9006 14.768 27.851 14.569 27.755L2.97901 22.204C2.71353 22.0731 2.49024 21.8701 2.33463 21.6183C2.17902 21.3665 2.09737 21.076 2.09901 20.78V2.1H27.899V4.409C27.8989 4.54679 27.9259 4.68326 27.9786 4.81059C28.0313 4.93792 28.1085 5.05361 28.206 5.15105C28.3034 5.24848 28.4191 5.32575 28.5464 5.37842C28.6738 5.43109 28.8102 5.45813 28.948 5.458V5.458C29.0861 5.45853 29.2228 5.43178 29.3505 5.37928C29.4782 5.32679 29.5942 5.24959 29.692 5.15211C29.7898 5.05464 29.8673 4.93881 29.9201 4.81129C29.973 4.68376 30.0001 4.54705 30 4.409V4.409Z" fill="url(#paint0_linear_788_365)"/>
<path d="M16.7007 5.94542H9.6707C9.52994 5.94476 9.39042 5.97189 9.26016 6.02524C9.12989 6.07859 9.01144 6.15712 8.91158 6.25634C8.81171 6.35555 8.73241 6.47349 8.6782 6.6034C8.624 6.73332 8.59596 6.87265 8.5957 7.01342C8.59635 7.15037 8.62412 7.28583 8.6774 7.41198C8.73068 7.53814 8.80843 7.65249 8.90614 7.74844C9.00386 7.84439 9.11961 7.92004 9.24672 7.97101C9.37383 8.02198 9.50977 8.04727 9.64671 8.04542H16.7187C17.2889 8.04188 17.8542 8.15067 18.3824 8.3656C18.9105 8.58053 19.3912 8.89739 19.7969 9.29807C20.2026 9.69876 20.5254 10.1754 20.7469 10.7009C20.9683 11.2263 21.0842 11.7902 21.0877 12.3604C21.0912 12.9306 20.9825 13.4959 20.7675 14.0241C20.5526 14.5522 20.2357 15.0329 19.8351 15.4386C19.4344 15.8443 18.9577 16.1671 18.4323 16.3886C17.9068 16.6101 17.3429 16.7259 16.7727 16.7294H14.5727C14.435 16.7293 14.2987 16.7563 14.1715 16.8089C14.0443 16.8615 13.9287 16.9387 13.8314 17.0361C13.734 17.1334 13.6568 17.249 13.6042 17.3762C13.5516 17.5034 13.5246 17.6398 13.5247 17.7774V17.7774C13.5246 17.9151 13.5516 18.0514 13.6042 18.1786C13.6568 18.3058 13.734 18.4214 13.8314 18.5188C13.9287 18.6161 14.0443 18.6933 14.1715 18.7459C14.2987 18.7985 14.435 18.8256 14.5727 18.8254H16.7727C18.4807 18.8156 20.1148 18.1277 21.3156 16.913C22.5164 15.6984 23.1855 14.0564 23.1757 12.3484C23.1659 10.6404 22.478 9.00628 21.2633 7.80549C20.0486 6.60469 18.4067 5.93561 16.6987 5.94542H16.7007Z" fill="url(#paint1_linear_788_365)"/>
<path d="M10.6908 21.7298V15.1798C10.6906 14.9507 10.7357 14.7237 10.8233 14.5119C10.911 14.3001 11.0395 14.1077 11.2016 13.9456C11.3636 13.7836 11.556 13.6551 11.7678 13.5674C11.9796 13.4798 12.2066 13.4347 12.4357 13.4348H17.3088C17.5861 13.4343 17.8519 13.3238 18.0478 13.1275C18.2437 12.9312 18.3538 12.6652 18.3538 12.3878V12.3878C18.3539 12.2502 18.3269 12.1138 18.2742 11.9866C18.2216 11.8594 18.1444 11.7438 18.0471 11.6465C17.9498 11.5492 17.8342 11.472 17.707 11.4194C17.5798 11.3667 17.4434 11.3397 17.3058 11.3398H12.4357C11.4168 11.3398 10.4396 11.7446 9.71905 12.4651C8.99853 13.1857 8.59375 14.1629 8.59375 15.1818V21.7298C8.59362 21.8675 8.62064 22.0039 8.67326 22.1311C8.72588 22.2583 8.80307 22.3738 8.90041 22.4712C8.99775 22.5685 9.11334 22.6457 9.24054 22.6983C9.36775 22.751 9.50409 22.778 9.64175 22.7778V22.7778C9.77933 22.7778 9.91556 22.7507 10.0427 22.6981C10.1697 22.6454 10.2852 22.5682 10.3824 22.4708C10.4797 22.3735 10.5568 22.258 10.6093 22.1308C10.6619 22.0037 10.6889 21.8674 10.6888 21.7298H10.6908Z" fill="url(#paint2_linear_788_365)"/>
<defs>
<linearGradient id="paint0_linear_788_365" x1="33.06" y1="-0.750024" x2="-5.6408" y2="25.2897" gradientUnits="userSpaceOnUse">
<stop stop-color="#00CBB2"/>
<stop offset="0.51" stop-color="#1B79DC"/>
<stop offset="1" stop-color="#9A49D3"/>
</linearGradient>
<linearGradient id="paint1_linear_788_365" x1="33.134" y1="-0.507622" x2="-1.77865" y2="29.6974" gradientUnits="userSpaceOnUse">
<stop stop-color="#00CBB2"/>
<stop offset="0.51" stop-color="#1B79DC"/>
<stop offset="1" stop-color="#9A49D3"/>
</linearGradient>
<linearGradient id="paint2_linear_788_365" x1="34.2723" y1="1.12571" x2="-7.13226" y2="21.4255" gradientUnits="userSpaceOnUse">
<stop stop-color="#00CBB2"/>
<stop offset="0.51" stop-color="#1B79DC"/>
<stop offset="1" stop-color="#9A49D3"/>
</linearGradient>
</defs>
</svg>
