<svg width="34" height="34" viewBox="0 0 34 34" fill="none" xmlns="http://www.w3.org/2000/svg">
<g clip-path="url(#clip0_334_27)">
<path d="M17.0003 33.6783C26.2113 33.6783 33.6783 26.2113 33.6783 17.0003C33.6783 7.78927 26.2113 0.322266 17.0003 0.322266C7.78927 0.322266 0.322266 7.78927 0.322266 17.0003C0.322266 26.2113 7.78927 33.6783 17.0003 33.6783Z" fill="url(#paint0_linear_334_27)"/>
<path d="M23.2103 22.1006L23.9512 17.3933H19.3166V14.3399C19.3166 13.0517 19.9629 11.7954 22.0387 11.7954H24.147V7.78779C24.147 7.78779 22.2344 7.46973 20.4067 7.46973C16.5881 7.46973 14.0946 9.72476 14.0946 13.8055V17.3933H9.85156V22.1006H14.0946V33.4809C14.9463 33.6113 15.8178 33.6781 16.7055 33.6781C17.5933 33.6781 18.4648 33.6113 19.3166 33.4809V22.1006H23.2103Z" fill="white"/>
</g>
<defs>
<linearGradient id="paint0_linear_334_27" x1="17.0003" y1="0.322266" x2="17.0003" y2="33.5794" gradientUnits="userSpaceOnUse">
<stop stop-color="#18ACFE"/>
<stop offset="1" stop-color="#0163E0"/>
</linearGradient>
<clipPath id="clip0_334_27">
<rect width="34" height="34" fill="white"/>
</clipPath>
</defs>
</svg>
