<svg width="40" height="34" viewBox="0 0 40 34" fill="none" xmlns="http://www.w3.org/2000/svg">
<g clip-path="url(#clip0_334_20)">
<path fill-rule="evenodd" clip-rule="evenodd" d="M40 4.17546C38.5303 4.85022 36.9478 5.30654 35.2879 5.51042C36.983 4.46187 38.2837 2.79924 38.8965 0.818636C37.3094 1.78952 35.5556 2.49583 33.682 2.87447C32.1888 1.2264 30.0546 0.197266 27.6927 0.197266C23.1637 0.197266 19.4893 3.99584 19.4893 8.68034C19.4893 9.3454 19.5598 9.99104 19.7006 10.6124C12.8802 10.258 6.83453 6.88421 2.78453 1.74582C2.07783 3.00311 1.67399 4.46187 1.67399 6.01528C1.67399 8.95705 3.12262 11.5542 5.32488 13.076C3.98193 13.0348 2.71409 12.6488 1.60591 12.0178V12.1221C1.60591 16.2338 4.43505 19.6634 8.19158 20.4401C7.50366 20.6392 6.77819 20.7387 6.02923 20.7387C5.50097 20.7387 4.98444 20.6877 4.48435 20.5882C5.52914 23.9572 8.55783 26.4111 12.15 26.4766C9.34201 28.7533 5.80148 30.1101 1.95808 30.1101C1.296 30.1101 0.640957 30.0713 0 29.9936C3.63209 32.3966 7.94741 33.8019 12.5797 33.8019C27.6762 33.8019 35.9289 20.877 35.9289 9.66579C35.9289 9.29685 35.9218 8.92792 35.9077 8.56626C37.5113 7.36965 38.9036 5.87693 40 4.17546Z" fill="#00AAEC"/>
</g>
<defs>
<clipPath id="clip0_334_20">
<rect width="40" height="34" fill="white"/>
</clipPath>
</defs>
</svg>
