<svg width="34" height="34" viewBox="0 0 34 34" fill="none" xmlns="http://www.w3.org/2000/svg">
<g clip-path="url(#clip0_334_24)">
<path d="M17.0002 33.9652C26.3697 33.9652 33.9652 26.3697 33.9652 17.0002C33.9652 7.63065 26.3697 0.0351562 17.0002 0.0351562C7.63065 0.0351562 0.0351562 7.63065 0.0351562 17.0002C0.0351562 26.3697 7.63065 33.9652 17.0002 33.9652Z" fill="#FF0000"/>
<path fill-rule="evenodd" clip-rule="evenodd" d="M26.5856 10.5352C26.9241 10.8737 27.1681 11.295 27.2931 11.7572C28.0132 14.6557 27.8468 19.2334 27.3071 22.2438C27.1821 22.7059 26.9381 23.1272 26.5996 23.4658C26.261 23.8043 25.8397 24.0483 25.3776 24.1733C23.6858 24.6347 16.8764 24.6347 16.8764 24.6347C16.8764 24.6347 10.0671 24.6347 8.37525 24.1733C7.91312 24.0483 7.4918 23.8043 7.15326 23.4658C6.81472 23.1272 6.57077 22.7059 6.44573 22.2438C5.72141 19.3578 5.91999 14.7773 6.43174 11.7712C6.55677 11.309 6.80073 10.8876 7.13926 10.5491C7.4778 10.2106 7.89913 9.96669 8.36125 9.84157C10.0531 9.38021 16.8624 9.36621 16.8624 9.36621C16.8624 9.36621 23.6718 9.36621 25.3636 9.82766C25.8257 9.95269 26.2471 10.1966 26.5856 10.5352ZM20.344 17.0005L14.6952 20.2723V13.7286L20.344 17.0005Z" fill="white"/>
</g>
<defs>
<clipPath id="clip0_334_24">
<rect width="34" height="34" fill="white"/>
</clipPath>
</defs>
</svg>
