<svg width="24" height="24" viewBox="0 0 24 24" fill="none" xmlns="http://www.w3.org/2000/svg">
<path d="M9.75713 11.9999L15.8111 5.95089C16.0253 5.7362 16.1454 5.44522 16.145 5.14198C16.1447 4.83873 16.0238 4.54806 15.8091 4.33389C15.5944 4.11973 15.3035 3.99963 15.0002 4C14.697 4.00038 14.4063 4.1212 14.1921 4.33589L7.33313 11.1899C7.12564 11.3979 7.0064 11.678 7.00025 11.9718C6.9941 12.2655 7.10152 12.5504 7.30013 12.7669L14.1881 19.6669C14.4023 19.8816 14.693 20.0024 14.9962 20.0028C15.2995 20.0032 15.5904 19.8831 15.8051 19.6689C16.0198 19.4547 16.1407 19.1641 16.141 18.8608C16.1414 18.5576 16.0213 18.2666 15.8071 18.0519L9.75713 11.9999Z" fill="#9F9EA7"/>
</svg>
