<svg width="24" height="24" viewBox="0 0 24 24" fill="none" xmlns="http://www.w3.org/2000/svg">
<path d="M13.3879 12.0009L7.33389 5.95089C7.22785 5.84459 7.14378 5.71844 7.0865 5.57964C7.02921 5.44085 6.99982 5.29213 7 5.14198C7.00019 4.99183 7.02995 4.84318 7.08758 4.70453C7.14521 4.56588 7.22959 4.43994 7.33589 4.33389C7.4422 4.22785 7.56835 4.14378 7.70714 4.0865C7.84594 4.02921 7.99465 3.99982 8.14481 4C8.29496 4.00019 8.4436 4.02995 8.58226 4.08758C8.72091 4.14521 8.84685 4.22959 8.95289 4.33589L15.8119 11.1899C16.0194 11.3979 16.1386 11.678 16.1448 11.9718C16.1509 12.2655 16.0435 12.5504 15.8449 12.7669L8.95689 19.6669C8.85085 19.7732 8.72491 19.8576 8.58626 19.9152C8.4476 19.9728 8.29896 20.0026 8.14881 20.0028C7.99865 20.003 7.84994 19.9736 7.71114 19.9163C7.57235 19.859 7.4462 19.7749 7.33989 19.6689C7.23359 19.5629 7.14921 19.4369 7.09158 19.2983C7.03395 19.1596 7.00419 19.011 7.004 18.8608C7.00381 18.7107 7.03321 18.5619 7.0905 18.4231C7.14778 18.2843 7.23185 18.1582 7.33789 18.0519L13.3879 12.0009Z" fill="#9F9EA7"/>
</svg>
