<svg width="24" height="24" viewBox="0 0 24 24"  xmlns="http://www.w3.org/2000/svg">
<path d="M18.7162 15.4611L14.8062 11.5511L12.2632 14.0941L9.89724 11.7421L12.4472 9.19217L8.53724 5.28214C8.44914 5.19257 8.34361 5.12199 8.22716 5.07486C8.11071 5.02773 7.98582 5.00501 7.86023 5.00809C7.73599 5.0104 7.61348 5.03767 7.49994 5.08817C7.38641 5.13867 7.28415 5.21143 7.19924 5.30216C5.73327 6.83911 4.92664 8.88853 4.95174 11.0124C4.97684 13.1362 5.83168 15.1659 7.33356 16.6678C8.83544 18.1696 10.8652 19.0245 12.989 19.0496C15.1129 19.0747 17.1623 18.2681 18.6992 16.8022C18.7903 16.7168 18.8633 16.6138 18.9138 16.4997C18.9643 16.3855 18.9914 16.2624 18.9933 16.1376C18.9953 16.0128 18.9721 15.8888 18.9252 15.7731C18.8783 15.6574 18.8086 15.5524 18.7202 15.4641M8.34824 15.6571C7.14723 14.4653 6.43541 12.8674 6.3527 11.1774C6.26998 9.48741 6.82235 7.8275 7.90123 6.52408L10.5722 9.1951L8.96125 10.8051C8.8387 10.9275 8.74147 11.0729 8.67514 11.2329C8.60881 11.3929 8.57468 11.5644 8.57468 11.7376C8.57468 11.9108 8.60881 12.0823 8.67514 12.2423C8.74147 12.4023 8.8387 12.5477 8.96125 12.6701L11.3342 15.0431C11.4567 15.1657 11.602 15.2629 11.762 15.3293C11.922 15.3956 12.0935 15.4297 12.2667 15.4297C12.44 15.4297 12.6115 15.3956 12.7715 15.3293C12.9315 15.2629 13.0768 15.1657 13.1992 15.0431L14.8102 13.4331L17.4812 16.1042C16.1778 17.183 14.518 17.7353 12.828 17.6526C11.138 17.5699 9.54008 16.8581 8.34824 15.6571"/>
</svg>
