<svg xmlns="http://www.w3.org/2000/svg" width="24" height="24" fill="none" viewBox="0 0 24 24">
  <g id="Group_854" data-name="Group 854" transform="translate(-63.318 -518.644)">
    <path id="Path_346" data-name="Path 346" d="M213.661,1530.673l-3.91-3.91-2.543,2.543-2.366-2.352,2.55-2.55-3.91-3.91a.918.918,0,0,0-.677-.274.929.929,0,0,0-.661.294,8.134,8.134,0,0,0,11.5,11.5.931.931,0,0,0,.021-1.338m-10.372.193a6.778,6.778,0,0,1-.447-9.133l2.671,2.671-1.611,1.61a1.318,1.318,0,0,0,0,1.865l2.373,2.373a1.318,1.318,0,0,0,1.865,0l1.611-1.61,2.671,2.671a6.778,6.778,0,0,1-9.133-.447" transform="translate(-131.627 -996.566)"/>
  </g>
  <defs>
  <clipPath id="clip_2384">
    <rect id="Rectangle_373" data-name="Rectangle 373" width="24" height="24" transform="translate(63.318 518.644)" fill="none"/>
  </clipPath>
  </defs>
</svg>
