 <svg width="36" height="36" viewBox="0 0 36 36"  xmlns="http://www.w3.org/2000/svg">
<g clip-path="url(#clip0_749_358)">
<path fill-rule="evenodd" clip-rule="evenodd" d="M22.3443 19.0989L22.8619 15.8522H19.6211V13.7445C19.5991 13.5023 19.6341 13.2586 19.7233 13.0311C19.8125 12.8036 19.9537 12.5983 20.1366 12.4303C20.3194 12.2623 20.5393 12.1358 20.7797 12.0604C21.0202 11.9849 21.2753 11.9624 21.5261 11.9943H23V9.23171C22.1345 9.097 21.2598 9.02339 20.3831 9.01147C19.7796 8.96724 19.1733 9.05131 18.6073 9.25753C18.0413 9.46375 17.5295 9.78711 17.1082 10.2047C16.6869 10.6224 16.3665 11.124 16.1696 11.674C15.9727 12.224 15.9042 12.8089 15.969 13.3872V15.8668H13V19.1135H15.969V27H19.6211V19.1135L22.3443 19.0989ZM18.0527 1.5C14.7789 1.5 11.5786 2.47085 8.85651 4.28968C6.13444 6.10849 4.01281 8.69372 2.75998 11.7183C1.50715 14.7429 1.17938 18.0709 1.81807 21.2818C2.45676 24.4927 4.03321 27.4422 6.34813 29.7571C8.66306 32.072 11.6125 33.6485 14.8234 34.2872C18.0343 34.9259 21.3625 34.598 24.3871 33.3452C27.4117 32.0924 29.9968 29.9709 31.8157 27.2488C33.6345 24.5268 34.6053 21.3264 34.6053 18.0526C34.6053 13.6626 32.8614 9.45238 29.7572 6.34818C26.6529 3.24397 22.4427 1.5 18.0527 1.5ZM8.30094 3.4582C11.1875 1.52951 14.5811 0.5 18.0527 0.5C22.7079 0.5 27.1725 2.34933 30.4643 5.64107C33.756 8.93281 35.6053 13.3974 35.6053 18.0526C35.6053 21.5242 34.5758 24.9179 32.6471 27.8044C30.7184 30.6909 27.9771 32.9406 24.7698 34.2691C21.5625 35.5976 18.0332 35.9453 14.6283 35.268C11.2234 34.5907 8.09581 32.919 5.64103 30.4642C3.18624 28.0094 1.51456 24.8818 0.837285 21.4769C0.160012 18.0721 0.507582 14.5429 1.8361 11.3356C3.16462 8.12831 5.41442 5.38691 8.30094 3.4582Z" />
</g>
<defs>
<clipPath id="clip0_749_358">
<rect width="36" height="36" fill="white"/>
</clipPath>
</defs>
</svg>
