<svg width="24" height="24" viewBox="0 0 24 24"  xmlns="http://www.w3.org/2000/svg">
<path d="M11.9996 2.94141C10.1589 2.94352 8.39415 3.67569 7.09254 4.97729C5.79094 6.2789 5.05876 8.04365 5.05664 9.8844C5.05664 13.4844 10.7426 19.7064 11.3906 20.4044L11.9996 21.0604L12.6086 20.4044C13.2566 19.7044 18.9426 13.4834 18.9426 9.8844C18.9405 8.04365 18.2084 6.2789 16.9068 4.97729C15.6051 3.67569 13.8404 2.94352 11.9996 2.94141ZM11.9996 18.5964C10.1066 16.4394 6.71965 12.1154 6.71965 9.8844C6.71965 8.48406 7.27592 7.14107 8.26611 6.15088C9.25631 5.16069 10.5993 4.60437 11.9996 4.60437C13.4 4.60437 14.743 5.16069 15.7332 6.15088C16.7234 7.14107 17.2796 8.48406 17.2796 9.8844C17.2796 12.1154 13.8916 16.4384 11.9996 18.5964Z" />
<path d="M11.9996 6.33936C11.3563 6.33936 10.7273 6.53013 10.1924 6.88757C9.65743 7.24502 9.24049 7.75313 8.99428 8.34753C8.74806 8.94194 8.68364 9.59603 8.80916 10.2271C8.93467 10.8581 9.24449 11.4376 9.69943 11.8926C10.1544 12.3475 10.734 12.6573 11.365 12.7828C11.996 12.9084 12.6501 12.844 13.2445 12.5978C13.8389 12.3516 14.347 11.9346 14.7044 11.3997C15.0619 10.8647 15.2527 10.2358 15.2527 9.59241C15.2516 8.72998 14.9085 7.90316 14.2987 7.29333C13.6889 6.68351 12.8621 6.34041 11.9996 6.33936ZM11.9996 11.1824C11.6852 11.1824 11.3778 11.0891 11.1163 10.9144C10.8548 10.7397 10.651 10.4913 10.5307 10.2008C10.4103 9.91027 10.3788 9.59066 10.4402 9.28223C10.5015 8.9738 10.653 8.69051 10.8753 8.46814C11.0977 8.24577 11.381 8.09431 11.6895 8.03296C11.9979 7.97161 12.3176 8.00307 12.6081 8.12341C12.8987 8.24376 13.147 8.44751 13.3217 8.70898C13.4964 8.97046 13.5896 9.27793 13.5896 9.59241C13.5894 10.014 13.4218 10.4183 13.1237 10.7164C12.8255 11.0146 12.4213 11.1821 11.9996 11.1824Z" />
</svg>
