<svg width="16" height="20" viewBox="0 0 26 24"   xmlns="http://www.w3.org/2000/svg">
<g clip-path="url(#clip0_790_327)">
<path d="M8.125 3.875C9.02383 3.875 9.75 3.14883 9.75 2.25C9.75 1.35117 9.02383 0.625 8.125 0.625H4.875C2.18359 0.625 0 2.80859 0 5.5V18.5C0 21.1914 2.18359 23.375 4.875 23.375H8.125C9.02383 23.375 9.75 22.6488 9.75 21.75C9.75 20.8512 9.02383 20.125 8.125 20.125H4.875C3.97617 20.125 3.25 19.3988 3.25 18.5V5.5C3.25 4.60117 3.97617 3.875 4.875 3.875H8.125ZM25.6191 12.8836C25.8629 12.6551 26 12.3352 26 12C26 11.6648 25.8629 11.3449 25.6191 11.1164L18.3066 4.21016C17.9512 3.875 17.4332 3.78359 16.9863 3.97656C16.5395 4.16953 16.25 4.61133 16.25 5.09375V8.75H9.75C8.85117 8.75 8.125 9.47617 8.125 10.375V13.625C8.125 14.5238 8.85117 15.25 9.75 15.25H16.25V18.9062C16.25 19.3938 16.5395 19.8305 16.9863 20.0234C17.4332 20.2164 17.9512 20.125 18.3066 19.7898L25.6191 12.8836Z" fill="black"/>
</g>
<defs>
<clipPath id="clip0_790_327">
<rect width="26" height="24" fill="white"/>
</clipPath>
</defs>
</svg>
