<svg width="24" height="24" viewBox="0 0 24 24" xmlns="http://www.w3.org/2000/svg">
<path d="M19.1001 11.3344C18.9298 9.56941 18.1082 7.93118 16.7955 6.73914C15.4828 5.54709 13.7733 4.88672 12.0001 4.88672C10.227 4.88672 8.51741 5.54709 7.20476 6.73914C5.89211 7.93118 5.07049 9.56941 4.90013 11.3344H4.86914V12.6624H4.90013C5.07049 14.4273 5.89211 16.0655 7.20476 17.2576C8.51741 18.4496 10.227 19.11 12.0001 19.11C13.7733 19.11 15.4828 18.4496 16.7955 17.2576C18.1082 16.0655 18.9298 14.4273 19.1001 12.6624H19.1311V11.3344H19.1001ZM17.7651 11.3344H15.0771C15.058 9.6992 14.7183 8.08368 14.0771 6.57935C15.0666 6.96083 15.933 7.60533 16.5828 8.44336C17.2326 9.28138 17.6411 10.2811 17.7641 11.3344M11.9981 17.8024C11.4361 17.8024 10.3751 15.9944 10.2481 12.6624H13.7481C13.6221 15.9944 12.5601 17.8024 11.9981 17.8024ZM10.2481 11.3344C10.3741 8.00235 11.4361 6.19434 11.9981 6.19434C12.5601 6.19434 13.6211 8.00235 13.7481 11.3344H10.2481ZM9.91913 6.57935C9.27798 8.08368 8.93823 9.6992 8.91913 11.3344H6.23114C6.3542 10.2811 6.76268 9.28138 7.41248 8.44336C8.06228 7.60533 8.92869 6.96083 9.91814 6.57935M6.23114 12.6624H8.92314C8.94224 14.2975 9.28199 15.913 9.92314 17.4174C8.9337 17.0359 8.06728 16.3912 7.41748 15.5532C6.76768 14.7152 6.35919 13.7156 6.23613 12.6624M14.0811 17.4174C14.7223 15.913 15.062 14.2975 15.0811 12.6624H17.7691C17.6461 13.7156 17.2376 14.7152 16.5878 15.5532C15.938 16.3912 15.0716 17.0359 14.0821 17.4174" />
</svg>
