<svg width="67" height="67" viewBox="0 0 67 67" fill="none" xmlns="http://www.w3.org/2000/svg">
<g clip-path="url(#clip0_322_34)">
<path fill-rule="evenodd" clip-rule="evenodd" d="M21.5899 55.8954L8.49271 64.1673L10.7875 49.6737C5.3437 44.6562 2.30664 37.6864 2.30664 29.9812C2.30664 14.6969 14.2566 2.30664 33.237 2.30664C52.2174 2.30664 64.1673 14.6969 64.1673 29.9812C64.1673 45.2654 52.2174 57.6557 33.237 57.6557C28.983 57.6557 25.0822 57.0333 21.5899 55.8954Z" stroke="black" stroke-width="4" stroke-linecap="round" stroke-linejoin="round"/>
<path fill-rule="evenodd" clip-rule="evenodd" d="M35.2622 30C36.3643 30 37.2578 30.8954 37.2578 32C37.2578 33.0257 36.4874 33.871 35.4949 33.9865L35.2622 34C34.1513 34 33.2578 33.1046 33.2578 32C33.2578 30.9743 34.0282 30.129 35.0207 30.0135L35.2622 30Z" fill="black"/>
<path fill-rule="evenodd" clip-rule="evenodd" d="M23.0044 30C24.1065 30 25 30.8954 25 32C25 33.0257 24.2296 33.871 23.2371 33.9865L23.0044 34C21.8935 34 21 33.1046 21 32C21 30.9743 21.7704 30.129 22.7629 30.0135L23.0044 30Z" fill="black"/>
<path fill-rule="evenodd" clip-rule="evenodd" d="M46.4145 30C47.5167 30 48.4102 30.8954 48.4102 32C48.4102 33.0257 47.6398 33.871 46.6473 33.9865L46.4145 34C45.3036 34 44.4102 33.1046 44.4102 32C44.4102 30.9743 45.1805 30.129 46.173 30.0135L46.4145 30Z" fill="black"/>
</g>
<defs>
<clipPath id="clip0_322_34">
<rect width="67" height="67" fill="white"/>
</clipPath>
</defs>
</svg>
