<svg width="36" height="36" viewBox="0 0 36 36" fill="none" stroke="none" xmlns="http://www.w3.org/2000/svg">
<circle cx="18" cy="18" r="17.5"/>
<path d="M18.5 11C13.8055 11 10 13.9256 10 17.5348C10 19.3014 10.9134 20.9031 12.3952 22.0794L12.3976 26L16.8399 23.9441C17.377 24.0257 17.9317 24.0695 18.5 24.0695C23.1945 24.0695 27 21.1437 27 17.5348C27 13.9256 23.1945 11 18.5 11ZM14.9217 18.9078C14.2609 18.9078 13.7252 18.3613 13.7252 17.6873C13.7252 17.0133 14.2609 16.4668 14.9217 16.4668C15.5824 16.4668 16.1181 17.0133 16.1181 17.6873C16.1181 18.3613 15.5824 18.9078 14.9217 18.9078ZM18.4958 18.9078C17.8351 18.9078 17.2993 18.3613 17.2993 17.6873C17.2993 17.0133 17.8351 16.4668 18.4958 16.4668C19.1566 16.4668 19.6923 17.0133 19.6923 17.6873C19.6924 18.3613 19.1567 18.9078 18.4958 18.9078ZM22.0209 18.9078C21.36 18.9078 20.8244 18.3613 20.8244 17.6873C20.8244 17.0133 21.36 16.4668 22.0209 16.4668C22.6818 16.4668 23.2174 17.0133 23.2174 17.6873C23.2174 18.3613 22.6818 18.9078 22.0209 18.9078Z"/>
</svg>
