<svg width="36" height="36" viewBox="0 0 36 36" fill="none" stroke="none" xmlns="http://www.w3.org/2000/svg">
<circle cx="18" cy="18" r="17.5"/>
<path d="M13.5714 19.6875L20.4285 25.0312M20.4285 12.5625L13.5714 17.3125M9 18.5484V18.4515C9 17.1666 10.0233 16.125 11.2857 16.125C12.5481 16.125 13.5714 17.1666 13.5714 18.4515V18.5484C13.5714 19.8334 12.5481 20.875 11.2857 20.875C10.0233 20.875 9 19.8334 9 18.5484ZM20.4285 11.4235V11.3265C20.4285 10.0416 21.4519 9 22.7143 9C23.9767 9 25 10.0416 25 11.3265V11.4235C25 12.7084 23.9767 13.75 22.7143 13.75C21.4519 13.75 20.4285 12.7084 20.4285 11.4235ZM20.4285 25.6734V25.5765C20.4285 24.2916 21.4519 23.25 22.7143 23.25C23.9767 23.25 25 24.2916 25 25.5765V25.6734C25 26.9584 23.9767 28 22.7143 28C21.4519 28 20.4285 26.9584 20.4285 25.6734Z" stroke-width="2.5" stroke-linecap="round" stroke-linejoin="round"/>
</svg>
