<svg width="67" height="67" viewBox="0 0 67 67" fill="none" xmlns="http://www.w3.org/2000/svg">
<g clip-path="url(#clip0_323_20)">
<path d="M55.7057 45.158C52.1949 45.1647 49.086 46.8923 47.1807 49.5416L47.1585 49.5726L21.3057 36.6463C21.6433 35.7092 21.8387 34.6277 21.8387 33.4996C21.8387 32.3715 21.6433 31.2901 21.2857 30.2863L21.3057 30.353L47.1585 17.4288C49.0904 20.0714 52.1793 21.7657 55.6657 21.7657C61.4705 21.7657 66.1761 17.0602 66.1761 11.2554C66.1761 5.45066 61.4705 0.745117 55.6657 0.745117C49.861 0.745117 45.1554 5.45066 45.1554 11.2554C45.1554 11.2687 45.1554 11.2821 45.1554 11.2954C45.171 12.4257 45.3664 13.5027 45.7106 14.5109L45.6884 14.4376L19.8357 27.364C17.8993 24.6792 14.7793 22.9516 11.2551 22.9516C5.43034 22.9516 0.707031 27.6749 0.707031 33.4996C0.707031 39.3244 5.43034 44.0477 11.2551 44.0477C14.7793 44.0477 17.8993 42.32 19.8157 39.6641L19.8379 39.633L45.6906 52.5594C45.3664 53.4965 45.1732 54.5757 45.1577 55.6994V55.7061C45.1577 61.5308 49.881 66.2541 55.7057 66.2541C61.5305 66.2541 66.2538 61.5308 66.2538 55.7061C66.2538 49.8813 61.5305 45.158 55.7057 45.158ZM55.7057 4.07608C59.6918 4.07608 62.9228 7.30712 62.9228 11.2932C62.9228 15.2792 59.6918 18.5103 55.7057 18.5103C51.7197 18.5103 48.4886 15.2792 48.4886 11.2932C48.4931 7.30934 51.7219 4.08052 55.7057 4.07608ZM11.2928 40.7167C7.30679 40.7167 4.07575 37.4857 4.07575 33.4996C4.07575 29.5136 7.30679 26.2825 11.2928 26.2825C15.2789 26.2825 18.5099 29.5136 18.5099 33.4996C18.5055 37.4835 15.2767 40.7123 11.2928 40.7167ZM55.7057 62.9231C51.7197 62.9231 48.4886 59.6921 48.4886 55.7061C48.4886 51.72 51.7197 48.489 55.7057 48.489C59.6918 48.489 62.9228 51.72 62.9228 55.7061C62.9206 59.6899 59.6896 62.9209 55.7057 62.9231Z" fill="black"/>
</g>
<defs>
<clipPath id="clip0_323_20">
<rect width="67" height="67" fill="white"/>
</clipPath>
</defs>
</svg>
