 <svg width="36" height="36" viewBox="0 0 36 36"   xmlns="http://www.w3.org/2000/svg">
<g clip-path="url(#clip0_749_353)">
<path fill-rule="evenodd" clip-rule="evenodd" d="M8.62033 4.07143C11.3341 2.25817 14.5245 1.29029 17.7883 1.29029C22.1648 1.29029 26.3622 3.02892 29.4569 6.12362C32.5516 9.21833 34.2902 13.4157 34.2902 17.7923C34.2902 21.056 33.3223 24.2466 31.5091 26.9603C29.6958 29.674 27.1186 31.789 24.1033 33.038C21.0879 34.287 17.7699 34.6139 14.5689 33.9772C11.3678 33.3404 8.42753 31.7687 6.11969 29.4609C3.81187 27.1531 2.24021 24.2126 1.60348 21.0116C0.966749 17.8105 1.29351 14.4926 2.5425 11.4773C3.79149 8.46199 5.90661 5.88468 8.62033 4.07143ZM17.7883 0.261719C14.3211 0.261719 10.9318 1.28993 8.04889 3.2162C5.16602 5.14247 2.91906 7.88043 1.59222 11.0837C0.265385 14.287 -0.0817452 17.8116 0.594671 21.2122C1.27109 24.6128 2.9407 27.7365 5.39238 30.1882C7.84406 32.6399 10.9676 34.3095 14.3682 34.986C17.7688 35.6624 21.2936 35.3151 24.4969 33.9883C27.7002 32.6614 30.438 30.4146 32.3643 27.5317C34.2906 24.6489 35.3187 21.2595 35.3187 17.7923C35.3187 13.1429 33.4718 8.68391 30.1842 5.39631C26.8966 2.10872 22.4376 0.261719 17.7883 0.261719ZM12.1646 23.654C11.2137 23.8889 10.2258 23.9334 9.25764 23.7847L9.24375 23.7893L9.32398 23.8495C10.0898 24.3616 10.9198 24.7704 11.7926 25.0652C13.5066 25.6347 15.3358 25.7668 17.1138 25.4494C18.7319 25.2158 20.2609 24.5639 21.5496 23.558C22.9049 22.5213 23.9951 21.1779 24.7305 19.6381C25.4659 18.0984 25.8256 16.4061 25.7801 14.7003C25.7757 14.6555 25.7838 14.6103 25.8034 14.5698C25.823 14.5292 25.8534 14.495 25.8912 14.4705C26.3986 14.0905 26.8549 13.6465 27.2489 13.1497C27.3966 12.967 27.5328 12.7773 27.6673 12.5897C27.6873 12.5619 27.7073 12.5341 27.7272 12.5064C27.0942 12.7698 26.4324 12.9578 25.7554 13.0665C26.4498 12.562 26.9498 11.8342 27.1717 11.0051L27.0174 11.0978C26.3474 11.4939 25.6181 11.7798 24.8575 11.9447C24.8249 11.9556 24.7899 11.9567 24.7567 11.9479C24.7236 11.9392 24.6937 11.9209 24.6708 11.8954C24.2596 11.4759 23.7535 11.1614 23.1952 10.9786C22.6369 10.7957 22.0429 10.7497 21.4632 10.8447C20.5015 10.983 19.6311 11.489 19.0352 12.2562C18.4392 13.0235 18.1641 13.992 18.2679 14.9579C18.2743 15.015 18.2809 15.0712 18.2879 15.13C18.2962 15.2 18.305 15.2738 18.3142 15.3576C16.8509 15.2666 15.4227 14.8712 14.1209 14.1967C12.8191 13.5222 11.6724 12.5834 10.7542 11.4404C10.2636 12.2321 10.0875 13.1789 10.2605 14.094C10.4282 15.0137 10.9313 15.8384 11.6722 16.4083C11.1391 16.3523 10.6244 16.1818 10.1633 15.9085C10.1331 16.7512 10.3815 17.5803 10.8702 18.2676C11.3588 18.9548 12.0604 19.4619 12.8664 19.7101C12.3903 19.7883 11.9042 19.7831 11.43 19.6946C11.6534 20.4339 12.0942 21.0886 12.6948 21.574C13.2955 22.0594 14.0284 22.3528 14.798 22.4161C14.0105 22.9984 13.1155 23.4192 12.1646 23.654Z"  />
</g>
<defs>
<clipPath id="clip0_749_353">
<rect width="36" height="36" fill="white"/>
</clipPath>
</defs>
</svg>
