<svg width="16" height="20" viewBox="0 0 20 23"   xmlns="http://www.w3.org/2000/svg">
<g clip-path="url(#clip0_790_329)">
<path d="M12.1429 13.6562H7.85714C3.51786 13.6562 0 17.1961 0 21.5625C0 22.3563 0.639732 23 1.42857 23H18.5714C19.3603 23 20 22.3563 20 21.5625C20 17.1961 16.4821 13.6562 12.1429 13.6562ZM2.18705 20.8438C2.53973 18.0092 4.94643 15.8125 7.85714 15.8125H12.1429C15.0518 15.8125 17.4598 18.0114 17.8125 20.8438H2.18705ZM10 11.5C13.1558 11.5 15.7143 8.92553 15.7143 5.75C15.7143 2.57447 13.1558 0 10 0C6.8442 0 4.28571 2.57447 4.28571 5.75C4.28571 8.92598 6.84375 11.5 10 11.5ZM10 2.15625C11.9692 2.15625 13.5714 3.7685 13.5714 5.75C13.5714 7.7315 11.9692 9.34375 10 9.34375C8.0308 9.34375 6.42857 7.73105 6.42857 5.75C6.42857 3.7685 8.03125 2.15625 10 2.15625Z" fill="black"/>
</g>
<defs>
<clipPath id="clip0_790_329">
<rect width="20" height="23" fill="white"/>
</clipPath>
</defs>
</svg>
