<svg width="36" height="35" viewBox="0 0 36 35"  xmlns="http://www.w3.org/2000/svg">
<path fill-rule="evenodd" clip-rule="evenodd" d="M17.5162 1C14.2496 1 11.0564 1.96872 8.34029 3.78354C5.62422 5.59836 3.50729 8.1779 2.25722 11.1958C1.00715 14.2138 0.680083 17.5345 1.31736 20.7383C1.95464 23.9422 3.52766 26.8852 5.83749 29.195C8.14732 31.5048 11.0902 33.0779 14.294 33.7152C17.4979 34.3524 20.8187 34.0253 23.8367 32.7752C26.8546 31.5251 29.4341 29.4083 31.2489 26.6922C33.0637 23.9762 34.0324 20.7828 34.0324 17.5163C34.0324 13.1359 32.2923 8.9349 29.1949 5.83752C26.0975 2.74013 21.8965 1 17.5162 1ZM7.78472 2.95207C10.6652 1.02738 14.0518 0 17.5162 0C22.1618 0 26.6171 1.84549 29.902 5.13041C33.1869 8.41533 35.0324 12.8707 35.0324 17.5163C35.0324 20.9806 34.0051 24.3673 32.0804 27.2478C30.1556 30.1283 27.42 32.3733 24.2193 33.6991C21.0187 35.0248 17.4968 35.3718 14.099 34.6959C10.7011 34.0201 7.58006 32.3518 5.13038 29.9021C2.6807 27.4524 1.01244 24.3312 0.336578 20.9334C-0.339288 17.5356 0.00758493 14.0138 1.33334 10.8132C2.6591 7.6125 4.90419 4.87678 7.78472 2.95207ZM17.5074 7.44051C15.7883 7.44059 14.1 7.89736 12.6152 8.76396C11.1304 9.63055 9.90248 10.876 9.05691 12.3729C8.21135 13.8697 7.77853 15.5642 7.80271 17.2832C7.82688 19.0022 8.30718 20.6839 9.19449 22.1564L7.44336 27.3636L12.8156 25.6433C14.1121 26.3582 15.555 26.767 17.0339 26.8385C18.5128 26.9099 19.9884 26.6422 21.3478 26.0556C22.7072 25.469 23.9144 24.579 24.877 23.4541C25.8396 22.3291 26.5321 20.9989 26.9015 19.5651C27.2709 18.1313 27.3074 16.6321 27.0081 15.1821C26.7089 13.7321 26.0819 12.3696 25.1752 11.1992C24.2684 10.0287 23.1059 9.08129 21.7766 8.42928C20.4473 7.77728 18.9864 7.43804 17.5059 7.4375M22.966 21.0023C22.7666 21.3374 22.4985 21.6266 22.1795 21.8507C21.8604 22.0749 21.4975 22.229 21.1146 22.3029C20.6132 22.3492 20.6132 22.7134 17.8314 21.618C15.9146 20.7106 14.2941 19.2785 13.1581 17.4877C12.5184 16.6733 12.1302 15.6899 12.0411 14.6582C12.0334 14.2321 12.1147 13.8092 12.2796 13.4163C12.4446 13.0234 12.6897 12.6691 12.9992 12.3763C13.0906 12.2719 13.2026 12.1875 13.3282 12.1286C13.4538 12.0696 13.5902 12.0373 13.7289 12.0337C13.911 12.0337 14.0931 12.0568 14.2535 12.0568C14.414 12.0568 14.6408 11.9643 14.8707 12.5198C15.1006 13.0752 15.6421 14.4143 15.7146 14.55C15.7579 14.6216 15.7827 14.7027 15.7867 14.7862C15.7908 14.8697 15.7739 14.9531 15.7377 15.0284C15.6696 15.1951 15.5776 15.3509 15.4647 15.4912C15.3273 15.6455 15.1777 15.8477 15.0543 15.9695C14.9308 16.0914 14.775 16.2533 14.9339 16.528C15.3447 17.2311 15.8573 17.8696 16.4552 18.4226C17.1039 18.9998 17.8485 19.4593 18.6553 19.7804C18.9284 19.9177 19.0888 19.8946 19.2478 19.7126C19.4067 19.5305 19.9328 18.9148 20.1133 18.6324C20.2938 18.3501 20.4774 18.4056 20.7304 18.4967C20.9835 18.5877 22.3257 19.2496 22.6004 19.3854C22.875 19.5212 23.0632 19.5907 23.125 19.7048C23.201 20.1442 23.1474 20.5961 22.9707 21.0055"  />
</svg>