<svg xmlns="http://www.w3.org/2000/svg" width="24" height="24.057" stroke="none" fill="none" viewBox="0 0 24 24.057">
  <g id="Group_860" data-name="Group 860" transform="translate(-89.841 -648.044)">
    <path id="Path_366" data-name="Path 366" d="M292.9,1896.925a1.788,1.788,0,0,0-1.253-.53c-1.75-.126-4.374-.126-4.374-.126h-.006s-2.625,0-4.374.126a1.787,1.787,0,0,0-1.253.53,2.706,2.706,0,0,0-.5,1.241,18.936,18.936,0,0,0-.125,2.024v.949a18.92,18.92,0,0,0,.125,2.023,2.705,2.705,0,0,0,.5,1.241,2.122,2.122,0,0,0,1.379.534c1,.1,4.251.126,4.251.126s2.627,0,4.377-.131a1.788,1.788,0,0,0,1.253-.529,2.706,2.706,0,0,0,.5-1.241,18.91,18.91,0,0,0,.125-2.023v-.949a18.927,18.927,0,0,0-.125-2.024,2.706,2.706,0,0,0-.5-1.241m-6.921,5.363v-3.513l3.378,1.763Z" transform="translate(-185.431 -1240.225)" fill-rule="evenodd"/>
    <path id="Path_368" data-name="Path 368" d="M286.183,1886.5a11.029,11.029,0,1,1-11.029-11.029A11.029,11.029,0,0,1,286.183,1886.5Z" transform="translate(-173.784 -1225.925)" fill="none" stroke-width="1"/>
  </g>
  <defs>
  <clipPath id="clip_2384">
    <rect id="Rectangle_378" data-name="Rectangle 378" width="24" height="24" transform="translate(89.841 648.044)" fill="none"/>
  </clipPath>
  </defs>
</svg>
