<svg width="17" height="13" viewBox="0 0 17 13"   xmlns="http://www.w3.org/2000/svg">
<g clip-path="url(#clip0_807_448)">
<path d="M13.6194 0.355469H3.38057C1.51647 0.355469 0 1.85123 0 3.68946V9.30102C0 11.1396 1.51647 12.635 3.38057 12.635H13.6194C15.4835 12.635 17 11.1393 17 9.30102V3.68946C17 1.85123 15.4835 0.355469 13.6194 0.355469ZM16.3061 9.30137C16.3061 10.7637 15.1009 11.9531 13.6194 11.9531H3.38057C1.89914 11.9531 0.693878 10.7634 0.693878 9.30137V3.68946C0.693878 2.22747 1.89914 1.03768 3.38057 1.03768H13.6194C15.1009 1.03768 16.3061 2.22747 16.3061 3.68946V9.30137Z" />
<path d="M11.5739 6.37193L6.76704 3.60384C6.66018 3.54244 6.52731 3.54142 6.41941 3.60213C6.31151 3.66285 6.2449 3.77576 6.2449 3.89822V9.43406C6.2449 9.55617 6.31151 9.66942 6.41906 9.73014C6.47249 9.76015 6.53216 9.77516 6.59184 9.77516C6.65255 9.77516 6.71292 9.75947 6.76704 9.72843L11.5739 6.96102C11.68 6.89996 11.7456 6.78774 11.7456 6.66665C11.7456 6.54555 11.6804 6.43299 11.5739 6.37193ZM6.93878 8.83882V4.49311L10.7121 6.66631L6.93878 8.83882Z" />
</g>
<defs>
<clipPath id="clip0_807_448">
<rect width="17" height="13" fill="white"/>
</clipPath>
</defs>
</svg>
