 <svg width="24" height="24" viewBox="0 0 30 30" fill="none" xmlns="http://www.w3.org/2000/svg">
<g clip-path="url(#clip0_777_325)">
<path fill-rule="evenodd" clip-rule="evenodd" d="M22.7943 10.1314C22.3656 9.69943 21.7833 9.45368 21.174 9.44767C18.9111 9.28513 15.518 9.28516 15.518 9.28516H15.5102C15.5102 9.28516 12.1159 9.28513 9.85422 9.44767C9.24489 9.45354 8.66257 9.69931 8.23397 10.1314C7.88753 10.6027 7.66521 11.1531 7.58742 11.7323C7.48683 12.5992 7.43287 13.4707 7.42578 14.3433V15.5676C7.43288 16.4398 7.48684 17.3109 7.58742 18.1773C7.66516 18.7566 7.88748 19.307 8.23397 19.7782C8.72634 20.2137 9.35919 20.4583 10.0172 20.4672C11.3103 20.5962 15.5141 20.6297 15.5141 20.6297C15.5141 20.6297 18.9111 20.6297 21.174 20.4607C21.7832 20.4551 22.3654 20.2097 22.7943 19.7782C23.1407 19.307 23.363 18.7566 23.4408 18.1773C23.5414 17.3109 23.5954 16.4398 23.6025 15.5676V14.3433C23.5954 13.4707 23.5415 12.5992 23.4408 11.7323C23.363 11.1531 23.1407 10.6027 22.7943 10.1314M13.8447 17.0498V12.518L18.2128 14.7922L13.8447 17.0498Z" fill="#5F79BB"/>
<path d="M29.1698 15.1303C29.1698 17.9443 28.3333 20.6951 26.7663 23.0349C25.1992 25.3747 22.9718 27.1982 20.3658 28.2751C17.7598 29.3519 14.8923 29.6338 12.1258 29.0848C9.35934 28.5358 6.81815 27.1807 4.82363 25.1909C2.8291 23.2011 1.47081 20.6659 0.92052 17.9059C0.370232 15.146 0.652674 12.2853 1.7321 9.68554C2.81153 7.08574 4.63947 4.8636 6.98478 3.30022C9.3301 1.73685 12.0874 0.902344 14.9081 0.902344C18.6905 0.902344 22.318 2.40138 24.9926 5.06962C27.6672 7.73786 29.1698 11.3568 29.1698 15.1303V15.1303Z" stroke="#5F79BB"/>
</g>
<defs>
<clipPath id="clip0_777_325">
<rect width="30" height="30" fill="white"/>
</clipPath>
</defs>
</svg>
