 <svg width="36" height="36" viewBox="0 0 36 36"  xmlns="http://www.w3.org/2000/svg">
<g clip-path="url(#clip0_749_343)">
<path fill-rule="evenodd" clip-rule="evenodd" d="M26.6982 12.7949C26.1867 12.2794 25.4919 11.9862 24.765 11.9791C22.065 11.7851 18.0165 11.7852 18.0165 11.7852H18.0072C18.0072 11.7852 13.9573 11.7851 11.2588 11.9791C10.5318 11.9861 9.83699 12.2793 9.32561 12.7949C8.91226 13.3571 8.64701 14.0139 8.55418 14.705C8.43417 15.7392 8.36979 16.7791 8.36133 17.8202V19.2811C8.3698 20.3217 8.43418 21.361 8.55418 22.3948C8.64694 23.0859 8.9122 23.7427 9.32561 24.3049C9.91309 24.8245 10.6682 25.1163 11.4532 25.1269C12.9961 25.2808 18.0119 25.3208 18.0119 25.3208C18.0119 25.3208 22.065 25.3208 24.765 25.1192C25.4917 25.1124 26.1864 24.8198 26.6982 24.3049C27.1115 23.7426 27.3768 23.0859 27.4696 22.3948C27.5896 21.361 27.654 20.3217 27.6624 19.2811V17.8202C27.654 16.7791 27.5896 15.7392 27.4696 14.705C27.3768 14.0139 27.1115 13.3571 26.6982 12.7949ZM14.648 22.3948V14.705L22.5 18.5L14.648 22.3948ZM17.5162 2C14.2493 2 11.0559 2.96651 8.33983 4.77705C5.62374 6.58758 3.507 9.1609 2.25708 12.1713C1.00716 15.1818 0.680126 18.4942 1.31731 21.6899C1.9545 24.8857 3.52733 27.8215 5.83706 30.1257C8.14682 32.43 11.0898 33.9994 14.2938 34.6353C17.4979 35.2711 20.8189 34.9446 23.837 33.6975C26.8551 32.4503 29.4345 30.3385 31.2492 27.6291C33.0639 24.9197 34.0324 21.7343 34.0324 18.4759C34.0324 14.1067 32.2925 9.91604 29.1953 6.82613C26.098 3.73617 21.8969 2 17.5162 2ZM7.78517 3.94497C10.6656 2.02486 14.0521 1 17.5162 1C22.1614 1 26.6165 2.84096 29.9015 6.11818C33.1866 9.39545 35.0324 13.8407 35.0324 18.4759C35.0324 21.9326 34.0049 25.3116 32.08 28.1855C30.1552 31.0595 27.4194 33.2991 24.2189 34.6217C21.0184 35.9442 17.4968 36.2904 14.0992 35.6161C10.7016 34.9419 7.58055 33.2776 5.13079 30.8337C2.68102 28.3897 1.01257 25.2757 0.336616 21.8855C-0.339342 18.4952 0.00761342 14.9813 1.33352 11.7879C2.65942 8.59446 4.90466 5.86511 7.78517 3.94497Z"  />
</g>
<defs>
<clipPath id="clip0_749_343">
<rect width="36" height="36" fill="white"/>
</clipPath>
</defs>
</svg>
